<?xml version="1.0" encoding="UTF-8" standalone="no"?>
<!DOCTYPE svg PUBLIC "-//W3C//DTD SVG 1.1//EN"
 "http://www.w3.org/Graphics/SVG/1.1/DTD/svg11.dtd">
<!-- Generated by graphviz version 2.40.1 (20161225.0304)
 -->
<!-- Title: FST Pages: 1 -->
<svg width="478pt" height="120pt"
 viewBox="0.00 0.00 478.00 120.00" xmlns="http://www.w3.org/2000/svg" xmlns:xlink="http://www.w3.org/1999/xlink">
<g id="graph0" class="graph" transform="scale(1 1) rotate(0) translate(4 116)">
<title>FST</title>
<polygon fill="#ffffff" stroke="transparent" points="-4,4 -4,-116 474,-116 474,4 -4,4"/>
<!-- 0 -->
<g id="node1" class="node">
<title>0</title>
<ellipse fill="none" stroke="#000000" stroke-width="2" cx="18" cy="-45" rx="18" ry="18"/>
<text text-anchor="middle" x="18" y="-41.3" font-family="Times,serif" font-size="14.00" fill="#000000">0</text>
</g>
<!-- 1 -->
<g id="node2" class="node">
<title>1</title>
<ellipse fill="none" stroke="#000000" cx="124" cy="-72" rx="18" ry="18"/>
<text text-anchor="middle" x="124" y="-68.3" font-family="Times,serif" font-size="14.00" fill="#000000">1</text>
</g>
<!-- 0&#45;&gt;1 -->
<g id="edge1" class="edge">
<title>0&#45;&gt;1</title>
<path fill="none" stroke="#000000" d="M35.5037,-49.4585C52.1518,-53.699 77.4477,-60.1423 96.7371,-65.0557"/>
<polygon fill="#000000" stroke="#000000" points="95.9157,-68.4581 106.4703,-67.5349 97.6436,-61.6747 95.9157,-68.4581"/>
<text text-anchor="middle" x="71" y="-66.8" font-family="Times,serif" font-size="14.00" fill="#000000">a/&#45;0.6</text>
</g>
<!-- 2 -->
<g id="node3" class="node">
<title>2</title>
<ellipse fill="none" stroke="#000000" cx="124" cy="-18" rx="18" ry="18"/>
<text text-anchor="middle" x="124" y="-14.3" font-family="Times,serif" font-size="14.00" fill="#000000">2</text>
</g>
<!-- 0&#45;&gt;2 -->
<g id="edge2" class="edge">
<title>0&#45;&gt;2</title>
<path fill="none" stroke="#000000" d="M35.0219,-38.9432C40.1256,-37.2312 45.76,-35.4432 51,-34 65.8521,-29.9094 82.6307,-26.1714 96.3538,-23.3389"/>
<polygon fill="#000000" stroke="#000000" points="97.0596,-26.7672 106.1699,-21.3586 95.6752,-19.9054 97.0596,-26.7672"/>
<text text-anchor="middle" x="71" y="-37.8" font-family="Times,serif" font-size="14.00" fill="#000000">a/&#45;0.6</text>
</g>
<!-- 3 -->
<g id="node4" class="node">
<title>3</title>
<ellipse fill="none" stroke="#000000" cx="231" cy="-94" rx="18" ry="18"/>
<text text-anchor="middle" x="231" y="-90.3" font-family="Times,serif" font-size="14.00" fill="#000000">3</text>
</g>
<!-- 1&#45;&gt;3 -->
<g id="edge3" class="edge">
<title>1&#45;&gt;3</title>
<path fill="none" stroke="#000000" d="M141.6689,-75.6329C158.474,-79.0881 184.0085,-84.3382 203.4799,-88.3417"/>
<polygon fill="#000000" stroke="#000000" points="202.8049,-91.776 213.3049,-90.3618 204.2147,-84.9194 202.8049,-91.776"/>
<text text-anchor="middle" x="177.5" y="-89.8" font-family="Times,serif" font-size="14.00" fill="#000000">a/0.2</text>
</g>
<!-- 4 -->
<g id="node5" class="node">
<title>4</title>
<ellipse fill="none" stroke="#000000" cx="231" cy="-40" rx="18" ry="18"/>
<text text-anchor="middle" x="231" y="-36.3" font-family="Times,serif" font-size="14.00" fill="#000000">4</text>
</g>
<!-- 1&#45;&gt;4 -->
<g id="edge4" class="edge">
<title>1&#45;&gt;4</title>
<path fill="none" stroke="#000000" d="M141.0332,-65.4939C146.1372,-63.6291 151.7689,-61.6547 157,-60 172.1667,-55.2024 189.3031,-50.5247 203.2634,-46.9009"/>
<polygon fill="#000000" stroke="#000000" points="204.4136,-50.2194 213.2345,-44.3506 202.6791,-43.4377 204.4136,-50.2194"/>
<text text-anchor="middle" x="177.5" y="-63.8" font-family="Times,serif" font-size="14.00" fill="#000000">a/0.2</text>
</g>
<!-- 2&#45;&gt;4 -->
<g id="edge5" class="edge">
<title>2&#45;&gt;4</title>
<path fill="none" stroke="#000000" d="M142.0564,-15.5366C157.301,-14.091 179.5328,-13.4867 198,-19 201.4223,-20.0217 204.8313,-21.51 208.0879,-23.2299"/>
<polygon fill="#000000" stroke="#000000" points="206.3846,-26.2905 216.7473,-28.496 210.0218,-20.3095 206.3846,-26.2905"/>
<text text-anchor="middle" x="177.5" y="-22.8" font-family="Times,serif" font-size="14.00" fill="#000000">b/&#45;1.6</text>
</g>
<!-- 5 -->
<g id="node6" class="node">
<title>5</title>
<ellipse fill="none" stroke="#000000" cx="337" cy="-67" rx="18" ry="18"/>
<text text-anchor="middle" x="337" y="-63.3" font-family="Times,serif" font-size="14.00" fill="#000000">5</text>
</g>
<!-- 3&#45;&gt;5 -->
<g id="edge6" class="edge">
<title>3&#45;&gt;5</title>
<path fill="none" stroke="#000000" d="M248.5037,-89.5415C265.1518,-85.301 290.4477,-78.8577 309.7371,-73.9443"/>
<polygon fill="#000000" stroke="#000000" points="310.6436,-77.3253 319.4703,-71.4651 308.9157,-70.5419 310.6436,-77.3253"/>
<text text-anchor="middle" x="284" y="-88.8" font-family="Times,serif" font-size="14.00" fill="#000000">a/&#45;1.3</text>
</g>
<!-- 4&#45;&gt;5 -->
<g id="edge7" class="edge">
<title>4&#45;&gt;5</title>
<path fill="none" stroke="#000000" d="M248.8301,-43.3586C263.6903,-46.2887 285.3621,-50.8667 304,-56 306.0469,-56.5638 308.1539,-57.1801 310.266,-57.824"/>
<polygon fill="#000000" stroke="#000000" points="309.3868,-61.2177 319.9781,-60.9432 311.5273,-54.553 309.3868,-61.2177"/>
<text text-anchor="middle" x="284" y="-59.8" font-family="Times,serif" font-size="14.00" fill="#000000">b/0.9</text>
</g>
<!-- 6 -->
<g id="node7" class="node">
<title>6</title>
<ellipse fill="none" stroke="#000000" cx="448" cy="-67" rx="18" ry="18"/>
<ellipse fill="none" stroke="#000000" cx="448" cy="-67" rx="22" ry="22"/>
<text text-anchor="middle" x="448" y="-63.3" font-family="Times,serif" font-size="14.00" fill="#000000">6</text>
</g>
<!-- 5&#45;&gt;6 -->
<g id="edge8" class="edge">
<title>5&#45;&gt;6</title>
<path fill="none" stroke="#000000" d="M355.3294,-67C371.7188,-67 396.1119,-67 415.7581,-67"/>
<polygon fill="#000000" stroke="#000000" points="415.8168,-70.5001 425.8168,-67 415.8167,-63.5001 415.8168,-70.5001"/>
<text text-anchor="middle" x="390.5" y="-70.8" font-family="Times,serif" font-size="14.00" fill="#000000">b/&#45;1.9</text>
</g>
</g>
</svg>
