<?xml version="1.0" encoding="UTF-8" standalone="no"?>
<!DOCTYPE svg PUBLIC "-//W3C//DTD SVG 1.1//EN"
 "http://www.w3.org/Graphics/SVG/1.1/DTD/svg11.dtd">
<!-- Generated by graphviz version 2.40.1 (20161225.0304)
 -->
<!-- Title: FST Pages: 1 -->
<svg width="255pt" height="292pt"
 viewBox="0.00 0.00 255.00 292.11" xmlns="http://www.w3.org/2000/svg" xmlns:xlink="http://www.w3.org/1999/xlink">
<g id="graph0" class="graph" transform="scale(1 1) rotate(0) translate(4 288.1106)">
<title>FST</title>
<polygon fill="#ffffff" stroke="transparent" points="-4,4 -4,-288.1106 251,-288.1106 251,4 -4,4"/>
<!-- 0 -->
<g id="node1" class="node">
<title>0</title>
<ellipse fill="none" stroke="#000000" stroke-width="2" cx="22" cy="-143.1106" rx="18" ry="18"/>
<ellipse fill="none" stroke="#000000" stroke-width="2" cx="22" cy="-143.1106" rx="22" ry="22"/>
<text text-anchor="middle" x="22" y="-139.4106" font-family="Times,serif" font-size="14.00" fill="#000000">0</text>
</g>
<!-- 1 -->
<g id="node2" class="node">
<title>1</title>
<ellipse fill="none" stroke="#000000" cx="126" cy="-260.1106" rx="18" ry="18"/>
<text text-anchor="middle" x="126" y="-256.4106" font-family="Times,serif" font-size="14.00" fill="#000000">1</text>
</g>
<!-- 0&#45;&gt;1 -->
<g id="edge1" class="edge">
<title>0&#45;&gt;1</title>
<path fill="none" stroke="#000000" d="M27.8452,-164.6094C33.4778,-182.0602 43.4629,-206.4233 59,-223.1106 70.1479,-235.0838 86.0696,-244.0983 99.595,-250.2306"/>
<polygon fill="#000000" stroke="#000000" points="98.3449,-253.5022 108.9176,-254.1876 101.08,-247.0586 98.3449,-253.5022"/>
<text text-anchor="middle" x="76" y="-249.9106" font-family="Times,serif" font-size="14.00" fill="#000000">ε:ε/0</text>
</g>
<!-- 3 -->
<g id="node3" class="node">
<title>3</title>
<ellipse fill="none" stroke="#000000" cx="126" cy="-104.1106" rx="18" ry="18"/>
<text text-anchor="middle" x="126" y="-100.4106" font-family="Times,serif" font-size="14.00" fill="#000000">3</text>
</g>
<!-- 0&#45;&gt;3 -->
<g id="edge2" class="edge">
<title>0&#45;&gt;3</title>
<path fill="none" stroke="#000000" d="M42.7368,-135.245C48.0373,-133.2398 53.7281,-131.0915 59,-129.1106 72.2563,-124.1295 87.0006,-118.6241 99.2753,-114.0505"/>
<polygon fill="#000000" stroke="#000000" points="100.7683,-117.2294 108.9183,-110.4597 98.3256,-110.6694 100.7683,-117.2294"/>
<text text-anchor="middle" x="76" y="-132.9106" font-family="Times,serif" font-size="14.00" fill="#000000">ε:ε/0</text>
</g>
<!-- 5 -->
<g id="node4" class="node">
<title>5</title>
<ellipse fill="none" stroke="#000000" cx="126" cy="-50.1106" rx="18" ry="18"/>
<text text-anchor="middle" x="126" y="-46.4106" font-family="Times,serif" font-size="14.00" fill="#000000">5</text>
</g>
<!-- 0&#45;&gt;5 -->
<g id="edge3" class="edge">
<title>0&#45;&gt;5</title>
<path fill="none" stroke="#000000" d="M34.6312,-125.0747C41.3318,-116.1498 50.0227,-105.517 59,-97.1106 72.0614,-84.8798 88.4864,-73.3084 101.8047,-64.7075"/>
<polygon fill="#000000" stroke="#000000" points="103.8576,-67.5507 110.4491,-59.256 100.1236,-61.6298 103.8576,-67.5507"/>
<text text-anchor="middle" x="76" y="-100.9106" font-family="Times,serif" font-size="14.00" fill="#000000">ε:ε/0</text>
</g>
<!-- 2 -->
<g id="node5" class="node">
<title>2</title>
<ellipse fill="none" stroke="#000000" cx="229" cy="-233.1106" rx="18" ry="18"/>
<text text-anchor="middle" x="229" y="-229.4106" font-family="Times,serif" font-size="14.00" fill="#000000">2</text>
</g>
<!-- 1&#45;&gt;2 -->
<g id="edge4" class="edge">
<title>1&#45;&gt;2</title>
<path fill="none" stroke="#000000" d="M143.4725,-255.5304C159.3795,-251.3606 183.126,-245.1358 201.5639,-240.3026"/>
<polygon fill="#000000" stroke="#000000" points="202.6561,-243.6346 211.4417,-237.7132 200.881,-236.8634 202.6561,-243.6346"/>
<text text-anchor="middle" x="177.5" y="-254.9106" font-family="Times,serif" font-size="14.00" fill="#000000">a:a/0</text>
</g>
<!-- 4 -->
<g id="node6" class="node">
<title>4</title>
<ellipse fill="none" stroke="#000000" cx="229" cy="-133.1106" rx="18" ry="18"/>
<text text-anchor="middle" x="229" y="-129.4106" font-family="Times,serif" font-size="14.00" fill="#000000">4</text>
</g>
<!-- 3&#45;&gt;4 -->
<g id="edge7" class="edge">
<title>3&#45;&gt;4</title>
<path fill="none" stroke="#000000" d="M143.4725,-109.03C159.3795,-113.5087 183.126,-120.1946 201.5639,-125.3859"/>
<polygon fill="#000000" stroke="#000000" points="200.8674,-128.8258 211.4417,-128.167 202.7646,-122.0878 200.8674,-128.8258"/>
<text text-anchor="middle" x="177.5" y="-126.9106" font-family="Times,serif" font-size="14.00" fill="#000000">b:b/0</text>
</g>
<!-- 6 -->
<g id="node7" class="node">
<title>6</title>
<ellipse fill="none" stroke="#000000" cx="229" cy="-20.1106" rx="18" ry="18"/>
<text text-anchor="middle" x="229" y="-16.4106" font-family="Times,serif" font-size="14.00" fill="#000000">6</text>
</g>
<!-- 5&#45;&gt;6 -->
<g id="edge10" class="edge">
<title>5&#45;&gt;6</title>
<path fill="none" stroke="#000000" d="M143.4725,-45.0215C159.4535,-40.3668 183.3471,-33.4076 201.8208,-28.0269"/>
<polygon fill="#000000" stroke="#000000" points="202.8195,-31.3815 211.4417,-25.2247 200.8619,-24.6608 202.8195,-31.3815"/>
<text text-anchor="middle" x="177.5" y="-43.9106" font-family="Times,serif" font-size="14.00" fill="#000000">c:c/0</text>
</g>
<!-- 2&#45;&gt;0 -->
<g id="edge6" class="edge">
<title>2&#45;&gt;0</title>
<path fill="none" stroke="#000000" d="M212.0486,-225.9976C181.3995,-213.1 114.7699,-184.892 59,-160.1106 56.5411,-159.018 53.9955,-157.8745 51.4432,-156.7193"/>
<polygon fill="#000000" stroke="#000000" points="52.8652,-153.5211 42.3145,-152.5553 49.9601,-159.8898 52.8652,-153.5211"/>
<text text-anchor="middle" x="126" y="-199.9106" font-family="Times,serif" font-size="14.00" fill="#000000">ε:ε/0</text>
</g>
<!-- 2&#45;&gt;2 -->
<g id="edge5" class="edge">
<title>2&#45;&gt;2</title>
<path fill="none" stroke="#000000" d="M220.3666,-249.0266C218.1144,-259.261 220.9922,-269.1106 229,-269.1106 234.2551,-269.1106 237.3009,-264.8687 238.1375,-259.06"/>
<polygon fill="#000000" stroke="#000000" points="241.6308,-258.8384 237.6334,-249.0266 234.6396,-259.1897 241.6308,-258.8384"/>
<text text-anchor="middle" x="229" y="-272.9106" font-family="Times,serif" font-size="14.00" fill="#000000">a:ε/0</text>
</g>
<!-- 4&#45;&gt;0 -->
<g id="edge9" class="edge">
<title>4&#45;&gt;0</title>
<path fill="none" stroke="#000000" d="M211.7003,-138.6902C206.6884,-140.0708 201.1726,-141.3667 196,-142.1106 146.9527,-149.1642 89.3223,-147.5892 54.2448,-145.5472"/>
<polygon fill="#000000" stroke="#000000" points="54.3179,-142.045 44.1171,-144.9075 53.8766,-149.031 54.3179,-142.045"/>
<text text-anchor="middle" x="126" y="-150.9106" font-family="Times,serif" font-size="14.00" fill="#000000">ε:ε/0</text>
</g>
<!-- 4&#45;&gt;4 -->
<g id="edge8" class="edge">
<title>4&#45;&gt;4</title>
<path fill="none" stroke="#000000" d="M220.3666,-149.0266C218.1144,-159.261 220.9922,-169.1106 229,-169.1106 234.2551,-169.1106 237.3009,-164.8687 238.1375,-159.06"/>
<polygon fill="#000000" stroke="#000000" points="241.6308,-158.8384 237.6334,-149.0266 234.6396,-159.1897 241.6308,-158.8384"/>
<text text-anchor="middle" x="229" y="-172.9106" font-family="Times,serif" font-size="14.00" fill="#000000">b:ε/0</text>
</g>
<!-- 6&#45;&gt;0 -->
<g id="edge12" class="edge">
<title>6&#45;&gt;0</title>
<path fill="none" stroke="#000000" d="M212.0468,-13.1881C187.7752,-4.4054 142.2733,7.8014 108,-8.1106 66.1988,-27.5176 42.465,-78.4366 30.9327,-111.8943"/>
<polygon fill="#000000" stroke="#000000" points="27.5198,-111.0703 27.7389,-121.6629 34.1732,-113.2456 27.5198,-111.0703"/>
<text text-anchor="middle" x="126" y="-11.9106" font-family="Times,serif" font-size="14.00" fill="#000000">ε:ε/0</text>
</g>
<!-- 6&#45;&gt;6 -->
<g id="edge11" class="edge">
<title>6&#45;&gt;6</title>
<path fill="none" stroke="#000000" d="M220.3666,-36.0266C218.1144,-46.261 220.9922,-56.1106 229,-56.1106 234.2551,-56.1106 237.3009,-51.8687 238.1375,-46.06"/>
<polygon fill="#000000" stroke="#000000" points="241.6308,-45.8384 237.6334,-36.0266 234.6396,-46.1897 241.6308,-45.8384"/>
<text text-anchor="middle" x="229" y="-59.9106" font-family="Times,serif" font-size="14.00" fill="#000000">c:ε/0</text>
</g>
</g>
</svg>
