<?xml version="1.0" encoding="UTF-8" standalone="no"?>
<!DOCTYPE svg PUBLIC "-//W3C//DTD SVG 1.1//EN"
 "http://www.w3.org/Graphics/SVG/1.1/DTD/svg11.dtd">
<!-- Generated by graphviz version 2.40.1 (20161225.0304)
 -->
<!-- Title: FST Pages: 1 -->
<svg width="229pt" height="81pt"
 viewBox="0.00 0.00 229.00 81.00" xmlns="http://www.w3.org/2000/svg" xmlns:xlink="http://www.w3.org/1999/xlink">
<g id="graph0" class="graph" transform="scale(1 1) rotate(0) translate(4 77)">
<title>FST</title>
<polygon fill="#ffffff" stroke="transparent" points="-4,4 -4,-77 225,-77 225,4 -4,4"/>
<!-- 0 -->
<g id="node1" class="node">
<title>0</title>
<ellipse fill="none" stroke="#000000" stroke-width="2" cx="18" cy="-22" rx="18" ry="18"/>
<text text-anchor="middle" x="18" y="-18.3" font-family="Times,serif" font-size="14.00" fill="#000000">0</text>
</g>
<!-- 0&#45;&gt;0 -->
<g id="edge1" class="edge">
<title>0&#45;&gt;0</title>
<path fill="none" stroke="#000000" d="M10.3321,-38.2903C8.4831,-48.3892 11.0391,-58 18,-58 22.4594,-58 25.1109,-54.0557 25.9546,-48.5656"/>
<polygon fill="#000000" stroke="#000000" points="29.4456,-48.1887 25.6679,-38.2903 22.4483,-48.384 29.4456,-48.1887"/>
<text text-anchor="middle" x="18" y="-61.8" font-family="Times,serif" font-size="14.00" fill="#000000">a/0</text>
</g>
<!-- 1 -->
<g id="node2" class="node">
<title>1</title>
<ellipse fill="none" stroke="#000000" cx="106" cy="-22" rx="18" ry="18"/>
<text text-anchor="middle" x="106" y="-18.3" font-family="Times,serif" font-size="14.00" fill="#000000">1</text>
</g>
<!-- 0&#45;&gt;1 -->
<g id="edge2" class="edge">
<title>0&#45;&gt;1</title>
<path fill="none" stroke="#000000" d="M36.2337,-22C48.1508,-22 63.9616,-22 77.5183,-22"/>
<polygon fill="#000000" stroke="#000000" points="77.7897,-25.5001 87.7897,-22 77.7897,-18.5001 77.7897,-25.5001"/>
<text text-anchor="middle" x="62" y="-25.8" font-family="Times,serif" font-size="14.00" fill="#000000">a/0</text>
</g>
<!-- 1&#45;&gt;1 -->
<g id="edge3" class="edge">
<title>1&#45;&gt;1</title>
<path fill="none" stroke="#000000" d="M98.3321,-38.2903C96.4831,-48.3892 99.0391,-58 106,-58 110.4594,-58 113.1109,-54.0557 113.9546,-48.5656"/>
<polygon fill="#000000" stroke="#000000" points="117.4456,-48.1887 113.6679,-38.2903 110.4483,-48.384 117.4456,-48.1887"/>
<text text-anchor="middle" x="106" y="-61.8" font-family="Times,serif" font-size="14.00" fill="#000000">b/0</text>
</g>
<!-- 2 -->
<g id="node3" class="node">
<title>2</title>
<ellipse fill="none" stroke="#000000" cx="199" cy="-22" rx="18" ry="18"/>
<ellipse fill="none" stroke="#000000" cx="199" cy="-22" rx="22" ry="22"/>
<text text-anchor="middle" x="199" y="-18.3" font-family="Times,serif" font-size="14.00" fill="#000000">2</text>
</g>
<!-- 1&#45;&gt;2 -->
<g id="edge4" class="edge">
<title>1&#45;&gt;2</title>
<path fill="none" stroke="#000000" d="M124.3738,-22C136.3538,-22 152.3235,-22 166.4151,-22"/>
<polygon fill="#000000" stroke="#000000" points="166.7279,-25.5001 176.7279,-22 166.7278,-18.5001 166.7279,-25.5001"/>
<text text-anchor="middle" x="150.5" y="-25.8" font-family="Times,serif" font-size="14.00" fill="#000000">b/0</text>
</g>
</g>
</svg>
