<?xml version="1.0" encoding="UTF-8" standalone="no"?>
<!DOCTYPE svg PUBLIC "-//W3C//DTD SVG 1.1//EN"
 "http://www.w3.org/Graphics/SVG/1.1/DTD/svg11.dtd">
<!-- Generated by graphviz version 2.40.1 (20161225.0304)
 -->
<!-- Title: FST Pages: 1 -->
<svg width="321pt" height="209pt"
 viewBox="0.00 0.00 321.00 209.00" xmlns="http://www.w3.org/2000/svg" xmlns:xlink="http://www.w3.org/1999/xlink">
<g id="graph0" class="graph" transform="scale(1 1) rotate(0) translate(4 205)">
<title>FST</title>
<polygon fill="#ffffff" stroke="transparent" points="-4,4 -4,-205 317,-205 317,4 -4,4"/>
<!-- 0 -->
<g id="node1" class="node">
<title>0</title>
<ellipse fill="none" stroke="#000000" stroke-width="2" cx="22" cy="-29" rx="18" ry="18"/>
<ellipse fill="none" stroke="#000000" stroke-width="2" cx="22" cy="-29" rx="22" ry="22"/>
<text text-anchor="middle" x="22" y="-25.3" font-family="Times,serif" font-size="14.00" fill="#000000">&lt;s&gt;</text>
</g>
<!-- 1 -->
<g id="node2" class="node">
<title>1</title>
<ellipse fill="none" stroke="#000000" cx="111" cy="-117" rx="18" ry="18"/>
<ellipse fill="none" stroke="#000000" cx="111" cy="-117" rx="22" ry="22"/>
<text text-anchor="middle" x="111" y="-113.3" font-family="Times,serif" font-size="14.00" fill="#000000">a</text>
</g>
<!-- 0&#45;&gt;1 -->
<g id="edge1" class="edge">
<title>0&#45;&gt;1</title>
<path fill="none" stroke="#000000" d="M37.9114,-44.7326C51.833,-58.4978 72.2284,-78.664 87.939,-94.1981"/>
<polygon fill="#000000" stroke="#000000" points="85.6545,-96.8614 95.2263,-101.4036 90.5763,-91.8837 85.6545,-96.8614"/>
<text text-anchor="middle" x="66.5" y="-78.8" font-family="Times,serif" font-size="14.00" fill="#000000">a</text>
</g>
<!-- 2 -->
<g id="node3" class="node">
<title>2</title>
<ellipse fill="none" stroke="#000000" cx="201" cy="-45" rx="18" ry="18"/>
<ellipse fill="none" stroke="#000000" cx="201" cy="-45" rx="22" ry="22"/>
<text text-anchor="middle" x="201" y="-41.3" font-family="Times,serif" font-size="14.00" fill="#000000">b</text>
</g>
<!-- 0&#45;&gt;2 -->
<g id="edge2" class="edge">
<title>0&#45;&gt;2</title>
<path fill="none" stroke="#000000" d="M43.9489,-30.9619C75.2173,-33.7569 132.7849,-38.9026 168.862,-42.1273"/>
<polygon fill="#000000" stroke="#000000" points="168.5996,-45.6177 178.8716,-43.022 169.2229,-38.6455 168.5996,-45.6177"/>
<text text-anchor="middle" x="111" y="-41.8" font-family="Times,serif" font-size="14.00" fill="#000000">b</text>
</g>
<!-- 3 -->
<g id="node4" class="node">
<title>3</title>
<ellipse fill="none" stroke="#000000" cx="291" cy="-90" rx="18" ry="18"/>
<ellipse fill="none" stroke="#000000" cx="291" cy="-90" rx="22" ry="22"/>
<text text-anchor="middle" x="291" y="-86.3" font-family="Times,serif" font-size="14.00" fill="#000000">c</text>
</g>
<!-- 0&#45;&gt;3 -->
<g id="edge3" class="edge">
<title>0&#45;&gt;3</title>
<path fill="none" stroke="#000000" d="M42.7419,-21.4224C80.0889,-9.0066 160.5674,12.0953 223,-11 246.6287,-19.7408 264.6683,-42.3385 276.2097,-61.1366"/>
<polygon fill="#000000" stroke="#000000" points="273.2992,-63.0942 281.3495,-69.9822 279.3517,-59.5774 273.2992,-63.0942"/>
<text text-anchor="middle" x="156" y="-3.8" font-family="Times,serif" font-size="14.00" fill="#000000">c</text>
</g>
<!-- 1&#45;&gt;1 -->
<g id="edge4" class="edge">
<title>1&#45;&gt;1</title>
<path fill="none" stroke="#000000" d="M103.4026,-137.7793C101.4207,-151.1408 103.9531,-164 111,-164 116.2301,-164 118.9735,-156.9166 119.2301,-147.8017"/>
<polygon fill="#000000" stroke="#000000" points="122.7206,-147.5388 118.5974,-137.7793 115.7345,-147.9799 122.7206,-147.5388"/>
<text text-anchor="middle" x="111" y="-167.8" font-family="Times,serif" font-size="14.00" fill="#000000">a</text>
</g>
<!-- 1&#45;&gt;2 -->
<g id="edge5" class="edge">
<title>1&#45;&gt;2</title>
<path fill="none" stroke="#000000" d="M130.8553,-107.2433C140.3985,-102.1247 151.7448,-95.3862 161,-88 167.6119,-82.7233 174.1396,-76.3503 179.9431,-70.1458"/>
<polygon fill="#000000" stroke="#000000" points="182.764,-72.2437 186.8588,-62.4721 177.5641,-67.5574 182.764,-72.2437"/>
<text text-anchor="middle" x="156" y="-97.8" font-family="Times,serif" font-size="14.00" fill="#000000">b</text>
</g>
<!-- 1&#45;&gt;3 -->
<g id="edge6" class="edge">
<title>1&#45;&gt;3</title>
<path fill="none" stroke="#000000" d="M120.7419,-136.7715C127.5364,-148.2792 137.7573,-161.8819 151,-169 190.1476,-190.0422 213.988,-193.6053 251,-169 267.374,-158.1147 277.3711,-138.3874 283.2762,-121.3701"/>
<polygon fill="#000000" stroke="#000000" points="286.6399,-122.3403 286.2974,-111.751 279.9616,-120.2427 286.6399,-122.3403"/>
<text text-anchor="middle" x="201" y="-189.8" font-family="Times,serif" font-size="14.00" fill="#000000">c</text>
</g>
<!-- 2&#45;&gt;1 -->
<g id="edge7" class="edge">
<title>2&#45;&gt;1</title>
<path fill="none" stroke="#000000" d="M179.8271,-51.7163C170.4248,-55.3285 159.5721,-60.4117 151,-67 142.7575,-73.335 135.1993,-81.7137 128.9253,-89.7977"/>
<polygon fill="#000000" stroke="#000000" points="125.9847,-87.8885 122.8771,-98.0174 131.6229,-92.0372 125.9847,-87.8885"/>
<text text-anchor="middle" x="156" y="-70.8" font-family="Times,serif" font-size="14.00" fill="#000000">a</text>
</g>
<!-- 2&#45;&gt;2 -->
<g id="edge8" class="edge">
<title>2&#45;&gt;2</title>
<path fill="none" stroke="#000000" d="M193.4026,-65.7793C191.4207,-79.1408 193.9531,-92 201,-92 206.2301,-92 208.9735,-84.9166 209.2301,-75.8017"/>
<polygon fill="#000000" stroke="#000000" points="212.7206,-75.5388 208.5974,-65.7793 205.7345,-75.9799 212.7206,-75.5388"/>
<text text-anchor="middle" x="201" y="-95.8" font-family="Times,serif" font-size="14.00" fill="#000000">b</text>
</g>
<!-- 2&#45;&gt;3 -->
<g id="edge9" class="edge">
<title>2&#45;&gt;3</title>
<path fill="none" stroke="#000000" d="M222.7583,-40.5313C231.8554,-39.6679 242.3091,-40.0402 251,-44 259.9113,-48.0603 267.6065,-55.1951 273.8005,-62.6514"/>
<polygon fill="#000000" stroke="#000000" points="271.0941,-64.8753 279.9188,-70.7382 276.6764,-60.6517 271.0941,-64.8753"/>
<text text-anchor="middle" x="246" y="-47.8" font-family="Times,serif" font-size="14.00" fill="#000000">c</text>
</g>
<!-- 3&#45;&gt;1 -->
<g id="edge10" class="edge">
<title>3&#45;&gt;1</title>
<path fill="none" stroke="#000000" d="M270.5813,-98.6446C257.2883,-103.8342 239.4273,-109.995 223,-113 196.3987,-117.8661 165.6686,-118.6274 143.1341,-118.3068"/>
<polygon fill="#000000" stroke="#000000" points="143.1681,-114.8068 133.0932,-118.085 143.0135,-121.8051 143.1681,-114.8068"/>
<text text-anchor="middle" x="201" y="-120.8" font-family="Times,serif" font-size="14.00" fill="#000000">a</text>
</g>
<!-- 3&#45;&gt;2 -->
<g id="edge11" class="edge">
<title>3&#45;&gt;2</title>
<path fill="none" stroke="#000000" d="M271.0819,-80.041C259.0912,-74.0456 243.6095,-66.3048 230.2481,-59.6241"/>
<polygon fill="#000000" stroke="#000000" points="231.4835,-56.3286 220.9739,-54.987 228.3529,-62.5896 231.4835,-56.3286"/>
<text text-anchor="middle" x="246" y="-71.8" font-family="Times,serif" font-size="14.00" fill="#000000">b</text>
</g>
<!-- 3&#45;&gt;3 -->
<g id="edge12" class="edge">
<title>3&#45;&gt;3</title>
<path fill="none" stroke="#000000" d="M283.4026,-110.7793C281.4207,-124.1408 283.9531,-137 291,-137 296.2301,-137 298.9735,-129.9166 299.2301,-120.8017"/>
<polygon fill="#000000" stroke="#000000" points="302.7206,-120.5388 298.5974,-110.7793 295.7345,-120.9799 302.7206,-120.5388"/>
<text text-anchor="middle" x="291" y="-140.8" font-family="Times,serif" font-size="14.00" fill="#000000">c</text>
</g>
</g>
</svg>
