<?xml version="1.0" encoding="UTF-8" standalone="no"?>
<!DOCTYPE svg PUBLIC "-//W3C//DTD SVG 1.1//EN"
 "http://www.w3.org/Graphics/SVG/1.1/DTD/svg11.dtd">
<!-- Generated by graphviz version 2.40.1 (20161225.0304)
 -->
<!-- Title: FST Pages: 1 -->
<svg width="478pt" height="69pt"
 viewBox="0.00 0.00 478.00 69.10" xmlns="http://www.w3.org/2000/svg" xmlns:xlink="http://www.w3.org/1999/xlink">
<g id="graph0" class="graph" transform="scale(1 1) rotate(0) translate(4 65.0955)">
<title>FST</title>
<polygon fill="#ffffff" stroke="transparent" points="-4,4 -4,-65.0955 474,-65.0955 474,4 -4,4"/>
<!-- 0 -->
<g id="node1" class="node">
<title>0</title>
<ellipse fill="none" stroke="#000000" stroke-width="2" cx="18" cy="-27.0955" rx="18" ry="18"/>
<text text-anchor="middle" x="18" y="-23.3955" font-family="Times,serif" font-size="14.00" fill="#000000">0</text>
</g>
<!-- 1 -->
<g id="node2" class="node">
<title>1</title>
<ellipse fill="none" stroke="#000000" cx="124" cy="-27.0955" rx="18" ry="18"/>
<text text-anchor="middle" x="124" y="-23.3955" font-family="Times,serif" font-size="14.00" fill="#000000">1</text>
</g>
<!-- 0&#45;&gt;1 -->
<g id="edge1" class="edge">
<title>0&#45;&gt;1</title>
<path fill="none" stroke="#000000" d="M33.5774,-36.4298C38.9127,-39.1354 45.0427,-41.7274 51,-43.0955 68.3268,-47.0744 73.6732,-47.0744 91,-43.0955 93.6994,-42.4756 96.4343,-41.6044 99.1146,-40.5852"/>
<polygon fill="#000000" stroke="#000000" points="100.718,-43.7023 108.4226,-36.4298 97.8644,-37.3104 100.718,-43.7023"/>
<text text-anchor="middle" x="71" y="-48.8955" font-family="Times,serif" font-size="14.00" fill="#000000">a/&#45;0.6</text>
</g>
<!-- 0&#45;&gt;1 -->
<g id="edge2" class="edge">
<title>0&#45;&gt;1</title>
<path fill="none" stroke="#000000" d="M36.1352,-25.149C40.9602,-24.7127 46.1726,-24.3144 51,-24.0955 68.7595,-23.2899 73.2405,-23.2899 91,-24.0955 92.5086,-24.1639 94.0547,-24.2498 95.6149,-24.349"/>
<polygon fill="#000000" stroke="#000000" points="95.6227,-27.8601 105.8648,-25.149 96.1675,-20.8814 95.6227,-27.8601"/>
<text text-anchor="middle" x="71" y="-27.8955" font-family="Times,serif" font-size="14.00" fill="#000000">b/0</text>
</g>
<!-- 0&#45;&gt;1 -->
<g id="edge3" class="edge">
<title>0&#45;&gt;1</title>
<path fill="none" stroke="#000000" d="M31.4382,-14.9446C37.0662,-10.6383 43.9378,-6.3137 51,-4.0955 67.9608,1.232 74.0392,1.232 91,-4.0955 94.8621,-5.3086 98.6673,-7.1516 102.2432,-9.2771"/>
<polygon fill="#000000" stroke="#000000" points="100.3269,-12.2066 110.5618,-14.9446 104.2682,-6.4216 100.3269,-12.2066"/>
<text text-anchor="middle" x="71" y="-7.8955" font-family="Times,serif" font-size="14.00" fill="#000000">c/&#45;0.5</text>
</g>
<!-- 2 -->
<g id="node3" class="node">
<title>2</title>
<ellipse fill="none" stroke="#000000" cx="231" cy="-27.0955" rx="18" ry="18"/>
<text text-anchor="middle" x="231" y="-23.3955" font-family="Times,serif" font-size="14.00" fill="#000000">2</text>
</g>
<!-- 1&#45;&gt;2 -->
<g id="edge4" class="edge">
<title>1&#45;&gt;2</title>
<path fill="none" stroke="#000000" d="M139.5774,-36.4298C144.9127,-39.1354 151.0427,-41.7274 157,-43.0955 174.76,-47.1739 180.24,-47.1739 198,-43.0955 200.6994,-42.4756 203.4343,-41.6044 206.1146,-40.5852"/>
<polygon fill="#000000" stroke="#000000" points="207.718,-43.7023 215.4226,-36.4298 204.8644,-37.3104 207.718,-43.7023"/>
<text text-anchor="middle" x="177.5" y="-49.8955" font-family="Times,serif" font-size="14.00" fill="#000000">a/0.2</text>
</g>
<!-- 1&#45;&gt;2 -->
<g id="edge5" class="edge">
<title>1&#45;&gt;2</title>
<path fill="none" stroke="#000000" d="M142.1352,-25.149C146.9602,-24.7127 152.1726,-24.3144 157,-24.0955 175.2035,-23.2697 179.7965,-23.2697 198,-24.0955 199.5086,-24.1639 201.0547,-24.2498 202.6149,-24.349"/>
<polygon fill="#000000" stroke="#000000" points="202.6227,-27.8601 212.8648,-25.149 203.1675,-20.8814 202.6227,-27.8601"/>
<text text-anchor="middle" x="177.5" y="-27.8955" font-family="Times,serif" font-size="14.00" fill="#000000">b/&#45;1.6</text>
</g>
<!-- 1&#45;&gt;2 -->
<g id="edge6" class="edge">
<title>1&#45;&gt;2</title>
<path fill="none" stroke="#000000" d="M137.4382,-14.9446C143.0662,-10.6383 149.9378,-6.3137 157,-4.0955 174.3848,1.3652 180.6152,1.3652 198,-4.0955 201.8621,-5.3086 205.6673,-7.1516 209.2432,-9.2771"/>
<polygon fill="#000000" stroke="#000000" points="207.3269,-12.2066 217.5618,-14.9446 211.2682,-6.4216 207.3269,-12.2066"/>
<text text-anchor="middle" x="177.5" y="-7.8955" font-family="Times,serif" font-size="14.00" fill="#000000">c/0.7</text>
</g>
<!-- 3 -->
<g id="node4" class="node">
<title>3</title>
<ellipse fill="none" stroke="#000000" cx="337" cy="-27.0955" rx="18" ry="18"/>
<text text-anchor="middle" x="337" y="-23.3955" font-family="Times,serif" font-size="14.00" fill="#000000">3</text>
</g>
<!-- 2&#45;&gt;3 -->
<g id="edge7" class="edge">
<title>2&#45;&gt;3</title>
<path fill="none" stroke="#000000" d="M246.5774,-36.4298C251.9127,-39.1354 258.0427,-41.7274 264,-43.0955 281.3268,-47.0744 286.6732,-47.0744 304,-43.0955 306.6994,-42.4756 309.4343,-41.6044 312.1146,-40.5852"/>
<polygon fill="#000000" stroke="#000000" points="313.718,-43.7023 321.4226,-36.4298 310.8644,-37.3104 313.718,-43.7023"/>
<text text-anchor="middle" x="284" y="-48.8955" font-family="Times,serif" font-size="14.00" fill="#000000">a/&#45;1.3</text>
</g>
<!-- 2&#45;&gt;3 -->
<g id="edge8" class="edge">
<title>2&#45;&gt;3</title>
<path fill="none" stroke="#000000" d="M249.1352,-25.149C253.9602,-24.7127 259.1726,-24.3144 264,-24.0955 281.7595,-23.2899 286.2405,-23.2899 304,-24.0955 305.5086,-24.1639 307.0547,-24.2498 308.6149,-24.349"/>
<polygon fill="#000000" stroke="#000000" points="308.6227,-27.8601 318.8648,-25.149 309.1675,-20.8814 308.6227,-27.8601"/>
<text text-anchor="middle" x="284" y="-27.8955" font-family="Times,serif" font-size="14.00" fill="#000000">b/0.9</text>
</g>
<!-- 2&#45;&gt;3 -->
<g id="edge9" class="edge">
<title>2&#45;&gt;3</title>
<path fill="none" stroke="#000000" d="M244.4382,-14.9446C250.0662,-10.6383 256.9378,-6.3137 264,-4.0955 280.9608,1.232 287.0392,1.232 304,-4.0955 307.8621,-5.3086 311.6673,-7.1516 315.2432,-9.2771"/>
<polygon fill="#000000" stroke="#000000" points="313.3269,-12.2066 323.5618,-14.9446 317.2682,-6.4216 313.3269,-12.2066"/>
<text text-anchor="middle" x="284" y="-7.8955" font-family="Times,serif" font-size="14.00" fill="#000000">c/&#45;1.6</text>
</g>
<!-- 4 -->
<g id="node5" class="node">
<title>4</title>
<ellipse fill="none" stroke="#000000" cx="448" cy="-27.0955" rx="18" ry="18"/>
<ellipse fill="none" stroke="#000000" cx="448" cy="-27.0955" rx="22" ry="22"/>
<text text-anchor="middle" x="448" y="-23.3955" font-family="Times,serif" font-size="14.00" fill="#000000">4</text>
</g>
<!-- 3&#45;&gt;4 -->
<g id="edge10" class="edge">
<title>3&#45;&gt;4</title>
<path fill="none" stroke="#000000" d="M352.5774,-36.4298C357.9127,-39.1354 364.0427,-41.7274 370,-43.0955 387.76,-47.1739 393.1559,-46.7884 411,-43.0955 413.5186,-42.5742 416.0765,-41.8729 418.6107,-41.054"/>
<polygon fill="#000000" stroke="#000000" points="420.0226,-44.2619 428.1327,-37.4446 417.5414,-37.7163 420.0226,-44.2619"/>
<text text-anchor="middle" x="390.5" y="-48.8955" font-family="Times,serif" font-size="14.00" fill="#000000">a/0.1</text>
</g>
<!-- 3&#45;&gt;4 -->
<g id="edge11" class="edge">
<title>3&#45;&gt;4</title>
<path fill="none" stroke="#000000" d="M355.1352,-25.149C359.9602,-24.7127 365.1726,-24.3144 370,-24.0955 388.2035,-23.2697 392.7927,-23.3585 411,-24.0955 412.4891,-24.1557 414.0111,-24.2296 415.5479,-24.3141"/>
<polygon fill="#000000" stroke="#000000" points="415.5013,-27.8187 425.7129,-24.995 415.9692,-20.8344 415.5013,-27.8187"/>
<text text-anchor="middle" x="390.5" y="-27.8955" font-family="Times,serif" font-size="14.00" fill="#000000">b/&#45;1.9</text>
</g>
<!-- 3&#45;&gt;4 -->
<g id="edge12" class="edge">
<title>3&#45;&gt;4</title>
<path fill="none" stroke="#000000" d="M350.4382,-14.9446C356.0662,-10.6383 362.9378,-6.3137 370,-4.0955 387.3848,1.3652 393.4778,.9068 411,-4.0955 414.6319,-5.1323 418.2548,-6.6398 421.734,-8.395"/>
<polygon fill="#000000" stroke="#000000" points="420.1053,-11.4961 430.5155,-13.4659 423.6059,-5.4342 420.1053,-11.4961"/>
<text text-anchor="middle" x="390.5" y="-7.8955" font-family="Times,serif" font-size="14.00" fill="#000000">c/&#45;1</text>
</g>
</g>
</svg>
