<?xml version="1.0" encoding="UTF-8" standalone="no"?>
<!DOCTYPE svg PUBLIC "-//W3C//DTD SVG 1.1//EN"
 "http://www.w3.org/Graphics/SVG/1.1/DTD/svg11.dtd">
<!-- Generated by graphviz version 2.40.1 (20161225.0304)
 -->
<!-- Title: FST Pages: 1 -->
<svg width="384pt" height="172pt"
 viewBox="0.00 0.00 384.00 171.82" xmlns="http://www.w3.org/2000/svg" xmlns:xlink="http://www.w3.org/1999/xlink">
<g id="graph0" class="graph" transform="scale(1 1) rotate(0) translate(4 167.8234)">
<title>FST</title>
<polygon fill="#ffffff" stroke="transparent" points="-4,4 -4,-167.8234 380,-167.8234 380,4 -4,4"/>
<!-- 0 -->
<g id="node1" class="node">
<title>0</title>
<ellipse fill="none" stroke="#000000" stroke-width="2" cx="32" cy="-33.8234" rx="18" ry="18"/>
<ellipse fill="none" stroke="#000000" stroke-width="2" cx="32" cy="-33.8234" rx="22" ry="22"/>
<text text-anchor="middle" x="32" y="-30.1234" font-family="Times,serif" font-size="14.00" fill="#000000">a</text>
</g>
<!-- 0&#45;&gt;0 -->
<g id="edge1" class="edge">
<title>0&#45;&gt;0</title>
<path fill="none" stroke="#000000" d="M20.8145,-52.9207C15.545,-69.8273 19.2734,-87.8234 32,-87.8234 42.2409,-87.8234 46.6554,-76.1705 45.2434,-62.8094"/>
<polygon fill="#000000" stroke="#000000" points="48.6495,-61.9978 43.1855,-52.9207 41.7964,-63.4241 48.6495,-61.9978"/>
<text text-anchor="start" x="0" y="-92.6234" font-family="Times,serif" font-size="14.00" fill="#000000">a/</text>
<text text-anchor="start" x="13" y="-92.6234" font-family="Times,serif" font-style="italic" font-size="14.00" fill="#000000">p</text>
<text text-anchor="start" x="23" y="-92.6234" font-family="Times,serif" font-size="14.00" fill="#000000">(a | a)</text>
</g>
<!-- 1 -->
<g id="node2" class="node">
<title>1</title>
<ellipse fill="none" stroke="#000000" stroke-width="2" cx="188" cy="-94.8234" rx="18" ry="18"/>
<ellipse fill="none" stroke="#000000" stroke-width="2" cx="188" cy="-94.8234" rx="22" ry="22"/>
<text text-anchor="middle" x="188" y="-91.1234" font-family="Times,serif" font-size="14.00" fill="#000000">b</text>
</g>
<!-- 0&#45;&gt;1 -->
<g id="edge2" class="edge">
<title>0&#45;&gt;1</title>
<path fill="none" stroke="#000000" d="M44.3731,-52.0426C51.4119,-60.9551 61.0115,-70.9942 72,-76.8234 97.8766,-90.5505 131.2623,-94.5375 155.5684,-95.3945"/>
<polygon fill="#000000" stroke="#000000" points="155.6428,-98.8965 165.7087,-95.5907 155.7783,-91.8978 155.6428,-98.8965"/>
<text text-anchor="start" x="72" y="-98.6234" font-family="Times,serif" font-size="14.00" fill="#000000">b/</text>
<text text-anchor="start" x="86" y="-98.6234" font-family="Times,serif" font-style="italic" font-size="14.00" fill="#000000">p</text>
<text text-anchor="start" x="96" y="-98.6234" font-family="Times,serif" font-size="14.00" fill="#000000">(b | a)</text>
</g>
<!-- 2 -->
<g id="node3" class="node">
<title>2</title>
<ellipse fill="none" stroke="#000000" stroke-width="2" cx="344" cy="-33.8234" rx="18" ry="18"/>
<ellipse fill="none" stroke="#000000" stroke-width="2" cx="344" cy="-33.8234" rx="22" ry="22"/>
<text text-anchor="middle" x="344" y="-30.1234" font-family="Times,serif" font-size="14.00" fill="#000000">c</text>
</g>
<!-- 0&#45;&gt;2 -->
<g id="edge3" class="edge">
<title>0&#45;&gt;2</title>
<path fill="none" stroke="#000000" d="M53.977,-31.2283C59.8255,-30.6465 66.1449,-30.1155 72,-29.8234 174.9831,-24.6871 201.0169,-24.6871 304,-29.8234 306.5616,-29.9512 309.2121,-30.1247 311.8731,-30.3282"/>
<polygon fill="#000000" stroke="#000000" points="311.7529,-33.8312 322.023,-31.2283 312.3713,-26.8585 311.7529,-33.8312"/>
<text text-anchor="start" x="156" y="-30.6234" font-family="Times,serif" font-size="14.00" fill="#000000">c/</text>
<text text-anchor="start" x="169" y="-30.6234" font-family="Times,serif" font-style="italic" font-size="14.00" fill="#000000">p</text>
<text text-anchor="start" x="179" y="-30.6234" font-family="Times,serif" font-size="14.00" fill="#000000">(c | a)</text>
</g>
<!-- 1&#45;&gt;0 -->
<g id="edge5" class="edge">
<title>1&#45;&gt;0</title>
<path fill="none" stroke="#000000" d="M172.1524,-79.3743C162.8971,-71.1892 150.588,-61.6505 138,-55.8234 114.5478,-44.9673 85.7088,-39.4263 64.0353,-36.6227"/>
<polygon fill="#000000" stroke="#000000" points="64.3644,-33.1374 54.0261,-35.455 63.5532,-40.0903 64.3644,-33.1374"/>
<text text-anchor="start" x="72" y="-60.6234" font-family="Times,serif" font-size="14.00" fill="#000000">b/</text>
<text text-anchor="start" x="86" y="-60.6234" font-family="Times,serif" font-style="italic" font-size="14.00" fill="#000000">p</text>
<text text-anchor="start" x="96" y="-60.6234" font-family="Times,serif" font-size="14.00" fill="#000000">(a | b)</text>
</g>
<!-- 1&#45;&gt;1 -->
<g id="edge4" class="edge">
<title>1&#45;&gt;1</title>
<path fill="none" stroke="#000000" d="M175.5679,-113.0811C169.1216,-130.2258 173.2656,-148.8234 188,-148.8234 199.8566,-148.8234 204.8557,-136.781 202.9973,-123.1437"/>
<polygon fill="#000000" stroke="#000000" points="206.2939,-121.9066 200.4321,-113.0811 199.5109,-123.6358 206.2939,-121.9066"/>
<text text-anchor="start" x="155" y="-153.6234" font-family="Times,serif" font-size="14.00" fill="#000000">a/</text>
<text text-anchor="start" x="168" y="-153.6234" font-family="Times,serif" font-style="italic" font-size="14.00" fill="#000000">p</text>
<text text-anchor="start" x="178" y="-153.6234" font-family="Times,serif" font-size="14.00" fill="#000000">(b | b)</text>
</g>
<!-- 1&#45;&gt;2 -->
<g id="edge6" class="edge">
<title>1&#45;&gt;2</title>
<path fill="none" stroke="#000000" d="M210.2913,-95.5907C234.6922,-95.5043 274.2942,-92.5819 304,-76.8234 311.898,-72.6337 319.0785,-66.2691 325.1063,-59.7112"/>
<polygon fill="#000000" stroke="#000000" points="327.8154,-61.9282 331.6269,-52.0426 322.4826,-57.3936 327.8154,-61.9282"/>
<text text-anchor="start" x="238.5" y="-98.6234" font-family="Times,serif" font-size="14.00" fill="#000000">c/</text>
<text text-anchor="start" x="251.5" y="-98.6234" font-family="Times,serif" font-style="italic" font-size="14.00" fill="#000000">p</text>
<text text-anchor="start" x="261.5" y="-98.6234" font-family="Times,serif" font-size="14.00" fill="#000000">(c | b)</text>
</g>
<!-- 2&#45;&gt;0 -->
<g id="edge8" class="edge">
<title>2&#45;&gt;0</title>
<path fill="none" stroke="#000000" d="M323.4624,-25.3559C317.2787,-23.0155 310.4269,-20.6263 304,-18.8234 267.408,-8.5584 257.8364,-6.3948 220,-2.8234 154.1317,3.3939 135.702,-.9534 72,-18.8234 68.7865,-19.7249 65.4669,-20.7729 62.1776,-21.8881"/>
<polygon fill="#000000" stroke="#000000" points="60.7625,-18.6775 52.5376,-25.3559 63.1321,-25.2643 60.7625,-18.6775"/>
<text text-anchor="start" x="156" y="-7.6234" font-family="Times,serif" font-size="14.00" fill="#000000">a/</text>
<text text-anchor="start" x="169" y="-7.6234" font-family="Times,serif" font-style="italic" font-size="14.00" fill="#000000">p</text>
<text text-anchor="start" x="179" y="-7.6234" font-family="Times,serif" font-size="14.00" fill="#000000">(a | c)</text>
</g>
<!-- 2&#45;&gt;1 -->
<g id="edge9" class="edge">
<title>2&#45;&gt;1</title>
<path fill="none" stroke="#000000" d="M321.9739,-35.455C299.8737,-37.7552 265.2899,-43.1908 238,-55.8234 228.6574,-60.1482 219.4683,-66.5175 211.5674,-72.8605"/>
<polygon fill="#000000" stroke="#000000" points="209.2333,-70.2505 203.8476,-79.3743 213.7475,-75.6005 209.2333,-70.2505"/>
<text text-anchor="start" x="238" y="-60.6234" font-family="Times,serif" font-size="14.00" fill="#000000">b/</text>
<text text-anchor="start" x="252" y="-60.6234" font-family="Times,serif" font-style="italic" font-size="14.00" fill="#000000">p</text>
<text text-anchor="start" x="262" y="-60.6234" font-family="Times,serif" font-size="14.00" fill="#000000">(b | c)</text>
</g>
<!-- 2&#45;&gt;2 -->
<g id="edge7" class="edge">
<title>2&#45;&gt;2</title>
<path fill="none" stroke="#000000" d="M332.8145,-52.9207C327.545,-69.8273 331.2734,-87.8234 344,-87.8234 354.2409,-87.8234 358.6554,-76.1705 357.2434,-62.8094"/>
<polygon fill="#000000" stroke="#000000" points="360.6495,-61.9978 355.1855,-52.9207 353.7964,-63.4241 360.6495,-61.9978"/>
<text text-anchor="start" x="312" y="-92.6234" font-family="Times,serif" font-size="14.00" fill="#000000">c/</text>
<text text-anchor="start" x="325" y="-92.6234" font-family="Times,serif" font-style="italic" font-size="14.00" fill="#000000">p</text>
<text text-anchor="start" x="335" y="-92.6234" font-family="Times,serif" font-size="14.00" fill="#000000">(c | c)</text>
</g>
</g>
</svg>
