<?xml version="1.0" encoding="UTF-8" standalone="no"?>
<!DOCTYPE svg PUBLIC "-//W3C//DTD SVG 1.1//EN"
 "http://www.w3.org/Graphics/SVG/1.1/DTD/svg11.dtd">
<!-- Generated by graphviz version 2.40.1 (20161225.0304)
 -->
<!-- Title: FST Pages: 1 -->
<svg width="600pt" height="157pt"
 viewBox="0.00 0.00 599.99 156.75" xmlns="http://www.w3.org/2000/svg" xmlns:xlink="http://www.w3.org/1999/xlink">
<g id="graph0" class="graph" transform="scale(1 1) rotate(0) translate(4 152.748)">
<title>FST</title>
<polygon fill="#ffffff" stroke="transparent" points="-4,4 -4,-152.748 595.9919,-152.748 595.9919,4 -4,4"/>
<!-- 0 -->
<g id="node1" class="node">
<title>0</title>
<ellipse fill="none" stroke="#000000" stroke-width="2" cx="18" cy="-103.748" rx="18" ry="18"/>
<text text-anchor="middle" x="18" y="-100.048" font-family="Times,serif" font-size="14.00" fill="#000000">0</text>
</g>
<!-- 1 -->
<g id="node2" class="node">
<title>1</title>
<ellipse fill="none" stroke="#000000" cx="106" cy="-130.748" rx="18" ry="18"/>
<text text-anchor="middle" x="106" y="-127.048" font-family="Times,serif" font-size="14.00" fill="#000000">1</text>
</g>
<!-- 0&#45;&gt;1 -->
<g id="edge1" class="edge">
<title>0&#45;&gt;1</title>
<path fill="none" stroke="#000000" d="M35.386,-109.0823C47.8004,-112.8913 64.7424,-118.0894 78.9198,-122.4393"/>
<polygon fill="#000000" stroke="#000000" points="78.0634,-125.8375 88.6501,-125.4247 80.1167,-119.1454 78.0634,-125.8375"/>
<text text-anchor="middle" x="62" y="-123.548" font-family="Times,serif" font-size="14.00" fill="#000000">a/0</text>
</g>
<!-- 2 -->
<g id="node3" class="node">
<title>2</title>
<ellipse fill="none" stroke="#000000" cx="106" cy="-76.748" rx="18" ry="18"/>
<text text-anchor="middle" x="106" y="-73.048" font-family="Times,serif" font-size="14.00" fill="#000000">2</text>
</g>
<!-- 0&#45;&gt;2 -->
<g id="edge2" class="edge">
<title>0&#45;&gt;2</title>
<path fill="none" stroke="#000000" d="M35.386,-98.4137C47.8004,-94.6047 64.7424,-89.4066 78.9198,-85.0567"/>
<polygon fill="#000000" stroke="#000000" points="80.1167,-88.3506 88.6501,-82.0712 78.0634,-81.6585 80.1167,-88.3506"/>
<text text-anchor="middle" x="62" y="-96.548" font-family="Times,serif" font-size="14.00" fill="#000000">a/0</text>
</g>
<!-- 3 -->
<g id="node4" class="node">
<title>3</title>
<ellipse fill="none" stroke="#000000" cx="194" cy="-130.748" rx="18" ry="18"/>
<text text-anchor="middle" x="194" y="-127.048" font-family="Times,serif" font-size="14.00" fill="#000000">3</text>
</g>
<!-- 1&#45;&gt;3 -->
<g id="edge3" class="edge">
<title>1&#45;&gt;3</title>
<path fill="none" stroke="#000000" d="M124.2337,-130.748C136.1508,-130.748 151.9616,-130.748 165.5183,-130.748"/>
<polygon fill="#000000" stroke="#000000" points="165.7897,-134.2481 175.7897,-130.748 165.7897,-127.2481 165.7897,-134.2481"/>
<text text-anchor="middle" x="150" y="-134.548" font-family="Times,serif" font-size="14.00" fill="#000000">a/0</text>
</g>
<!-- 4 -->
<g id="node5" class="node">
<title>4</title>
<ellipse fill="none" stroke="#000000" cx="194" cy="-76.748" rx="18" ry="18"/>
<text text-anchor="middle" x="194" y="-73.048" font-family="Times,serif" font-size="14.00" fill="#000000">4</text>
</g>
<!-- 2&#45;&gt;4 -->
<g id="edge4" class="edge">
<title>2&#45;&gt;4</title>
<path fill="none" stroke="#000000" d="M124.2337,-76.748C136.1508,-76.748 151.9616,-76.748 165.5183,-76.748"/>
<polygon fill="#000000" stroke="#000000" points="165.7897,-80.2481 175.7897,-76.748 165.7897,-73.2481 165.7897,-80.2481"/>
<text text-anchor="middle" x="150" y="-80.548" font-family="Times,serif" font-size="14.00" fill="#000000">a/0</text>
</g>
<!-- 5 -->
<g id="node6" class="node">
<title>5</title>
<ellipse fill="none" stroke="#000000" cx="194" cy="-22.748" rx="18" ry="18"/>
<text text-anchor="middle" x="194" y="-19.048" font-family="Times,serif" font-size="14.00" fill="#000000">5</text>
</g>
<!-- 2&#45;&gt;5 -->
<g id="edge5" class="edge">
<title>2&#45;&gt;5</title>
<path fill="none" stroke="#000000" d="M121.7326,-67.0939C134.9973,-58.9542 154.2058,-47.1671 169.4857,-37.7909"/>
<polygon fill="#000000" stroke="#000000" points="171.7109,-40.5319 178.4036,-32.3185 168.0498,-34.5656 171.7109,-40.5319"/>
<text text-anchor="middle" x="150" y="-60.548" font-family="Times,serif" font-size="14.00" fill="#000000">a/0</text>
</g>
<!-- 6 -->
<g id="node7" class="node">
<title>6</title>
<ellipse fill="none" stroke="#000000" cx="282" cy="-85.748" rx="18" ry="18"/>
<text text-anchor="middle" x="282" y="-82.048" font-family="Times,serif" font-size="14.00" fill="#000000">6</text>
</g>
<!-- 3&#45;&gt;6 -->
<g id="edge6" class="edge">
<title>3&#45;&gt;6</title>
<path fill="none" stroke="#000000" d="M210.1406,-122.4943C223.1655,-115.8338 241.7235,-106.3439 256.7173,-98.6766"/>
<polygon fill="#000000" stroke="#000000" points="258.6519,-101.6185 265.9618,-93.9494 255.4648,-95.3861 258.6519,-101.6185"/>
<text text-anchor="middle" x="238" y="-116.548" font-family="Times,serif" font-size="14.00" fill="#000000">a/0</text>
</g>
<!-- 4&#45;&gt;6 -->
<g id="edge7" class="edge">
<title>4&#45;&gt;6</title>
<path fill="none" stroke="#000000" d="M212.2337,-78.6128C224.2303,-79.8397 240.1726,-81.4702 253.7891,-82.8628"/>
<polygon fill="#000000" stroke="#000000" points="253.7866,-86.3807 264.0908,-83.9164 254.4988,-79.417 253.7866,-86.3807"/>
<text text-anchor="middle" x="238" y="-85.548" font-family="Times,serif" font-size="14.00" fill="#000000">a/0</text>
</g>
<!-- 7 -->
<g id="node8" class="node">
<title>7</title>
<ellipse fill="none" stroke="#000000" cx="282" cy="-22.748" rx="18" ry="18"/>
<text text-anchor="middle" x="282" y="-19.048" font-family="Times,serif" font-size="14.00" fill="#000000">7</text>
</g>
<!-- 5&#45;&gt;7 -->
<g id="edge8" class="edge">
<title>5&#45;&gt;7</title>
<path fill="none" stroke="#000000" d="M212.2337,-22.748C224.1508,-22.748 239.9616,-22.748 253.5183,-22.748"/>
<polygon fill="#000000" stroke="#000000" points="253.7897,-26.2481 263.7897,-22.748 253.7897,-19.2481 253.7897,-26.2481"/>
<text text-anchor="middle" x="238" y="-26.548" font-family="Times,serif" font-size="14.00" fill="#000000">a/0</text>
</g>
<!-- 8 -->
<g id="node9" class="node">
<title>8</title>
<ellipse fill="none" stroke="#000000" cx="371" cy="-85.748" rx="18" ry="18"/>
<text text-anchor="middle" x="371" y="-82.048" font-family="Times,serif" font-size="14.00" fill="#000000">8</text>
</g>
<!-- 6&#45;&gt;8 -->
<g id="edge9" class="edge">
<title>6&#45;&gt;8</title>
<path fill="none" stroke="#000000" d="M300.0105,-85.748C312.2342,-85.748 328.6505,-85.748 342.6176,-85.748"/>
<polygon fill="#000000" stroke="#000000" points="342.7109,-89.2481 352.7108,-85.748 342.7108,-82.2481 342.7109,-89.2481"/>
<text text-anchor="middle" x="326.5" y="-89.548" font-family="Times,serif" font-size="14.00" fill="#000000">b/0</text>
</g>
<!-- 9 -->
<g id="node10" class="node">
<title>9</title>
<ellipse fill="none" stroke="#000000" cx="371" cy="-22.748" rx="18" ry="18"/>
<text text-anchor="middle" x="371" y="-19.048" font-family="Times,serif" font-size="14.00" fill="#000000">9</text>
</g>
<!-- 7&#45;&gt;9 -->
<g id="edge10" class="edge">
<title>7&#45;&gt;9</title>
<path fill="none" stroke="#000000" d="M300.0105,-22.748C312.2342,-22.748 328.6505,-22.748 342.6176,-22.748"/>
<polygon fill="#000000" stroke="#000000" points="342.7109,-26.2481 352.7108,-22.748 342.7108,-19.2481 342.7109,-26.2481"/>
<text text-anchor="middle" x="326.5" y="-26.548" font-family="Times,serif" font-size="14.00" fill="#000000">b/0</text>
</g>
<!-- 10 -->
<g id="node11" class="node">
<title>10</title>
<ellipse fill="none" stroke="#000000" cx="463.748" cy="-85.748" rx="22.9987" ry="22.9987"/>
<text text-anchor="middle" x="463.748" y="-82.048" font-family="Times,serif" font-size="14.00" fill="#000000">10</text>
</g>
<!-- 8&#45;&gt;10 -->
<g id="edge11" class="edge">
<title>8&#45;&gt;10</title>
<path fill="none" stroke="#000000" d="M389.324,-85.748C401.1033,-85.748 416.7501,-85.748 430.6565,-85.748"/>
<polygon fill="#000000" stroke="#000000" points="430.8587,-89.2481 440.8587,-85.748 430.8587,-82.2481 430.8587,-89.2481"/>
<text text-anchor="middle" x="415" y="-89.548" font-family="Times,serif" font-size="14.00" fill="#000000">a/0</text>
</g>
<!-- 11 -->
<g id="node12" class="node">
<title>11</title>
<ellipse fill="none" stroke="#000000" cx="463.748" cy="-22.748" rx="22.9987" ry="22.9987"/>
<text text-anchor="middle" x="463.748" y="-19.048" font-family="Times,serif" font-size="14.00" fill="#000000">11</text>
</g>
<!-- 9&#45;&gt;11 -->
<g id="edge12" class="edge">
<title>9&#45;&gt;11</title>
<path fill="none" stroke="#000000" d="M389.324,-22.748C401.1033,-22.748 416.7501,-22.748 430.6565,-22.748"/>
<polygon fill="#000000" stroke="#000000" points="430.8587,-26.2481 440.8587,-22.748 430.8587,-19.2481 430.8587,-26.2481"/>
<text text-anchor="middle" x="415" y="-26.548" font-family="Times,serif" font-size="14.00" fill="#000000">a/0</text>
</g>
<!-- 12 -->
<g id="node13" class="node">
<title>12</title>
<ellipse fill="none" stroke="#000000" cx="565.2439" cy="-53.748" rx="22.9609" ry="22.9609"/>
<ellipse fill="none" stroke="#000000" cx="565.2439" cy="-53.748" rx="26.9983" ry="26.9983"/>
<text text-anchor="middle" x="565.2439" y="-50.048" font-family="Times,serif" font-size="14.00" fill="#000000">12</text>
</g>
<!-- 10&#45;&gt;12 -->
<g id="edge13" class="edge">
<title>10&#45;&gt;12</title>
<path fill="none" stroke="#000000" d="M485.5214,-78.8832C498.3942,-74.8246 515.0075,-69.5867 529.7339,-64.9437"/>
<polygon fill="#000000" stroke="#000000" points="531.0737,-68.1912 539.5584,-61.8462 528.9688,-61.5152 531.0737,-68.1912"/>
<text text-anchor="middle" x="512.496" y="-77.548" font-family="Times,serif" font-size="14.00" fill="#000000">a/0</text>
</g>
<!-- 11&#45;&gt;12 -->
<g id="edge14" class="edge">
<title>11&#45;&gt;12</title>
<path fill="none" stroke="#000000" d="M485.5214,-29.3983C498.3942,-33.33 515.0075,-38.4042 529.7339,-42.9021"/>
<polygon fill="#000000" stroke="#000000" points="528.9722,-46.329 539.5584,-45.9028 531.017,-39.6343 528.9722,-46.329"/>
<text text-anchor="middle" x="512.496" y="-44.548" font-family="Times,serif" font-size="14.00" fill="#000000">a/0</text>
</g>
</g>
</svg>
