<?xml version="1.0" encoding="UTF-8" standalone="no"?>
<!DOCTYPE svg PUBLIC "-//W3C//DTD SVG 1.1//EN"
 "http://www.w3.org/Graphics/SVG/1.1/DTD/svg11.dtd">
<!-- Generated by graphviz version 2.40.1 (20161225.0304)
 -->
<!-- Title: FST Pages: 1 -->
<svg width="229pt" height="114pt"
 viewBox="0.00 0.00 229.00 114.00" xmlns="http://www.w3.org/2000/svg" xmlns:xlink="http://www.w3.org/1999/xlink">
<g id="graph0" class="graph" transform="scale(1 1) rotate(0) translate(4 110)">
<title>FST</title>
<polygon fill="#ffffff" stroke="transparent" points="-4,4 -4,-110 225,-110 225,4 -4,4"/>
<!-- 0 -->
<g id="node1" class="node">
<title>0</title>
<ellipse fill="none" stroke="#000000" stroke-width="2" cx="18" cy="-53" rx="18" ry="18"/>
<text text-anchor="middle" x="18" y="-49.3" font-family="Times,serif" font-size="14.00" fill="#000000">0</text>
</g>
<!-- 1 -->
<g id="node2" class="node">
<title>1</title>
<ellipse fill="none" stroke="#000000" cx="107" cy="-53" rx="18" ry="18"/>
<text text-anchor="middle" x="107" y="-49.3" font-family="Times,serif" font-size="14.00" fill="#000000">1</text>
</g>
<!-- 0&#45;&gt;1 -->
<g id="edge1" class="edge">
<title>0&#45;&gt;1</title>
<path fill="none" stroke="#000000" d="M36.0105,-53C48.2342,-53 64.6505,-53 78.6176,-53"/>
<polygon fill="#000000" stroke="#000000" points="78.7109,-56.5001 88.7108,-53 78.7108,-49.5001 78.7109,-56.5001"/>
<text text-anchor="middle" x="62.5" y="-56.8" font-family="Times,serif" font-size="14.00" fill="#000000">b/0</text>
</g>
<!-- 2 -->
<g id="node3" class="node">
<title>2</title>
<ellipse fill="none" stroke="#000000" cx="199" cy="-84" rx="18" ry="18"/>
<ellipse fill="none" stroke="#000000" cx="199" cy="-84" rx="22" ry="22"/>
<text text-anchor="middle" x="199" y="-80.3" font-family="Times,serif" font-size="14.00" fill="#000000">2</text>
</g>
<!-- 1&#45;&gt;2 -->
<g id="edge2" class="edge">
<title>1&#45;&gt;2</title>
<path fill="none" stroke="#000000" d="M124.3045,-58.8309C136.6536,-62.992 153.5967,-68.7011 168.2247,-73.6301"/>
<polygon fill="#000000" stroke="#000000" points="167.3028,-77.0127 177.8969,-76.8892 169.5381,-70.3792 167.3028,-77.0127"/>
<text text-anchor="middle" x="151" y="-74.8" font-family="Times,serif" font-size="14.00" fill="#000000">a/0</text>
</g>
<!-- 3 -->
<g id="node4" class="node">
<title>3</title>
<ellipse fill="none" stroke="#000000" cx="199" cy="-22" rx="18" ry="18"/>
<ellipse fill="none" stroke="#000000" cx="199" cy="-22" rx="22" ry="22"/>
<text text-anchor="middle" x="199" y="-18.3" font-family="Times,serif" font-size="14.00" fill="#000000">3</text>
</g>
<!-- 1&#45;&gt;3 -->
<g id="edge3" class="edge">
<title>1&#45;&gt;3</title>
<path fill="none" stroke="#000000" d="M124.3045,-47.1691C136.6536,-43.008 153.5967,-37.2989 168.2247,-32.3699"/>
<polygon fill="#000000" stroke="#000000" points="169.5381,-35.6208 177.8969,-29.1108 167.3028,-28.9873 169.5381,-35.6208"/>
<text text-anchor="middle" x="151" y="-44.8" font-family="Times,serif" font-size="14.00" fill="#000000">c/0</text>
</g>
</g>
</svg>
