<?xml version="1.0" encoding="UTF-8" standalone="no"?>
<!DOCTYPE svg PUBLIC "-//W3C//DTD SVG 1.1//EN"
 "http://www.w3.org/Graphics/SVG/1.1/DTD/svg11.dtd">
<!-- Generated by graphviz version 2.40.1 (20161225.0304)
 -->
<!-- Title: FST Pages: 1 -->
<svg width="494pt" height="98pt"
 viewBox="0.00 0.00 494.00 98.00" xmlns="http://www.w3.org/2000/svg" xmlns:xlink="http://www.w3.org/1999/xlink">
<g id="graph0" class="graph" transform="scale(1 1) rotate(0) translate(4 94)">
<title>FST</title>
<polygon fill="#ffffff" stroke="transparent" points="-4,4 -4,-94 490,-94 490,4 -4,4"/>
<!-- 0 -->
<g id="node1" class="node">
<title>0</title>
<ellipse fill="none" stroke="#000000" stroke-width="2" cx="18" cy="-45" rx="18" ry="18"/>
<text text-anchor="middle" x="18" y="-41.3" font-family="Times,serif" font-size="14.00" fill="#000000">0</text>
</g>
<!-- 1 -->
<g id="node2" class="node">
<title>1</title>
<ellipse fill="none" stroke="#000000" cx="107" cy="-45" rx="18" ry="18"/>
<text text-anchor="middle" x="107" y="-41.3" font-family="Times,serif" font-size="14.00" fill="#000000">1</text>
</g>
<!-- 0&#45;&gt;1 -->
<g id="edge1" class="edge">
<title>0&#45;&gt;1</title>
<path fill="none" stroke="#000000" d="M36.0105,-45C48.2342,-45 64.6505,-45 78.6176,-45"/>
<polygon fill="#000000" stroke="#000000" points="78.7109,-48.5001 88.7108,-45 78.7108,-41.5001 78.7109,-48.5001"/>
<text text-anchor="middle" x="62.5" y="-48.8" font-family="Times,serif" font-size="14.00" fill="#000000">b/0</text>
</g>
<!-- 2 -->
<g id="node3" class="node">
<title>2</title>
<ellipse fill="none" stroke="#000000" cx="195" cy="-45" rx="18" ry="18"/>
<text text-anchor="middle" x="195" y="-41.3" font-family="Times,serif" font-size="14.00" fill="#000000">2</text>
</g>
<!-- 1&#45;&gt;2 -->
<g id="edge2" class="edge">
<title>1&#45;&gt;2</title>
<path fill="none" stroke="#000000" d="M125.2337,-45C137.1508,-45 152.9616,-45 166.5183,-45"/>
<polygon fill="#000000" stroke="#000000" points="166.7897,-48.5001 176.7897,-45 166.7897,-41.5001 166.7897,-48.5001"/>
<text text-anchor="middle" x="151" y="-48.8" font-family="Times,serif" font-size="14.00" fill="#000000">a/0</text>
</g>
<!-- 3 -->
<g id="node4" class="node">
<title>3</title>
<ellipse fill="none" stroke="#000000" cx="283" cy="-45" rx="18" ry="18"/>
<text text-anchor="middle" x="283" y="-41.3" font-family="Times,serif" font-size="14.00" fill="#000000">3</text>
</g>
<!-- 2&#45;&gt;3 -->
<g id="edge3" class="edge">
<title>2&#45;&gt;3</title>
<path fill="none" stroke="#000000" d="M213.2337,-45C225.1508,-45 240.9616,-45 254.5183,-45"/>
<polygon fill="#000000" stroke="#000000" points="254.7897,-48.5001 264.7897,-45 254.7897,-41.5001 254.7897,-48.5001"/>
<text text-anchor="middle" x="239" y="-48.8" font-family="Times,serif" font-size="14.00" fill="#000000">ε/0</text>
</g>
<!-- 4 -->
<g id="node5" class="node">
<title>4</title>
<ellipse fill="none" stroke="#000000" cx="372" cy="-72" rx="18" ry="18"/>
<text text-anchor="middle" x="372" y="-68.3" font-family="Times,serif" font-size="14.00" fill="#000000">4</text>
</g>
<!-- 3&#45;&gt;4 -->
<g id="edge4" class="edge">
<title>3&#45;&gt;4</title>
<path fill="none" stroke="#000000" d="M300.5835,-50.3343C313.2205,-54.168 330.4963,-59.409 344.891,-63.7759"/>
<polygon fill="#000000" stroke="#000000" points="344.1704,-67.2148 354.7558,-66.7686 346.2026,-60.5162 344.1704,-67.2148"/>
<text text-anchor="middle" x="327.5" y="-64.8" font-family="Times,serif" font-size="14.00" fill="#000000">a/0</text>
</g>
<!-- 5 -->
<g id="node6" class="node">
<title>5</title>
<ellipse fill="none" stroke="#000000" cx="372" cy="-18" rx="18" ry="18"/>
<text text-anchor="middle" x="372" y="-14.3" font-family="Times,serif" font-size="14.00" fill="#000000">5</text>
</g>
<!-- 3&#45;&gt;5 -->
<g id="edge5" class="edge">
<title>3&#45;&gt;5</title>
<path fill="none" stroke="#000000" d="M300.5835,-39.6657C313.2205,-35.832 330.4963,-30.591 344.891,-26.2241"/>
<polygon fill="#000000" stroke="#000000" points="346.2026,-29.4838 354.7558,-23.2314 344.1704,-22.7852 346.2026,-29.4838"/>
<text text-anchor="middle" x="327.5" y="-37.8" font-family="Times,serif" font-size="14.00" fill="#000000">b/0</text>
</g>
<!-- 6 -->
<g id="node7" class="node">
<title>6</title>
<ellipse fill="none" stroke="#000000" cx="464" cy="-45" rx="18" ry="18"/>
<ellipse fill="none" stroke="#000000" cx="464" cy="-45" rx="22" ry="22"/>
<text text-anchor="middle" x="464" y="-41.3" font-family="Times,serif" font-size="14.00" fill="#000000">6</text>
</g>
<!-- 4&#45;&gt;6 -->
<g id="edge6" class="edge">
<title>4&#45;&gt;6</title>
<path fill="none" stroke="#000000" d="M389.3045,-66.9215C401.569,-63.3221 418.3648,-58.3929 432.9238,-54.1202"/>
<polygon fill="#000000" stroke="#000000" points="433.9528,-57.4659 442.5625,-51.2914 431.9816,-50.7492 433.9528,-57.4659"/>
<text text-anchor="middle" x="416" y="-64.8" font-family="Times,serif" font-size="14.00" fill="#000000">c/0</text>
</g>
<!-- 5&#45;&gt;6 -->
<g id="edge7" class="edge">
<title>5&#45;&gt;6</title>
<path fill="none" stroke="#000000" d="M389.3045,-23.0785C401.569,-26.6779 418.3648,-31.6071 432.9238,-35.8798"/>
<polygon fill="#000000" stroke="#000000" points="431.9816,-39.2508 442.5625,-38.7086 433.9528,-32.5341 431.9816,-39.2508"/>
<text text-anchor="middle" x="416" y="-36.8" font-family="Times,serif" font-size="14.00" fill="#000000">c/0</text>
</g>
</g>
</svg>
