<?xml version="1.0" encoding="UTF-8" standalone="no"?>
<!DOCTYPE svg PUBLIC "-//W3C//DTD SVG 1.1//EN"
 "http://www.w3.org/Graphics/SVG/1.1/DTD/svg11.dtd">
<!-- Generated by graphviz version 2.40.1 (20161225.0304)
 -->
<!-- Title: FST Pages: 1 -->
<svg width="229pt" height="98pt"
 viewBox="0.00 0.00 229.00 98.00" xmlns="http://www.w3.org/2000/svg" xmlns:xlink="http://www.w3.org/1999/xlink">
<g id="graph0" class="graph" transform="scale(1 1) rotate(0) translate(4 94)">
<title>FST</title>
<polygon fill="#ffffff" stroke="transparent" points="-4,4 -4,-94 225,-94 225,4 -4,4"/>
<!-- 0 -->
<g id="node1" class="node">
<title>0</title>
<ellipse fill="none" stroke="#000000" stroke-width="2" cx="18" cy="-45" rx="18" ry="18"/>
<text text-anchor="middle" x="18" y="-41.3" font-family="Times,serif" font-size="14.00" fill="#000000">0</text>
</g>
<!-- 1 -->
<g id="node2" class="node">
<title>1</title>
<ellipse fill="none" stroke="#000000" cx="107" cy="-72" rx="18" ry="18"/>
<text text-anchor="middle" x="107" y="-68.3" font-family="Times,serif" font-size="14.00" fill="#000000">1</text>
</g>
<!-- 0&#45;&gt;1 -->
<g id="edge1" class="edge">
<title>0&#45;&gt;1</title>
<path fill="none" stroke="#000000" d="M35.5835,-50.3343C48.2205,-54.168 65.4963,-59.409 79.891,-63.7759"/>
<polygon fill="#000000" stroke="#000000" points="79.1704,-67.2148 89.7558,-66.7686 81.2026,-60.5162 79.1704,-67.2148"/>
<text text-anchor="middle" x="62.5" y="-64.8" font-family="Times,serif" font-size="14.00" fill="#000000">a/0</text>
</g>
<!-- 2 -->
<g id="node3" class="node">
<title>2</title>
<ellipse fill="none" stroke="#000000" cx="107" cy="-18" rx="18" ry="18"/>
<text text-anchor="middle" x="107" y="-14.3" font-family="Times,serif" font-size="14.00" fill="#000000">2</text>
</g>
<!-- 0&#45;&gt;2 -->
<g id="edge2" class="edge">
<title>0&#45;&gt;2</title>
<path fill="none" stroke="#000000" d="M35.5835,-39.6657C48.2205,-35.832 65.4963,-30.591 79.891,-26.2241"/>
<polygon fill="#000000" stroke="#000000" points="81.2026,-29.4838 89.7558,-23.2314 79.1704,-22.7852 81.2026,-29.4838"/>
<text text-anchor="middle" x="62.5" y="-37.8" font-family="Times,serif" font-size="14.00" fill="#000000">b/0</text>
</g>
<!-- 3 -->
<g id="node4" class="node">
<title>3</title>
<ellipse fill="none" stroke="#000000" cx="199" cy="-45" rx="18" ry="18"/>
<ellipse fill="none" stroke="#000000" cx="199" cy="-45" rx="22" ry="22"/>
<text text-anchor="middle" x="199" y="-41.3" font-family="Times,serif" font-size="14.00" fill="#000000">3</text>
</g>
<!-- 1&#45;&gt;3 -->
<g id="edge3" class="edge">
<title>1&#45;&gt;3</title>
<path fill="none" stroke="#000000" d="M124.3045,-66.9215C136.569,-63.3221 153.3648,-58.3929 167.9238,-54.1202"/>
<polygon fill="#000000" stroke="#000000" points="168.9528,-57.4659 177.5625,-51.2914 166.9816,-50.7492 168.9528,-57.4659"/>
<text text-anchor="middle" x="151" y="-64.8" font-family="Times,serif" font-size="14.00" fill="#000000">c/0</text>
</g>
<!-- 2&#45;&gt;3 -->
<g id="edge4" class="edge">
<title>2&#45;&gt;3</title>
<path fill="none" stroke="#000000" d="M124.3045,-23.0785C136.569,-26.6779 153.3648,-31.6071 167.9238,-35.8798"/>
<polygon fill="#000000" stroke="#000000" points="166.9816,-39.2508 177.5625,-38.7086 168.9528,-32.5341 166.9816,-39.2508"/>
<text text-anchor="middle" x="151" y="-36.8" font-family="Times,serif" font-size="14.00" fill="#000000">c/0</text>
</g>
</g>
</svg>
