<?xml version="1.0" encoding="UTF-8" standalone="no"?>
<!DOCTYPE svg PUBLIC "-//W3C//DTD SVG 1.1//EN"
 "http://www.w3.org/Graphics/SVG/1.1/DTD/svg11.dtd">
<!-- Generated by graphviz version 2.40.1 (20161225.0304)
 -->
<!-- Title: FST Pages: 1 -->
<svg width="405pt" height="117pt"
 viewBox="0.00 0.00 405.00 116.59" xmlns="http://www.w3.org/2000/svg" xmlns:xlink="http://www.w3.org/1999/xlink">
<g id="graph0" class="graph" transform="scale(1 1) rotate(0) translate(4 112.5867)">
<title>FST</title>
<polygon fill="#ffffff" stroke="transparent" points="-4,4 -4,-112.5867 401,-112.5867 401,4 -4,4"/>
<!-- 0 -->
<g id="node1" class="node">
<title>0</title>
<ellipse fill="none" stroke="#000000" stroke-width="2" cx="18" cy="-58.5867" rx="18" ry="18"/>
<text text-anchor="middle" x="18" y="-54.8867" font-family="Times,serif" font-size="14.00" fill="#000000">0</text>
</g>
<!-- 1 -->
<g id="node2" class="node">
<title>1</title>
<ellipse fill="none" stroke="#000000" cx="107" cy="-58.5867" rx="18" ry="18"/>
<text text-anchor="middle" x="107" y="-54.8867" font-family="Times,serif" font-size="14.00" fill="#000000">1</text>
</g>
<!-- 0&#45;&gt;1 -->
<g id="edge1" class="edge">
<title>0&#45;&gt;1</title>
<path fill="none" stroke="#000000" d="M36.0105,-58.5867C48.2342,-58.5867 64.6505,-58.5867 78.6176,-58.5867"/>
<polygon fill="#000000" stroke="#000000" points="78.7109,-62.0868 88.7108,-58.5867 78.7108,-55.0868 78.7109,-62.0868"/>
<text text-anchor="middle" x="62.5" y="-62.3867" font-family="Times,serif" font-size="14.00" fill="#000000">b/0</text>
</g>
<!-- 2 -->
<g id="node3" class="node">
<title>2</title>
<ellipse fill="none" stroke="#000000" cx="195" cy="-85.5867" rx="18" ry="18"/>
<text text-anchor="middle" x="195" y="-81.8867" font-family="Times,serif" font-size="14.00" fill="#000000">2</text>
</g>
<!-- 1&#45;&gt;2 -->
<g id="edge2" class="edge">
<title>1&#45;&gt;2</title>
<path fill="none" stroke="#000000" d="M124.386,-63.921C136.8004,-67.73 153.7424,-72.9281 167.9198,-77.278"/>
<polygon fill="#000000" stroke="#000000" points="167.0634,-80.6762 177.6501,-80.2634 169.1167,-73.9841 167.0634,-80.6762"/>
<text text-anchor="middle" x="151" y="-78.3867" font-family="Times,serif" font-size="14.00" fill="#000000">a/0</text>
</g>
<!-- 3 -->
<g id="node4" class="node">
<title>3</title>
<ellipse fill="none" stroke="#000000" cx="195" cy="-31.5867" rx="18" ry="18"/>
<text text-anchor="middle" x="195" y="-27.8867" font-family="Times,serif" font-size="14.00" fill="#000000">3</text>
</g>
<!-- 1&#45;&gt;3 -->
<g id="edge3" class="edge">
<title>1&#45;&gt;3</title>
<path fill="none" stroke="#000000" d="M124.386,-53.2523C136.8004,-49.4434 153.7424,-44.2452 167.9198,-39.8954"/>
<polygon fill="#000000" stroke="#000000" points="169.1167,-43.1893 177.6501,-36.9099 167.0634,-36.4972 169.1167,-43.1893"/>
<text text-anchor="middle" x="151" y="-51.3867" font-family="Times,serif" font-size="14.00" fill="#000000">c/0</text>
</g>
<!-- 4 -->
<g id="node5" class="node">
<title>4</title>
<ellipse fill="none" stroke="#000000" cx="283" cy="-85.5867" rx="18" ry="18"/>
<text text-anchor="middle" x="283" y="-81.8867" font-family="Times,serif" font-size="14.00" fill="#000000">4</text>
</g>
<!-- 2&#45;&gt;4 -->
<g id="edge4" class="edge">
<title>2&#45;&gt;4</title>
<path fill="none" stroke="#000000" d="M212.3275,-90.6055C217.3398,-91.8336 222.8489,-92.9712 228,-93.5867 237.7087,-94.7467 240.2913,-94.7467 250,-93.5867 251.7707,-93.3751 253.5837,-93.1018 255.4042,-92.7844"/>
<polygon fill="#000000" stroke="#000000" points="256.6169,-96.1051 265.6725,-90.6055 255.1638,-89.2576 256.6169,-96.1051"/>
<text text-anchor="middle" x="239" y="-97.3867" font-family="Times,serif" font-size="14.00" fill="#000000">ε/0</text>
</g>
<!-- 5 -->
<g id="node6" class="node">
<title>5</title>
<ellipse fill="none" stroke="#000000" cx="283" cy="-31.5867" rx="18" ry="18"/>
<text text-anchor="middle" x="283" y="-27.8867" font-family="Times,serif" font-size="14.00" fill="#000000">5</text>
</g>
<!-- 2&#45;&gt;5 -->
<g id="edge5" class="edge">
<title>2&#45;&gt;5</title>
<path fill="none" stroke="#000000" d="M211.1989,-77.4558C222.324,-71.7021 237.3154,-63.6114 250,-55.5867 253.4049,-53.4326 256.9257,-51.0511 260.3429,-48.6494"/>
<polygon fill="#000000" stroke="#000000" points="262.4431,-51.45 268.4986,-42.7563 258.3433,-45.7762 262.4431,-51.45"/>
<text text-anchor="middle" x="239" y="-71.3867" font-family="Times,serif" font-size="14.00" fill="#000000">ε/0</text>
</g>
<!-- 3&#45;&gt;4 -->
<g id="edge6" class="edge">
<title>3&#45;&gt;4</title>
<path fill="none" stroke="#000000" d="M213.0345,-29.4527C224.3923,-28.9799 238.9433,-30.0431 250,-36.5867 250.3608,-36.8002 258.9694,-49.5898 267.3026,-62.0472"/>
<polygon fill="#000000" stroke="#000000" points="264.4575,-64.0892 272.9229,-70.4599 270.2781,-60.2005 264.4575,-64.0892"/>
<text text-anchor="middle" x="239" y="-40.3867" font-family="Times,serif" font-size="14.00" fill="#000000">ε/0</text>
</g>
<!-- 3&#45;&gt;5 -->
<g id="edge7" class="edge">
<title>3&#45;&gt;5</title>
<path fill="none" stroke="#000000" d="M206.6865,-17.5481C212.4301,-11.7398 219.864,-5.6536 228,-2.5867 237.1493,.8622 240.8507,.8622 250,-2.5867 254.9579,-4.4556 259.655,-7.4457 263.8678,-10.8108"/>
<polygon fill="#000000" stroke="#000000" points="261.5502,-13.4338 271.3135,-17.5481 266.2469,-8.2433 261.5502,-13.4338"/>
<text text-anchor="middle" x="239" y="-6.3867" font-family="Times,serif" font-size="14.00" fill="#000000">ε/0</text>
</g>
<!-- 6 -->
<g id="node7" class="node">
<title>6</title>
<ellipse fill="none" stroke="#000000" cx="375" cy="-58.5867" rx="18" ry="18"/>
<ellipse fill="none" stroke="#000000" cx="375" cy="-58.5867" rx="22" ry="22"/>
<text text-anchor="middle" x="375" y="-54.8867" font-family="Times,serif" font-size="14.00" fill="#000000">6</text>
</g>
<!-- 4&#45;&gt;6 -->
<g id="edge8" class="edge">
<title>4&#45;&gt;6</title>
<path fill="none" stroke="#000000" d="M300.3045,-80.5082C312.569,-76.9088 329.3648,-71.9796 343.9238,-67.7069"/>
<polygon fill="#000000" stroke="#000000" points="344.9528,-71.0526 353.5625,-64.8781 342.9816,-64.3358 344.9528,-71.0526"/>
<text text-anchor="middle" x="327" y="-78.3867" font-family="Times,serif" font-size="14.00" fill="#000000">a/0</text>
</g>
<!-- 5&#45;&gt;6 -->
<g id="edge9" class="edge">
<title>5&#45;&gt;6</title>
<path fill="none" stroke="#000000" d="M300.3045,-36.6652C312.569,-40.2645 329.3648,-45.1937 343.9238,-49.4665"/>
<polygon fill="#000000" stroke="#000000" points="342.9816,-52.8375 353.5625,-52.2952 344.9528,-46.1208 342.9816,-52.8375"/>
<text text-anchor="middle" x="327" y="-50.3867" font-family="Times,serif" font-size="14.00" fill="#000000">c/0</text>
</g>
</g>
</svg>
