<?xml version="1.0" encoding="UTF-8" standalone="no"?>
<!DOCTYPE svg PUBLIC "-//W3C//DTD SVG 1.1//EN"
 "http://www.w3.org/Graphics/SVG/1.1/DTD/svg11.dtd">
<!-- Generated by graphviz version 2.40.1 (20161225.0304)
 -->
<!-- Title: FST Pages: 1 -->
<svg width="470pt" height="116pt"
 viewBox="0.00 0.00 470.00 116.00" xmlns="http://www.w3.org/2000/svg" xmlns:xlink="http://www.w3.org/1999/xlink">
<g id="graph0" class="graph" transform="scale(1 1) rotate(0) translate(4 112)">
<title>FST</title>
<polygon fill="#ffffff" stroke="transparent" points="-4,4 -4,-112 466,-112 466,4 -4,4"/>
<!-- 0 -->
<g id="node1" class="node">
<title>0</title>
<ellipse fill="none" stroke="#000000" stroke-width="2" cx="23.5" cy="-22" rx="18" ry="18"/>
<text text-anchor="middle" x="23.5" y="-18.3" font-family="Times,serif" font-size="14.00" fill="#000000">0</text>
</g>
<!-- 0&#45;&gt;0 -->
<g id="edge1" class="edge">
<title>0&#45;&gt;0</title>
<path fill="none" stroke="#000000" d="M15.8321,-38.2903C13.9831,-48.3892 16.5391,-58 23.5,-58 27.9594,-58 30.6109,-54.0557 31.4546,-48.5656"/>
<polygon fill="#000000" stroke="#000000" points="34.9456,-48.1887 31.1679,-38.2903 27.9483,-48.384 34.9456,-48.1887"/>
<text text-anchor="middle" x="23.5" y="-61.8" font-family="Times,serif" font-size="14.00" fill="#000000">&lt;b&gt;/0</text>
</g>
<!-- 1 -->
<g id="node2" class="node">
<title>1</title>
<ellipse fill="none" stroke="#000000" cx="111.5" cy="-22" rx="18" ry="18"/>
<text text-anchor="middle" x="111.5" y="-18.3" font-family="Times,serif" font-size="14.00" fill="#000000">1</text>
</g>
<!-- 0&#45;&gt;1 -->
<g id="edge2" class="edge">
<title>0&#45;&gt;1</title>
<path fill="none" stroke="#000000" d="M41.7337,-22C53.6508,-22 69.4616,-22 83.0183,-22"/>
<polygon fill="#000000" stroke="#000000" points="83.2897,-25.5001 93.2897,-22 83.2897,-18.5001 83.2897,-25.5001"/>
<text text-anchor="middle" x="67.5" y="-25.8" font-family="Times,serif" font-size="14.00" fill="#000000">a/0</text>
</g>
<!-- 1&#45;&gt;1 -->
<g id="edge3" class="edge">
<title>1&#45;&gt;1</title>
<path fill="none" stroke="#000000" d="M103.8321,-38.2903C101.9831,-48.3892 104.5391,-58 111.5,-58 115.9594,-58 118.6109,-54.0557 119.4546,-48.5656"/>
<polygon fill="#000000" stroke="#000000" points="122.9456,-48.1887 119.1679,-38.2903 115.9483,-48.384 122.9456,-48.1887"/>
<text text-anchor="middle" x="111.5" y="-61.8" font-family="Times,serif" font-size="14.00" fill="#000000">a/0</text>
</g>
<!-- 2 -->
<g id="node3" class="node">
<title>2</title>
<ellipse fill="none" stroke="#000000" cx="224.5" cy="-57" rx="18" ry="18"/>
<text text-anchor="middle" x="224.5" y="-53.3" font-family="Times,serif" font-size="14.00" fill="#000000">2</text>
</g>
<!-- 1&#45;&gt;2 -->
<g id="edge4" class="edge">
<title>1&#45;&gt;2</title>
<path fill="none" stroke="#000000" d="M129.1563,-27.4687C147.3998,-33.1194 176.1159,-42.0138 197.2696,-48.5658"/>
<polygon fill="#000000" stroke="#000000" points="196.3799,-51.9542 206.9677,-51.5697 198.451,-45.2676 196.3799,-51.9542"/>
<text text-anchor="middle" x="168" y="-49.8" font-family="Times,serif" font-size="14.00" fill="#000000">&lt;b&gt;/0</text>
</g>
<!-- 3 -->
<g id="node4" class="node">
<title>3</title>
<ellipse fill="none" stroke="#000000" cx="317.5" cy="-22" rx="18" ry="18"/>
<ellipse fill="none" stroke="#000000" cx="317.5" cy="-22" rx="22" ry="22"/>
<text text-anchor="middle" x="317.5" y="-18.3" font-family="Times,serif" font-size="14.00" fill="#000000">3</text>
</g>
<!-- 1&#45;&gt;3 -->
<g id="edge5" class="edge">
<title>1&#45;&gt;3</title>
<path fill="none" stroke="#000000" d="M129.7215,-19.8759C155.0229,-17.189 202.231,-13.1249 242.5,-15 256.6216,-15.6576 272.1904,-17.008 285.4661,-18.3489"/>
<polygon fill="#000000" stroke="#000000" points="285.2388,-21.8442 295.5499,-19.4088 285.9706,-14.8825 285.2388,-21.8442"/>
<text text-anchor="middle" x="224.5" y="-18.8" font-family="Times,serif" font-size="14.00" fill="#000000">b/0</text>
</g>
<!-- 2&#45;&gt;2 -->
<g id="edge6" class="edge">
<title>2&#45;&gt;2</title>
<path fill="none" stroke="#000000" d="M216.8321,-73.2903C214.9831,-83.3892 217.5391,-93 224.5,-93 228.9594,-93 231.6109,-89.0557 232.4546,-83.5656"/>
<polygon fill="#000000" stroke="#000000" points="235.9456,-83.1887 232.1679,-73.2903 228.9483,-83.384 235.9456,-83.1887"/>
<text text-anchor="middle" x="224.5" y="-96.8" font-family="Times,serif" font-size="14.00" fill="#000000">&lt;b&gt;/0</text>
</g>
<!-- 2&#45;&gt;3 -->
<g id="edge7" class="edge">
<title>2&#45;&gt;3</title>
<path fill="none" stroke="#000000" d="M241.5576,-50.5805C254.2903,-45.7886 272.0261,-39.1138 287.156,-33.4198"/>
<polygon fill="#000000" stroke="#000000" points="288.5171,-36.6473 296.6435,-29.8492 286.0515,-30.0959 288.5171,-36.6473"/>
<text text-anchor="middle" x="269" y="-46.8" font-family="Times,serif" font-size="14.00" fill="#000000">b/0</text>
</g>
<!-- 3&#45;&gt;3 -->
<g id="edge8" class="edge">
<title>3&#45;&gt;3</title>
<path fill="none" stroke="#000000" d="M308.7659,-42.5808C307.5574,-52.8447 310.4688,-62 317.5,-62 322.0044,-62 324.818,-58.2427 325.9408,-52.8436"/>
<polygon fill="#000000" stroke="#000000" points="329.4469,-52.6768 326.2341,-42.5808 322.4498,-52.4767 329.4469,-52.6768"/>
<text text-anchor="middle" x="317.5" y="-65.8" font-family="Times,serif" font-size="14.00" fill="#000000">b/0</text>
</g>
<!-- 4 -->
<g id="node5" class="node">
<title>4</title>
<ellipse fill="none" stroke="#000000" cx="438.5" cy="-22" rx="18" ry="18"/>
<ellipse fill="none" stroke="#000000" cx="438.5" cy="-22" rx="22" ry="22"/>
<text text-anchor="middle" x="438.5" y="-18.3" font-family="Times,serif" font-size="14.00" fill="#000000">4</text>
</g>
<!-- 3&#45;&gt;4 -->
<g id="edge9" class="edge">
<title>3&#45;&gt;4</title>
<path fill="none" stroke="#000000" d="M339.6933,-22C358.3701,-22 385.321,-22 406.3591,-22"/>
<polygon fill="#000000" stroke="#000000" points="406.4475,-25.5001 416.4474,-22 406.4474,-18.5001 406.4475,-25.5001"/>
<text text-anchor="middle" x="378" y="-25.8" font-family="Times,serif" font-size="14.00" fill="#000000">&lt;b&gt;/0</text>
</g>
<!-- 4&#45;&gt;4 -->
<g id="edge10" class="edge">
<title>4&#45;&gt;4</title>
<path fill="none" stroke="#000000" d="M427.7883,-41.3443C425.7888,-52.0977 429.3594,-62 438.5,-62 444.4985,-62 448.0982,-57.7354 449.2991,-51.7644"/>
<polygon fill="#000000" stroke="#000000" points="452.7956,-51.3146 449.2117,-41.3443 445.7958,-51.3734 452.7956,-51.3146"/>
<text text-anchor="middle" x="438.5" y="-65.8" font-family="Times,serif" font-size="14.00" fill="#000000">&lt;b&gt;/0</text>
</g>
</g>
</svg>
