<?xml version="1.0" encoding="UTF-8" standalone="no"?>
<!DOCTYPE svg PUBLIC "-//W3C//DTD SVG 1.1//EN"
 "http://www.w3.org/Graphics/SVG/1.1/DTD/svg11.dtd">
<!-- Generated by graphviz version 2.40.1 (20161225.0304)
 -->
<!-- Title: FST Pages: 1 -->
<svg width="469pt" height="85pt"
 viewBox="0.00 0.00 469.00 85.00" xmlns="http://www.w3.org/2000/svg" xmlns:xlink="http://www.w3.org/1999/xlink">
<g id="graph0" class="graph" transform="scale(1 1) rotate(0) translate(4 81)">
<title>FST</title>
<polygon fill="#ffffff" stroke="transparent" points="-4,4 -4,-81 465,-81 465,4 -4,4"/>
<!-- 0 -->
<g id="node1" class="node">
<title>0</title>
<ellipse fill="none" stroke="#000000" stroke-width="2" cx="23.5" cy="-22" rx="18" ry="18"/>
<text text-anchor="middle" x="23.5" y="-18.3" font-family="Times,serif" font-size="14.00" fill="#000000">0</text>
</g>
<!-- 0&#45;&gt;0 -->
<g id="edge1" class="edge">
<title>0&#45;&gt;0</title>
<path fill="none" stroke="#000000" d="M15.8321,-38.2903C13.9831,-48.3892 16.5391,-58 23.5,-58 27.9594,-58 30.6109,-54.0557 31.4546,-48.5656"/>
<polygon fill="#000000" stroke="#000000" points="34.9456,-48.1887 31.1679,-38.2903 27.9483,-48.384 34.9456,-48.1887"/>
<text text-anchor="middle" x="23.5" y="-61.8" font-family="Times,serif" font-size="14.00" fill="#000000">&lt;b&gt;/0</text>
</g>
<!-- 1 -->
<g id="node2" class="node">
<title>1</title>
<ellipse fill="none" stroke="#000000" cx="111.5" cy="-22" rx="18" ry="18"/>
<text text-anchor="middle" x="111.5" y="-18.3" font-family="Times,serif" font-size="14.00" fill="#000000">1</text>
</g>
<!-- 0&#45;&gt;1 -->
<g id="edge2" class="edge">
<title>0&#45;&gt;1</title>
<path fill="none" stroke="#000000" d="M41.7337,-22C53.6508,-22 69.4616,-22 83.0183,-22"/>
<polygon fill="#000000" stroke="#000000" points="83.2897,-25.5001 93.2897,-22 83.2897,-18.5001 83.2897,-25.5001"/>
<text text-anchor="middle" x="67.5" y="-25.8" font-family="Times,serif" font-size="14.00" fill="#000000">a/0</text>
</g>
<!-- 1&#45;&gt;1 -->
<g id="edge3" class="edge">
<title>1&#45;&gt;1</title>
<path fill="none" stroke="#000000" d="M103.8321,-38.2903C101.9831,-48.3892 104.5391,-58 111.5,-58 115.9594,-58 118.6109,-54.0557 119.4546,-48.5656"/>
<polygon fill="#000000" stroke="#000000" points="122.9456,-48.1887 119.1679,-38.2903 115.9483,-48.384 122.9456,-48.1887"/>
<text text-anchor="middle" x="111.5" y="-61.8" font-family="Times,serif" font-size="14.00" fill="#000000">a/0</text>
</g>
<!-- 2 -->
<g id="node3" class="node">
<title>2</title>
<ellipse fill="none" stroke="#000000" cx="224.5" cy="-22" rx="18" ry="18"/>
<text text-anchor="middle" x="224.5" y="-18.3" font-family="Times,serif" font-size="14.00" fill="#000000">2</text>
</g>
<!-- 1&#45;&gt;2 -->
<g id="edge4" class="edge">
<title>1&#45;&gt;2</title>
<path fill="none" stroke="#000000" d="M129.6554,-22C147.6123,-22 175.3534,-22 196.2031,-22"/>
<polygon fill="#000000" stroke="#000000" points="196.3897,-25.5001 206.3897,-22 196.3896,-18.5001 196.3897,-25.5001"/>
<text text-anchor="middle" x="168" y="-25.8" font-family="Times,serif" font-size="14.00" fill="#000000">&lt;b&gt;/0</text>
</g>
<!-- 2&#45;&gt;2 -->
<g id="edge5" class="edge">
<title>2&#45;&gt;2</title>
<path fill="none" stroke="#000000" d="M216.8321,-38.2903C214.9831,-48.3892 217.5391,-58 224.5,-58 228.9594,-58 231.6109,-54.0557 232.4546,-48.5656"/>
<polygon fill="#000000" stroke="#000000" points="235.9456,-48.1887 232.1679,-38.2903 228.9483,-48.384 235.9456,-48.1887"/>
<text text-anchor="middle" x="224.5" y="-61.8" font-family="Times,serif" font-size="14.00" fill="#000000">&lt;b&gt;/0</text>
</g>
<!-- 3 -->
<g id="node4" class="node">
<title>3</title>
<ellipse fill="none" stroke="#000000" cx="316.5" cy="-22" rx="18" ry="18"/>
<ellipse fill="none" stroke="#000000" cx="316.5" cy="-22" rx="22" ry="22"/>
<text text-anchor="middle" x="316.5" y="-18.3" font-family="Times,serif" font-size="14.00" fill="#000000">3</text>
</g>
<!-- 2&#45;&gt;3 -->
<g id="edge6" class="edge">
<title>2&#45;&gt;3</title>
<path fill="none" stroke="#000000" d="M242.6762,-22C254.5274,-22 270.3254,-22 284.2655,-22"/>
<polygon fill="#000000" stroke="#000000" points="284.4674,-25.5001 294.4674,-22 284.4673,-18.5001 284.4674,-25.5001"/>
<text text-anchor="middle" x="268.5" y="-25.8" font-family="Times,serif" font-size="14.00" fill="#000000">a/0</text>
</g>
<!-- 3&#45;&gt;3 -->
<g id="edge7" class="edge">
<title>3&#45;&gt;3</title>
<path fill="none" stroke="#000000" d="M307.7659,-42.5808C306.5574,-52.8447 309.4688,-62 316.5,-62 321.0044,-62 323.818,-58.2427 324.9408,-52.8436"/>
<polygon fill="#000000" stroke="#000000" points="328.4469,-52.6768 325.2341,-42.5808 321.4498,-52.4767 328.4469,-52.6768"/>
<text text-anchor="middle" x="316.5" y="-65.8" font-family="Times,serif" font-size="14.00" fill="#000000">a/0</text>
</g>
<!-- 4 -->
<g id="node5" class="node">
<title>4</title>
<ellipse fill="none" stroke="#000000" cx="437.5" cy="-22" rx="18" ry="18"/>
<ellipse fill="none" stroke="#000000" cx="437.5" cy="-22" rx="22" ry="22"/>
<text text-anchor="middle" x="437.5" y="-18.3" font-family="Times,serif" font-size="14.00" fill="#000000">4</text>
</g>
<!-- 3&#45;&gt;4 -->
<g id="edge8" class="edge">
<title>3&#45;&gt;4</title>
<path fill="none" stroke="#000000" d="M338.6933,-22C357.3701,-22 384.321,-22 405.3591,-22"/>
<polygon fill="#000000" stroke="#000000" points="405.4475,-25.5001 415.4474,-22 405.4474,-18.5001 405.4475,-25.5001"/>
<text text-anchor="middle" x="377" y="-25.8" font-family="Times,serif" font-size="14.00" fill="#000000">&lt;b&gt;/0</text>
</g>
<!-- 4&#45;&gt;4 -->
<g id="edge9" class="edge">
<title>4&#45;&gt;4</title>
<path fill="none" stroke="#000000" d="M426.7883,-41.3443C424.7888,-52.0977 428.3594,-62 437.5,-62 443.4985,-62 447.0982,-57.7354 448.2991,-51.7644"/>
<polygon fill="#000000" stroke="#000000" points="451.7956,-51.3146 448.2117,-41.3443 444.7958,-51.3734 451.7956,-51.3146"/>
<text text-anchor="middle" x="437.5" y="-65.8" font-family="Times,serif" font-size="14.00" fill="#000000">&lt;b&gt;/0</text>
</g>
</g>
</svg>
