<?xml version="1.0" encoding="UTF-8" standalone="no"?>
<!DOCTYPE svg PUBLIC "-//W3C//DTD SVG 1.1//EN"
 "http://www.w3.org/Graphics/SVG/1.1/DTD/svg11.dtd">
<!-- Generated by graphviz version 2.40.1 (20161225.0304)
 -->
<!-- Title: FST Pages: 1 -->
<svg width="844pt" height="456pt"
 viewBox="0.00 0.00 844.48 455.75" xmlns="http://www.w3.org/2000/svg" xmlns:xlink="http://www.w3.org/1999/xlink">
<g id="graph0" class="graph" transform="scale(1 1) rotate(0) translate(4 451.748)">
<title>FST</title>
<polygon fill="#ffffff" stroke="transparent" points="-4,4 -4,-451.748 840.4798,-451.748 840.4798,4 -4,4"/>
<!-- 0 -->
<g id="node1" class="node">
<title>0</title>
<ellipse fill="none" stroke="#000000" stroke-width="2" cx="18" cy="-270.748" rx="18" ry="18"/>
<text text-anchor="middle" x="18" y="-267.048" font-family="Times,serif" font-size="14.00" fill="#000000">0</text>
</g>
<!-- 1 -->
<g id="node2" class="node">
<title>1</title>
<ellipse fill="none" stroke="#000000" cx="231" cy="-270.748" rx="18" ry="18"/>
<text text-anchor="middle" x="231" y="-267.048" font-family="Times,serif" font-size="14.00" fill="#000000">1</text>
</g>
<!-- 0&#45;&gt;1 -->
<g id="edge1" class="edge">
<title>0&#45;&gt;1</title>
<path fill="none" stroke="#000000" d="M36.1603,-270.748C73.3367,-270.748 158.3435,-270.748 202.7729,-270.748"/>
<polygon fill="#000000" stroke="#000000" points="202.8857,-274.2481 212.8857,-270.748 202.8857,-267.2481 202.8857,-274.2481"/>
<text text-anchor="middle" x="123" y="-274.548" font-family="Times,serif" font-size="14.00" fill="#000000">a:a/0</text>
</g>
<!-- 2 -->
<g id="node3" class="node">
<title>2</title>
<ellipse fill="none" stroke="#000000" cx="123" cy="-327.748" rx="18" ry="18"/>
<text text-anchor="middle" x="123" y="-324.048" font-family="Times,serif" font-size="14.00" fill="#000000">2</text>
</g>
<!-- 0&#45;&gt;2 -->
<g id="edge2" class="edge">
<title>0&#45;&gt;2</title>
<path fill="none" stroke="#000000" d="M33.9472,-279.4051C50.9843,-288.6538 78.2169,-303.4372 98.0863,-314.2234"/>
<polygon fill="#000000" stroke="#000000" points="96.4443,-317.3145 106.9027,-319.0094 99.784,-311.1625 96.4443,-317.3145"/>
<text text-anchor="middle" x="70.5" y="-312.548" font-family="Times,serif" font-size="14.00" fill="#000000">a:ε/&#45;1</text>
</g>
<!-- 3 -->
<g id="node4" class="node">
<title>3</title>
<ellipse fill="none" stroke="#000000" cx="123" cy="-212.748" rx="18" ry="18"/>
<text text-anchor="middle" x="123" y="-209.048" font-family="Times,serif" font-size="14.00" fill="#000000">3</text>
</g>
<!-- 0&#45;&gt;3 -->
<g id="edge3" class="edge">
<title>0&#45;&gt;3</title>
<path fill="none" stroke="#000000" d="M30.6732,-257.795C36.5005,-252.3377 43.7261,-246.227 51,-241.748 65.0352,-233.1055 82.0947,-226.1015 96.0848,-221.1431"/>
<polygon fill="#000000" stroke="#000000" points="97.2971,-224.4278 105.6421,-217.9 95.0477,-217.7991 97.2971,-224.4278"/>
<text text-anchor="middle" x="70.5" y="-245.548" font-family="Times,serif" font-size="14.00" fill="#000000">ε:a/&#45;1</text>
</g>
<!-- 4 -->
<g id="node5" class="node">
<title>4</title>
<ellipse fill="none" stroke="#000000" cx="459.2439" cy="-270.748" rx="18" ry="18"/>
<text text-anchor="middle" x="459.2439" y="-267.048" font-family="Times,serif" font-size="14.00" fill="#000000">4</text>
</g>
<!-- 1&#45;&gt;4 -->
<g id="edge4" class="edge">
<title>1&#45;&gt;4</title>
<path fill="none" stroke="#000000" d="M249.2923,-270.748C289.0388,-270.748 383.5164,-270.748 430.9909,-270.748"/>
<polygon fill="#000000" stroke="#000000" points="431.1814,-274.2481 441.1813,-270.748 431.1813,-267.2481 431.1814,-274.2481"/>
<text text-anchor="middle" x="343.748" y="-274.548" font-family="Times,serif" font-size="14.00" fill="#000000">b:a/&#45;1</text>
</g>
<!-- 5 -->
<g id="node6" class="node">
<title>5</title>
<ellipse fill="none" stroke="#000000" cx="343.748" cy="-333.748" rx="18" ry="18"/>
<text text-anchor="middle" x="343.748" y="-330.048" font-family="Times,serif" font-size="14.00" fill="#000000">5</text>
</g>
<!-- 1&#45;&gt;5 -->
<g id="edge5" class="edge">
<title>1&#45;&gt;5</title>
<path fill="none" stroke="#000000" d="M247.9374,-277.1257C263.5116,-283.2889 286.9978,-293.3484 306,-304.748 311.3571,-307.9618 316.8419,-311.8062 321.9118,-315.6287"/>
<polygon fill="#000000" stroke="#000000" points="319.9248,-318.518 329.9567,-321.9256 324.2393,-313.0058 319.9248,-318.518"/>
<text text-anchor="middle" x="286" y="-308.548" font-family="Times,serif" font-size="14.00" fill="#000000">b:ε/&#45;1</text>
</g>
<!-- 6 -->
<g id="node7" class="node">
<title>6</title>
<ellipse fill="none" stroke="#000000" cx="343.748" cy="-207.748" rx="18" ry="18"/>
<text text-anchor="middle" x="343.748" y="-204.048" font-family="Times,serif" font-size="14.00" fill="#000000">6</text>
</g>
<!-- 1&#45;&gt;6 -->
<g id="edge6" class="edge">
<title>1&#45;&gt;6</title>
<path fill="none" stroke="#000000" d="M244.2897,-258.2335C250.5622,-252.7329 258.3406,-246.466 266,-241.748 282.1546,-231.7971 301.7324,-223.2533 317.2005,-217.2194"/>
<polygon fill="#000000" stroke="#000000" points="318.5802,-220.4395 326.6945,-213.627 316.1029,-213.8925 318.5802,-220.4395"/>
<text text-anchor="middle" x="286" y="-245.548" font-family="Times,serif" font-size="14.00" fill="#000000">ε:a/&#45;1</text>
</g>
<!-- 2&#45;&gt;1 -->
<g id="edge9" class="edge">
<title>2&#45;&gt;1</title>
<path fill="none" stroke="#000000" d="M137.4095,-316.8492C143.0571,-312.8079 149.687,-308.3387 156,-304.748 171.65,-295.8464 190.0528,-287.4747 204.7125,-281.2658"/>
<polygon fill="#000000" stroke="#000000" points="206.2905,-284.4003 214.1837,-277.3329 203.606,-277.9355 206.2905,-284.4003"/>
<text text-anchor="middle" x="176" y="-308.548" font-family="Times,serif" font-size="14.00" fill="#000000">ε:a/&#45;1</text>
</g>
<!-- 2&#45;&gt;5 -->
<g id="edge7" class="edge">
<title>2&#45;&gt;5</title>
<path fill="none" stroke="#000000" d="M141.0647,-328.239C179.4821,-329.2832 269.5336,-331.7308 315.5693,-332.9821"/>
<polygon fill="#000000" stroke="#000000" points="315.6518,-336.4855 325.7432,-333.2586 315.8421,-329.4881 315.6518,-336.4855"/>
<text text-anchor="middle" x="231" y="-334.548" font-family="Times,serif" font-size="14.00" fill="#000000">b:a/&#45;1</text>
</g>
<!-- 7 -->
<g id="node8" class="node">
<title>7</title>
<ellipse fill="none" stroke="#000000" cx="231" cy="-394.748" rx="18" ry="18"/>
<text text-anchor="middle" x="231" y="-391.048" font-family="Times,serif" font-size="14.00" fill="#000000">7</text>
</g>
<!-- 2&#45;&gt;7 -->
<g id="edge8" class="edge">
<title>2&#45;&gt;7</title>
<path fill="none" stroke="#000000" d="M138.4738,-337.3474C156.358,-348.4423 186.0062,-366.8352 206.9138,-379.8056"/>
<polygon fill="#000000" stroke="#000000" points="205.2122,-382.8688 215.5549,-385.1663 208.9024,-376.9204 205.2122,-382.8688"/>
<text text-anchor="middle" x="176" y="-374.548" font-family="Times,serif" font-size="14.00" fill="#000000">b:ε/&#45;1</text>
</g>
<!-- 3&#45;&gt;1 -->
<g id="edge11" class="edge">
<title>3&#45;&gt;1</title>
<path fill="none" stroke="#000000" d="M140.526,-217.9849C155.7765,-222.9373 178.1684,-231.1793 196,-241.748 200.7158,-244.543 205.4496,-247.9566 209.8442,-251.4473"/>
<polygon fill="#000000" stroke="#000000" points="207.8742,-254.3632 217.7835,-258.1123 212.375,-249.0019 207.8742,-254.3632"/>
<text text-anchor="middle" x="176" y="-245.548" font-family="Times,serif" font-size="14.00" fill="#000000">a:ε/&#45;1</text>
</g>
<!-- 3&#45;&gt;6 -->
<g id="edge10" class="edge">
<title>3&#45;&gt;6</title>
<path fill="none" stroke="#000000" d="M141.0647,-212.3388C179.4821,-211.4686 269.5336,-209.429 315.5693,-208.3862"/>
<polygon fill="#000000" stroke="#000000" points="315.8251,-211.8814 325.7432,-208.1558 315.6665,-204.8832 315.8251,-211.8814"/>
<text text-anchor="middle" x="231" y="-213.548" font-family="Times,serif" font-size="14.00" fill="#000000">a:a/0</text>
</g>
<!-- 8 -->
<g id="node9" class="node">
<title>8</title>
<ellipse fill="none" stroke="#000000" cx="231" cy="-149.748" rx="18" ry="18"/>
<text text-anchor="middle" x="231" y="-146.048" font-family="Times,serif" font-size="14.00" fill="#000000">8</text>
</g>
<!-- 3&#45;&gt;8 -->
<g id="edge12" class="edge">
<title>3&#45;&gt;8</title>
<path fill="none" stroke="#000000" d="M134.3732,-198.43C140.2619,-191.7473 147.9056,-184.1051 156,-178.748 170.5666,-169.1075 188.811,-161.963 203.658,-157.1776"/>
<polygon fill="#000000" stroke="#000000" points="204.76,-160.5008 213.3071,-154.2399 202.7212,-153.8043 204.76,-160.5008"/>
<text text-anchor="middle" x="176" y="-182.548" font-family="Times,serif" font-size="14.00" fill="#000000">ε:a/&#45;1</text>
</g>
<!-- 9 -->
<g id="node10" class="node">
<title>9</title>
<ellipse fill="none" stroke="#000000" cx="690.2359" cy="-264.748" rx="18" ry="18"/>
<text text-anchor="middle" x="690.2359" y="-261.048" font-family="Times,serif" font-size="14.00" fill="#000000">9</text>
</g>
<!-- 4&#45;&gt;9 -->
<g id="edge13" class="edge">
<title>4&#45;&gt;9</title>
<path fill="none" stroke="#000000" d="M477.3695,-270.2772C517.5138,-269.2344 614.1576,-266.7241 662.1788,-265.4768"/>
<polygon fill="#000000" stroke="#000000" points="662.2888,-268.9752 672.1945,-265.2166 662.107,-261.9775 662.2888,-268.9752"/>
<text text-anchor="middle" x="574.7399" y="-271.548" font-family="Times,serif" font-size="14.00" fill="#000000">a:b/&#45;1</text>
</g>
<!-- 10 -->
<g id="node11" class="node">
<title>10</title>
<ellipse fill="none" stroke="#000000" cx="574.7399" cy="-329.748" rx="22.9987" ry="22.9987"/>
<text text-anchor="middle" x="574.7399" y="-326.048" font-family="Times,serif" font-size="14.00" fill="#000000">10</text>
</g>
<!-- 4&#45;&gt;10 -->
<g id="edge14" class="edge">
<title>4&#45;&gt;10</title>
<path fill="none" stroke="#000000" d="M476.3263,-277.2279C492.3524,-283.5364 516.8079,-293.7578 536.9919,-304.748 540.4652,-306.6392 544.0313,-308.7526 547.5195,-310.9279"/>
<polygon fill="#000000" stroke="#000000" points="545.6357,-313.8778 555.9329,-316.3713 549.4382,-308.0006 545.6357,-313.8778"/>
<text text-anchor="middle" x="516.9919" y="-308.548" font-family="Times,serif" font-size="14.00" fill="#000000">a:ε/&#45;1</text>
</g>
<!-- 11 -->
<g id="node12" class="node">
<title>11</title>
<ellipse fill="none" stroke="#000000" cx="574.7399" cy="-207.748" rx="22.9987" ry="22.9987"/>
<text text-anchor="middle" x="574.7399" y="-204.048" font-family="Times,serif" font-size="14.00" fill="#000000">11</text>
</g>
<!-- 4&#45;&gt;11 -->
<g id="edge15" class="edge">
<title>4&#45;&gt;11</title>
<path fill="none" stroke="#000000" d="M473.0061,-258.8767C479.9202,-253.2576 488.5962,-246.7086 496.9919,-241.748 511.7287,-233.0407 529.1037,-225.2336 543.6866,-219.3032"/>
<polygon fill="#000000" stroke="#000000" points="545.2602,-222.4446 553.2697,-215.5093 542.6835,-215.9361 545.2602,-222.4446"/>
<text text-anchor="middle" x="516.9919" y="-245.548" font-family="Times,serif" font-size="14.00" fill="#000000">ε:b/&#45;1</text>
</g>
<!-- 5&#45;&gt;4 -->
<g id="edge18" class="edge">
<title>5&#45;&gt;4</title>
<path fill="none" stroke="#000000" d="M357.5102,-321.8767C364.4243,-316.2576 373.1002,-309.7086 381.496,-304.748 397.727,-295.1578 417.1585,-286.6596 432.535,-280.5581"/>
<polygon fill="#000000" stroke="#000000" points="433.9141,-283.7774 441.9795,-276.9072 431.3902,-277.2482 433.9141,-283.7774"/>
<text text-anchor="middle" x="401.496" y="-308.548" font-family="Times,serif" font-size="14.00" fill="#000000">ε:a/&#45;1</text>
</g>
<!-- 5&#45;&gt;10 -->
<g id="edge16" class="edge">
<title>5&#45;&gt;10</title>
<path fill="none" stroke="#000000" d="M361.8735,-333.4341C400.6159,-332.7632 491.9804,-331.1811 541.4783,-330.324"/>
<polygon fill="#000000" stroke="#000000" points="541.7227,-333.8204 551.6605,-330.1476 541.6014,-326.8214 541.7227,-333.8204"/>
<text text-anchor="middle" x="459.2439" y="-335.548" font-family="Times,serif" font-size="14.00" fill="#000000">a:a/0</text>
</g>
<!-- 12 -->
<g id="node13" class="node">
<title>12</title>
<ellipse fill="none" stroke="#000000" cx="459.2439" cy="-396.748" rx="22.9987" ry="22.9987"/>
<text text-anchor="middle" x="459.2439" y="-393.048" font-family="Times,serif" font-size="14.00" fill="#000000">12</text>
</g>
<!-- 5&#45;&gt;12 -->
<g id="edge17" class="edge">
<title>5&#45;&gt;12</title>
<path fill="none" stroke="#000000" d="M359.8072,-342.5079C377.9216,-352.3888 407.7544,-368.6618 430.026,-380.8104"/>
<polygon fill="#000000" stroke="#000000" points="428.5968,-384.0176 439.0518,-385.7337 431.9489,-377.8724 428.5968,-384.0176"/>
<text text-anchor="middle" x="401.496" y="-377.548" font-family="Times,serif" font-size="14.00" fill="#000000">a:ε/&#45;1</text>
</g>
<!-- 6&#45;&gt;4 -->
<g id="edge20" class="edge">
<title>6&#45;&gt;4</title>
<path fill="none" stroke="#000000" d="M361.0124,-213.9072C377.167,-219.989 401.7095,-230.0571 421.496,-241.748 426.8745,-244.9259 432.368,-248.7557 437.4396,-252.5752"/>
<polygon fill="#000000" stroke="#000000" points="435.4516,-255.4639 445.4818,-258.8767 439.7691,-249.9539 435.4516,-255.4639"/>
<text text-anchor="middle" x="401.496" y="-245.548" font-family="Times,serif" font-size="14.00" fill="#000000">b:ε/&#45;1</text>
</g>
<!-- 6&#45;&gt;11 -->
<g id="edge19" class="edge">
<title>6&#45;&gt;11</title>
<path fill="none" stroke="#000000" d="M361.8735,-207.748C400.6159,-207.748 491.9804,-207.748 541.4783,-207.748"/>
<polygon fill="#000000" stroke="#000000" points="541.6606,-211.2481 551.6605,-207.748 541.6605,-204.2481 541.6606,-211.2481"/>
<text text-anchor="middle" x="459.2439" y="-211.548" font-family="Times,serif" font-size="14.00" fill="#000000">b:b/0</text>
</g>
<!-- 13 -->
<g id="node14" class="node">
<title>13</title>
<ellipse fill="none" stroke="#000000" cx="459.2439" cy="-144.748" rx="22.9987" ry="22.9987"/>
<text text-anchor="middle" x="459.2439" y="-141.048" font-family="Times,serif" font-size="14.00" fill="#000000">13</text>
</g>
<!-- 6&#45;&gt;13 -->
<g id="edge21" class="edge">
<title>6&#45;&gt;13</title>
<path fill="none" stroke="#000000" d="M357.5102,-195.8767C364.4243,-190.2576 373.1002,-183.7086 381.496,-178.748 396.2327,-170.0407 413.6078,-162.2336 428.1907,-156.3032"/>
<polygon fill="#000000" stroke="#000000" points="429.7642,-159.4446 437.7737,-152.5093 427.1875,-152.9361 429.7642,-159.4446"/>
<text text-anchor="middle" x="401.496" y="-182.548" font-family="Times,serif" font-size="14.00" fill="#000000">ε:b/&#45;1</text>
</g>
<!-- 7&#45;&gt;5 -->
<g id="edge24" class="edge">
<title>7&#45;&gt;5</title>
<path fill="none" stroke="#000000" d="M247.154,-386.0082C265.8245,-375.9069 296.7761,-359.1611 318.6029,-347.3522"/>
<polygon fill="#000000" stroke="#000000" points="320.4941,-350.3085 327.6239,-342.4716 317.1631,-344.1518 320.4941,-350.3085"/>
<text text-anchor="middle" x="286" y="-378.548" font-family="Times,serif" font-size="14.00" fill="#000000">ε:a/&#45;1</text>
</g>
<!-- 7&#45;&gt;12 -->
<g id="edge22" class="edge">
<title>7&#45;&gt;12</title>
<path fill="none" stroke="#000000" d="M246.1953,-405.1073C252.1744,-408.8473 259.2217,-412.8555 266,-415.748 289.3041,-425.6926 295.887,-427.3849 321,-430.748 365.6972,-436.7337 379.4229,-432.9814 421.496,-416.748 424.3783,-415.6359 427.3221,-414.3561 430.231,-412.9928"/>
<polygon fill="#000000" stroke="#000000" points="431.9134,-416.0646 439.2861,-408.4558 428.7776,-409.8062 431.9134,-416.0646"/>
<text text-anchor="middle" x="343.748" y="-436.548" font-family="Times,serif" font-size="14.00" fill="#000000">a:a/0</text>
</g>
<!-- 14 -->
<g id="node15" class="node">
<title>14</title>
<ellipse fill="none" stroke="#000000" cx="343.748" cy="-398.748" rx="22.9987" ry="22.9987"/>
<text text-anchor="middle" x="343.748" y="-395.048" font-family="Times,serif" font-size="14.00" fill="#000000">14</text>
</g>
<!-- 7&#45;&gt;14 -->
<g id="edge23" class="edge">
<title>7&#45;&gt;14</title>
<path fill="none" stroke="#000000" d="M249.1149,-395.3907C265.7596,-395.9812 290.8294,-396.8706 310.9847,-397.5856"/>
<polygon fill="#000000" stroke="#000000" points="310.8881,-401.0843 321.006,-397.9412 311.1364,-394.0887 310.8881,-401.0843"/>
<text text-anchor="middle" x="286" y="-400.548" font-family="Times,serif" font-size="14.00" fill="#000000">a:ε/&#45;1</text>
</g>
<!-- 8&#45;&gt;6 -->
<g id="edge26" class="edge">
<title>8&#45;&gt;6</title>
<path fill="none" stroke="#000000" d="M248.3054,-154.8743C263.9243,-159.8599 287.2582,-168.2148 306,-178.748 311.446,-181.8087 316.9672,-185.5905 322.0443,-189.4007"/>
<polygon fill="#000000" stroke="#000000" points="320.0533,-192.2876 330.0777,-195.7173 324.3801,-186.7849 320.0533,-192.2876"/>
<text text-anchor="middle" x="286" y="-182.548" font-family="Times,serif" font-size="14.00" fill="#000000">a:ε/&#45;1</text>
</g>
<!-- 8&#45;&gt;13 -->
<g id="edge25" class="edge">
<title>8&#45;&gt;13</title>
<path fill="none" stroke="#000000" d="M249.2923,-149.3473C287.7279,-148.5053 377.3437,-146.5421 426.1437,-145.4731"/>
<polygon fill="#000000" stroke="#000000" points="426.2693,-148.9713 436.1903,-145.253 426.116,-141.973 426.2693,-148.9713"/>
<text text-anchor="middle" x="343.748" y="-151.548" font-family="Times,serif" font-size="14.00" fill="#000000">a:b/&#45;1</text>
</g>
<!-- 15 -->
<g id="node16" class="node">
<title>15</title>
<ellipse fill="none" stroke="#000000" cx="343.748" cy="-83.748" rx="22.9987" ry="22.9987"/>
<text text-anchor="middle" x="343.748" y="-80.048" font-family="Times,serif" font-size="14.00" fill="#000000">15</text>
</g>
<!-- 8&#45;&gt;15 -->
<g id="edge27" class="edge">
<title>8&#45;&gt;15</title>
<path fill="none" stroke="#000000" d="M242.9422,-135.8781C249.2789,-129.1441 257.5005,-121.3248 266,-115.748 280.1795,-106.4442 297.5031,-98.9941 312.1961,-93.6314"/>
<polygon fill="#000000" stroke="#000000" points="313.5872,-96.853 321.8769,-90.2552 311.282,-90.2435 313.5872,-96.853"/>
<text text-anchor="middle" x="286" y="-119.548" font-family="Times,serif" font-size="14.00" fill="#000000">ε:b/&#45;1</text>
</g>
<!-- 16 -->
<g id="node17" class="node">
<title>16</title>
<ellipse fill="none" stroke="#000000" cx="809.7318" cy="-207.748" rx="22.9609" ry="22.9609"/>
<ellipse fill="none" stroke="#000000" cx="809.7318" cy="-207.748" rx="26.9983" ry="26.9983"/>
<text text-anchor="middle" x="809.7318" y="-204.048" font-family="Times,serif" font-size="14.00" fill="#000000">16</text>
</g>
<!-- 9&#45;&gt;16 -->
<g id="edge28" class="edge">
<title>9&#45;&gt;16</title>
<path fill="none" stroke="#000000" d="M706.8513,-256.8224C724.6953,-248.3107 753.5297,-234.5566 776.1387,-223.772"/>
<polygon fill="#000000" stroke="#000000" points="777.8781,-226.8202 785.397,-219.3558 774.8644,-220.5021 777.8781,-226.8202"/>
<text text-anchor="middle" x="747.9839" y="-249.548" font-family="Times,serif" font-size="14.00" fill="#000000">ε:b/&#45;1</text>
</g>
<!-- 10&#45;&gt;9 -->
<g id="edge29" class="edge">
<title>10&#45;&gt;9</title>
<path fill="none" stroke="#000000" d="M594.5944,-318.5741C614.2581,-307.5075 644.4168,-290.5345 665.599,-278.6134"/>
<polygon fill="#000000" stroke="#000000" points="667.3518,-281.6432 674.3499,-273.6884 663.9186,-275.5429 667.3518,-281.6432"/>
<text text-anchor="middle" x="632.4879" y="-310.548" font-family="Times,serif" font-size="14.00" fill="#000000">ε:b/&#45;1</text>
</g>
<!-- 11&#45;&gt;9 -->
<g id="edge31" class="edge">
<title>11&#45;&gt;9</title>
<path fill="none" stroke="#000000" d="M596.2212,-216.2259C612.0382,-222.6875 633.9298,-232.0925 652.4879,-241.748 657.0151,-244.1034 661.7375,-246.7871 666.2481,-249.4696"/>
<polygon fill="#000000" stroke="#000000" points="664.7215,-252.6386 675.079,-254.8686 668.3728,-246.6663 664.7215,-252.6386"/>
<text text-anchor="middle" x="632.4879" y="-245.548" font-family="Times,serif" font-size="14.00" fill="#000000">a:ε/&#45;1</text>
</g>
<!-- 11&#45;&gt;16 -->
<g id="edge30" class="edge">
<title>11&#45;&gt;16</title>
<path fill="none" stroke="#000000" d="M597.6998,-207.748C638.3702,-207.748 723.4028,-207.748 772.5313,-207.748"/>
<polygon fill="#000000" stroke="#000000" points="772.7341,-211.2481 782.7341,-207.748 772.734,-204.2481 772.7341,-211.2481"/>
<text text-anchor="middle" x="690.2359" y="-211.548" font-family="Times,serif" font-size="14.00" fill="#000000">a:b/&#45;1</text>
</g>
<!-- 17 -->
<g id="node18" class="node">
<title>17</title>
<ellipse fill="none" stroke="#000000" cx="690.2359" cy="-146.748" rx="22.9987" ry="22.9987"/>
<text text-anchor="middle" x="690.2359" y="-143.048" font-family="Times,serif" font-size="14.00" fill="#000000">17</text>
</g>
<!-- 11&#45;&gt;17 -->
<g id="edge32" class="edge">
<title>11&#45;&gt;17</title>
<path fill="none" stroke="#000000" d="M592.1088,-192.8645C598.2942,-187.9891 605.4707,-182.7916 612.4879,-178.748 627.0794,-170.3397 644.3104,-163.0107 658.838,-157.496"/>
<polygon fill="#000000" stroke="#000000" points="660.2227,-160.716 668.398,-153.977 657.8046,-154.1469 660.2227,-160.716"/>
<text text-anchor="middle" x="632.4879" y="-182.548" font-family="Times,serif" font-size="14.00" fill="#000000">ε:b/&#45;1</text>
</g>
<!-- 12&#45;&gt;10 -->
<g id="edge33" class="edge">
<title>12&#45;&gt;10</title>
<path fill="none" stroke="#000000" d="M479.0984,-385.2303C497.5262,-374.5402 525.171,-358.5033 546.0071,-346.4161"/>
<polygon fill="#000000" stroke="#000000" points="547.8644,-349.385 554.758,-341.3396 544.3518,-343.3301 547.8644,-349.385"/>
<text text-anchor="middle" x="516.9919" y="-376.548" font-family="Times,serif" font-size="14.00" fill="#000000">ε:a/&#45;1</text>
</g>
<!-- 13&#45;&gt;11 -->
<g id="edge35" class="edge">
<title>13&#45;&gt;11</title>
<path fill="none" stroke="#000000" d="M480.7141,-152.5093C496.7204,-158.6783 518.8543,-168.0314 536.9919,-178.748 541.023,-181.1298 545.1187,-183.8777 549.053,-186.7131"/>
<polygon fill="#000000" stroke="#000000" points="547.2296,-189.7219 557.3202,-192.9517 551.4462,-184.1343 547.2296,-189.7219"/>
<text text-anchor="middle" x="516.9919" y="-182.548" font-family="Times,serif" font-size="14.00" fill="#000000">b:ε/&#45;1</text>
</g>
<!-- 13&#45;&gt;17 -->
<g id="edge34" class="edge">
<title>13&#45;&gt;17</title>
<path fill="none" stroke="#000000" d="M482.2368,-144.9471C523.4001,-145.3035 609.8045,-146.0516 657.2709,-146.4626"/>
<polygon fill="#000000" stroke="#000000" points="657.306,-149.9629 667.336,-146.5497 657.3667,-142.9632 657.306,-149.9629"/>
<text text-anchor="middle" x="574.7399" y="-150.548" font-family="Times,serif" font-size="14.00" fill="#000000">b:b/0</text>
</g>
<!-- 18 -->
<g id="node19" class="node">
<title>18</title>
<ellipse fill="none" stroke="#000000" cx="574.7399" cy="-83.748" rx="22.9987" ry="22.9987"/>
<text text-anchor="middle" x="574.7399" y="-80.048" font-family="Times,serif" font-size="14.00" fill="#000000">18</text>
</g>
<!-- 13&#45;&gt;18 -->
<g id="edge36" class="edge">
<title>13&#45;&gt;18</title>
<path fill="none" stroke="#000000" d="M476.6128,-129.8645C482.7983,-124.9891 489.9747,-119.7916 496.9919,-115.748 511.5834,-107.3397 528.8144,-100.0107 543.3421,-94.496"/>
<polygon fill="#000000" stroke="#000000" points="544.7267,-97.716 552.9021,-90.977 542.3086,-91.1469 544.7267,-97.716"/>
<text text-anchor="middle" x="516.9919" y="-119.548" font-family="Times,serif" font-size="14.00" fill="#000000">ε:b/&#45;1</text>
</g>
<!-- 14&#45;&gt;12 -->
<g id="edge37" class="edge">
<title>14&#45;&gt;12</title>
<path fill="none" stroke="#000000" d="M366.5663,-398.3528C383.6505,-398.057 407.2681,-397.648 426.3854,-397.317"/>
<polygon fill="#000000" stroke="#000000" points="426.5352,-400.815 436.4731,-397.1423 426.4139,-393.8161 426.5352,-400.815"/>
<text text-anchor="middle" x="401.496" y="-401.548" font-family="Times,serif" font-size="14.00" fill="#000000">ε:a/&#45;1</text>
</g>
<!-- 15&#45;&gt;13 -->
<g id="edge39" class="edge">
<title>15&#45;&gt;13</title>
<path fill="none" stroke="#000000" d="M365.5858,-90.977C381.5801,-96.6856 403.5372,-105.3994 421.496,-115.748 425.5528,-118.0857 429.6628,-120.8091 433.6038,-123.6329"/>
<polygon fill="#000000" stroke="#000000" points="431.782,-126.6425 441.875,-129.8645 435.9942,-121.0517 431.782,-126.6425"/>
<text text-anchor="middle" x="401.496" y="-119.548" font-family="Times,serif" font-size="14.00" fill="#000000">a:ε/&#45;1</text>
</g>
<!-- 15&#45;&gt;18 -->
<g id="edge38" class="edge">
<title>15&#45;&gt;18</title>
<path fill="none" stroke="#000000" d="M366.7409,-83.748C407.9042,-83.748 494.3086,-83.748 541.7749,-83.748"/>
<polygon fill="#000000" stroke="#000000" points="541.84,-87.2481 551.84,-83.748 541.84,-80.2481 541.84,-87.2481"/>
<text text-anchor="middle" x="459.2439" y="-87.548" font-family="Times,serif" font-size="14.00" fill="#000000">a:b/&#45;1</text>
</g>
<!-- 19 -->
<g id="node20" class="node">
<title>19</title>
<ellipse fill="none" stroke="#000000" cx="459.2439" cy="-22.748" rx="22.9987" ry="22.9987"/>
<text text-anchor="middle" x="459.2439" y="-19.048" font-family="Times,serif" font-size="14.00" fill="#000000">19</text>
</g>
<!-- 15&#45;&gt;19 -->
<g id="edge40" class="edge">
<title>15&#45;&gt;19</title>
<path fill="none" stroke="#000000" d="M360.5553,-68.0019C366.8079,-62.6843 374.1703,-57.0197 381.496,-52.748 395.9159,-44.3396 413.13,-37.4168 427.6908,-32.3484"/>
<polygon fill="#000000" stroke="#000000" points="428.9075,-35.6321 437.2805,-29.1403 426.6867,-28.9937 428.9075,-35.6321"/>
<text text-anchor="middle" x="401.496" y="-56.548" font-family="Times,serif" font-size="14.00" fill="#000000">ε:b/&#45;1</text>
</g>
<!-- 17&#45;&gt;16 -->
<g id="edge41" class="edge">
<title>17&#45;&gt;16</title>
<path fill="none" stroke="#000000" d="M711.9292,-154.2349C727.8516,-160.0717 749.7821,-168.833 767.9839,-178.748 771.9266,-180.8957 775.951,-183.3351 779.8689,-185.8654"/>
<polygon fill="#000000" stroke="#000000" points="777.952,-188.7941 788.2028,-191.4721 781.8593,-182.9861 777.952,-188.7941"/>
<text text-anchor="middle" x="747.9839" y="-182.548" font-family="Times,serif" font-size="14.00" fill="#000000">a:ε/&#45;1</text>
</g>
<!-- 18&#45;&gt;17 -->
<g id="edge42" class="edge">
<title>18&#45;&gt;17</title>
<path fill="none" stroke="#000000" d="M596.6791,-90.8043C612.7238,-96.4271 634.6995,-105.1092 652.4879,-115.748 656.8091,-118.3324 661.1564,-121.3856 665.2853,-124.5511"/>
<polygon fill="#000000" stroke="#000000" points="663.3985,-127.5264 673.3753,-131.0922 667.7997,-122.0831 663.3985,-127.5264"/>
<text text-anchor="middle" x="632.4879" y="-119.548" font-family="Times,serif" font-size="14.00" fill="#000000">b:ε/&#45;1</text>
</g>
<!-- 19&#45;&gt;18 -->
<g id="edge43" class="edge">
<title>19&#45;&gt;18</title>
<path fill="none" stroke="#000000" d="M481.2074,-29.1403C497.2641,-34.3007 519.2444,-42.3992 536.9919,-52.748 541.3416,-55.2843 545.7041,-58.3117 549.8396,-61.4659"/>
<polygon fill="#000000" stroke="#000000" points="547.9538,-64.4418 557.9326,-68.0019 552.3519,-58.996 547.9538,-64.4418"/>
<text text-anchor="middle" x="516.9919" y="-56.548" font-family="Times,serif" font-size="14.00" fill="#000000">a:ε/&#45;1</text>
</g>
</g>
</svg>
