<?xml version="1.0" encoding="UTF-8" standalone="no"?>
<!DOCTYPE svg PUBLIC "-//W3C//DTD SVG 1.1//EN"
 "http://www.w3.org/Graphics/SVG/1.1/DTD/svg11.dtd">
<!-- Generated by graphviz version 2.40.1 (20161225.0304)
 -->
<!-- Title: FST Pages: 1 -->
<svg width="155pt" height="277pt"
 viewBox="0.00 0.00 155.00 277.00" xmlns="http://www.w3.org/2000/svg" xmlns:xlink="http://www.w3.org/1999/xlink">
<g id="graph0" class="graph" transform="scale(1 1) rotate(0) translate(4 273)">
<title>FST</title>
<polygon fill="#ffffff" stroke="transparent" points="-4,4 -4,-273 151,-273 151,4 -4,4"/>
<!-- 0 -->
<g id="node1" class="node">
<title>0</title>
<ellipse fill="none" stroke="#000000" stroke-width="2" cx="18" cy="-136" rx="18" ry="18"/>
<text text-anchor="middle" x="18" y="-132.3" font-family="Times,serif" font-size="14.00" fill="#000000">0</text>
</g>
<!-- 1 -->
<g id="node2" class="node">
<title>1</title>
<ellipse fill="none" stroke="#000000" cx="125" cy="-240" rx="18" ry="18"/>
<ellipse fill="none" stroke="#000000" cx="125" cy="-240" rx="22" ry="22"/>
<text text-anchor="middle" x="125" y="-236.3" font-family="Times,serif" font-size="14.00" fill="#000000">1</text>
</g>
<!-- 0&#45;&gt;1 -->
<g id="edge1" class="edge">
<title>0&#45;&gt;1</title>
<path fill="none" stroke="#000000" d="M20.6911,-153.8515C25.3837,-182.2901 36.0133,-235.8205 51,-247 63.4383,-256.2785 80.519,-255.2957 95.1363,-251.6445"/>
<polygon fill="#000000" stroke="#000000" points="96.1843,-254.9844 104.7751,-248.7837 94.1926,-248.2738 96.1843,-254.9844"/>
<text text-anchor="middle" x="69.5" y="-257.8" font-family="Times,serif" font-size="14.00" fill="#000000">ε:a/1</text>
</g>
<!-- 0&#45;&gt;1 -->
<g id="edge2" class="edge">
<title>0&#45;&gt;1</title>
<path fill="none" stroke="#000000" d="M24.6862,-153.0117C30.2939,-165.6869 39.269,-182.8341 51,-195 63.5855,-208.052 80.7335,-218.7925 95.3532,-226.5032"/>
<polygon fill="#000000" stroke="#000000" points="94.0171,-229.7492 104.522,-231.1265 97.1688,-223.4988 94.0171,-229.7492"/>
<text text-anchor="middle" x="69.5" y="-224.8" font-family="Times,serif" font-size="14.00" fill="#000000">ε:b/1</text>
</g>
<!-- 2 -->
<g id="node3" class="node">
<title>2</title>
<ellipse fill="none" stroke="#000000" cx="125" cy="-171" rx="18" ry="18"/>
<ellipse fill="none" stroke="#000000" cx="125" cy="-171" rx="22" ry="22"/>
<text text-anchor="middle" x="125" y="-167.3" font-family="Times,serif" font-size="14.00" fill="#000000">2</text>
</g>
<!-- 0&#45;&gt;2 -->
<g id="edge3" class="edge">
<title>0&#45;&gt;2</title>
<path fill="none" stroke="#000000" d="M27.97,-151.4113C33.712,-158.8248 41.6452,-166.963 51,-171 64.0306,-176.6233 79.5947,-177.3935 93.0794,-176.4518"/>
<polygon fill="#000000" stroke="#000000" points="93.7726,-179.8989 103.36,-175.3897 93.0532,-172.936 93.7726,-179.8989"/>
<text text-anchor="middle" x="69.5" y="-179.8" font-family="Times,serif" font-size="14.00" fill="#000000">a:ε/1</text>
</g>
<!-- 0&#45;&gt;2 -->
<g id="edge4" class="edge">
<title>0&#45;&gt;2</title>
<path fill="none" stroke="#000000" d="M35.9004,-138.8185C50.2577,-141.3799 70.7829,-145.7239 88,-152 90.8918,-153.0541 93.8464,-154.284 96.7627,-155.6018"/>
<polygon fill="#000000" stroke="#000000" points="95.2997,-158.7822 105.8239,-160.0036 98.3584,-152.4858 95.2997,-158.7822"/>
<text text-anchor="middle" x="69.5" y="-155.8" font-family="Times,serif" font-size="14.00" fill="#000000">b:ε/1</text>
</g>
<!-- 3 -->
<g id="node4" class="node">
<title>3</title>
<ellipse fill="none" stroke="#000000" cx="125" cy="-107" rx="18" ry="18"/>
<ellipse fill="none" stroke="#000000" cx="125" cy="-107" rx="22" ry="22"/>
<text text-anchor="middle" x="125" y="-103.3" font-family="Times,serif" font-size="14.00" fill="#000000">3</text>
</g>
<!-- 0&#45;&gt;3 -->
<g id="edge5" class="edge">
<title>0&#45;&gt;3</title>
<path fill="none" stroke="#000000" d="M33.265,-126.2169C38.6789,-123.147 44.9362,-120.0328 51,-118 64.3125,-113.5372 79.5772,-110.882 92.7716,-109.3036"/>
<polygon fill="#000000" stroke="#000000" points="93.2495,-112.7728 102.8326,-108.2546 92.5235,-105.8106 93.2495,-112.7728"/>
<text text-anchor="middle" x="69.5" y="-121.8" font-family="Times,serif" font-size="14.00" fill="#000000">a:b/1</text>
</g>
<!-- 0&#45;&gt;3 -->
<g id="edge6" class="edge">
<title>0&#45;&gt;3</title>
<path fill="none" stroke="#000000" d="M25.4508,-119.079C30.9212,-108.9224 39.4199,-96.8681 51,-91 65.0036,-83.9038 82.0481,-86.9119 96.2478,-92.1405"/>
<polygon fill="#000000" stroke="#000000" points="94.9746,-95.4016 105.5515,-96.0181 97.6676,-88.9403 94.9746,-95.4016"/>
<text text-anchor="middle" x="69.5" y="-94.8" font-family="Times,serif" font-size="14.00" fill="#000000">b:a/1</text>
</g>
<!-- 4 -->
<g id="node5" class="node">
<title>4</title>
<ellipse fill="none" stroke="#000000" cx="125" cy="-22" rx="18" ry="18"/>
<ellipse fill="none" stroke="#000000" cx="125" cy="-22" rx="22" ry="22"/>
<text text-anchor="middle" x="125" y="-18.3" font-family="Times,serif" font-size="14.00" fill="#000000">4</text>
</g>
<!-- 0&#45;&gt;4 -->
<g id="edge7" class="edge">
<title>0&#45;&gt;4</title>
<path fill="none" stroke="#000000" d="M23.2104,-118.5009C28.3658,-103.4876 37.4611,-81.9692 51,-67 63.2451,-53.4613 80.519,-42.6431 95.2979,-35.0099"/>
<polygon fill="#000000" stroke="#000000" points="97.1374,-38.006 104.5716,-30.4572 94.0525,-31.7224 97.1374,-38.006"/>
<text text-anchor="middle" x="69.5" y="-70.8" font-family="Times,serif" font-size="14.00" fill="#000000">a:a/0</text>
</g>
<!-- 0&#45;&gt;4 -->
<g id="edge8" class="edge">
<title>0&#45;&gt;4</title>
<path fill="none" stroke="#000000" d="M20.4949,-117.8328C24.9702,-88.2557 35.3775,-31.7981 51,-20 63.0491,-10.9006 79.6241,-10.5743 94.0334,-12.8851"/>
<polygon fill="#000000" stroke="#000000" points="93.5467,-16.3582 104.047,-14.9461 94.9579,-9.502 93.5467,-16.3582"/>
<text text-anchor="middle" x="69.5" y="-23.8" font-family="Times,serif" font-size="14.00" fill="#000000">b:b/0</text>
</g>
</g>
</svg>
