<?xml version="1.0" encoding="UTF-8" standalone="no"?>
<!DOCTYPE svg PUBLIC "-//W3C//DTD SVG 1.1//EN"
 "http://www.w3.org/Graphics/SVG/1.1/DTD/svg11.dtd">
<!-- Generated by graphviz version 2.40.1 (20161225.0304)
 -->
<!-- Title: FST Pages: 1 -->
<svg width="467pt" height="52pt"
 viewBox="0.00 0.00 467.00 52.00" xmlns="http://www.w3.org/2000/svg" xmlns:xlink="http://www.w3.org/1999/xlink">
<g id="graph0" class="graph" transform="scale(1 1) rotate(0) translate(4 48)">
<title>FST</title>
<polygon fill="#ffffff" stroke="transparent" points="-4,4 -4,-48 463,-48 463,4 -4,4"/>
<!-- 0 -->
<g id="node1" class="node">
<title>0</title>
<ellipse fill="none" stroke="#000000" stroke-width="2" cx="18" cy="-22" rx="18" ry="18"/>
<text text-anchor="middle" x="18" y="-18.3" font-family="Times,serif" font-size="14.00" fill="#000000">0</text>
</g>
<!-- 1 -->
<g id="node2" class="node">
<title>1</title>
<ellipse fill="none" stroke="#000000" cx="123" cy="-22" rx="18" ry="18"/>
<text text-anchor="middle" x="123" y="-18.3" font-family="Times,serif" font-size="14.00" fill="#000000">1</text>
</g>
<!-- 0&#45;&gt;1 -->
<g id="edge1" class="edge">
<title>0&#45;&gt;1</title>
<path fill="none" stroke="#000000" d="M36.2896,-22C52.3998,-22 76.1225,-22 94.6841,-22"/>
<polygon fill="#000000" stroke="#000000" points="94.92,-25.5001 104.92,-22 94.92,-18.5001 94.92,-25.5001"/>
<text text-anchor="middle" x="70.5" y="-25.8" font-family="Times,serif" font-size="14.00" fill="#000000">ε:a/&#45;1</text>
</g>
<!-- 2 -->
<g id="node3" class="node">
<title>2</title>
<ellipse fill="none" stroke="#000000" cx="224" cy="-22" rx="18" ry="18"/>
<text text-anchor="middle" x="224" y="-18.3" font-family="Times,serif" font-size="14.00" fill="#000000">2</text>
</g>
<!-- 1&#45;&gt;2 -->
<g id="edge2" class="edge">
<title>1&#45;&gt;2</title>
<path fill="none" stroke="#000000" d="M141.0568,-22C156.187,-22 178.0552,-22 195.539,-22"/>
<polygon fill="#000000" stroke="#000000" points="195.7591,-25.5001 205.759,-22 195.759,-18.5001 195.7591,-25.5001"/>
<text text-anchor="middle" x="173.5" y="-25.8" font-family="Times,serif" font-size="14.00" fill="#000000">a:a/0</text>
</g>
<!-- 3 -->
<g id="node4" class="node">
<title>3</title>
<ellipse fill="none" stroke="#000000" cx="327" cy="-22" rx="18" ry="18"/>
<text text-anchor="middle" x="327" y="-18.3" font-family="Times,serif" font-size="14.00" fill="#000000">3</text>
</g>
<!-- 2&#45;&gt;3 -->
<g id="edge3" class="edge">
<title>2&#45;&gt;3</title>
<path fill="none" stroke="#000000" d="M242.4143,-22C258.0132,-22 280.635,-22 298.5599,-22"/>
<polygon fill="#000000" stroke="#000000" points="298.7451,-25.5001 308.7451,-22 298.7451,-18.5001 298.7451,-25.5001"/>
<text text-anchor="middle" x="275.5" y="-25.8" font-family="Times,serif" font-size="14.00" fill="#000000">b:b/0</text>
</g>
<!-- 4 -->
<g id="node5" class="node">
<title>4</title>
<ellipse fill="none" stroke="#000000" cx="437" cy="-22" rx="18" ry="18"/>
<ellipse fill="none" stroke="#000000" cx="437" cy="-22" rx="22" ry="22"/>
<text text-anchor="middle" x="437" y="-18.3" font-family="Times,serif" font-size="14.00" fill="#000000">4</text>
</g>
<!-- 3&#45;&gt;4 -->
<g id="edge4" class="edge">
<title>3&#45;&gt;4</title>
<path fill="none" stroke="#000000" d="M345.1643,-22C361.2282,-22 385.051,-22 404.4074,-22"/>
<polygon fill="#000000" stroke="#000000" points="404.6239,-25.5001 414.6239,-22 404.6238,-18.5001 404.6239,-25.5001"/>
<text text-anchor="middle" x="380" y="-25.8" font-family="Times,serif" font-size="14.00" fill="#000000">a:b/&#45;1</text>
</g>
</g>
</svg>
