<?xml version="1.0" encoding="UTF-8" standalone="no"?>
<!DOCTYPE svg PUBLIC "-//W3C//DTD SVG 1.1//EN"
 "http://www.w3.org/Graphics/SVG/1.1/DTD/svg11.dtd">
<!-- Generated by graphviz version 2.40.1 (20161225.0304)
 -->
<!-- Title: FST Pages: 1 -->
<svg width="344pt" height="52pt"
 viewBox="0.00 0.00 344.00 52.00" xmlns="http://www.w3.org/2000/svg" xmlns:xlink="http://www.w3.org/1999/xlink">
<g id="graph0" class="graph" transform="scale(1 1) rotate(0) translate(4 48)">
<title>FST</title>
<polygon fill="#ffffff" stroke="transparent" points="-4,4 -4,-48 340,-48 340,4 -4,4"/>
<!-- 0 -->
<g id="node1" class="node">
<title>0</title>
<ellipse fill="none" stroke="#000000" stroke-width="2" cx="18" cy="-22" rx="18" ry="18"/>
<text text-anchor="middle" x="18" y="-18.3" font-family="Times,serif" font-size="14.00" fill="#000000">0</text>
</g>
<!-- 1 -->
<g id="node2" class="node">
<title>1</title>
<ellipse fill="none" stroke="#000000" cx="120" cy="-22" rx="18" ry="18"/>
<text text-anchor="middle" x="120" y="-18.3" font-family="Times,serif" font-size="14.00" fill="#000000">1</text>
</g>
<!-- 0&#45;&gt;1 -->
<g id="edge1" class="edge">
<title>0&#45;&gt;1</title>
<path fill="none" stroke="#000000" d="M36.2356,-22C51.683,-22 74.0851,-22 91.836,-22"/>
<polygon fill="#000000" stroke="#000000" points="91.9224,-25.5001 101.9223,-22 91.9223,-18.5001 91.9224,-25.5001"/>
<text text-anchor="middle" x="69" y="-25.8" font-family="Times,serif" font-size="14.00" fill="#000000">a/1.3</text>
</g>
<!-- 2 -->
<g id="node3" class="node">
<title>2</title>
<ellipse fill="none" stroke="#000000" cx="221" cy="-22" rx="18" ry="18"/>
<text text-anchor="middle" x="221" y="-18.3" font-family="Times,serif" font-size="14.00" fill="#000000">2</text>
</g>
<!-- 1&#45;&gt;2 -->
<g id="edge2" class="edge">
<title>1&#45;&gt;2</title>
<path fill="none" stroke="#000000" d="M138.0568,-22C153.187,-22 175.0552,-22 192.539,-22"/>
<polygon fill="#000000" stroke="#000000" points="192.7591,-25.5001 202.759,-22 192.759,-18.5001 192.7591,-25.5001"/>
<text text-anchor="middle" x="170.5" y="-25.8" font-family="Times,serif" font-size="14.00" fill="#000000">ε/2.5</text>
</g>
<!-- 3 -->
<g id="node4" class="node">
<title>3</title>
<ellipse fill="none" stroke="#000000" cx="314" cy="-22" rx="18" ry="18"/>
<ellipse fill="none" stroke="#000000" cx="314" cy="-22" rx="22" ry="22"/>
<text text-anchor="middle" x="314" y="-18.3" font-family="Times,serif" font-size="14.00" fill="#000000">3</text>
</g>
<!-- 2&#45;&gt;3 -->
<g id="edge3" class="edge">
<title>2&#45;&gt;3</title>
<path fill="none" stroke="#000000" d="M239.3738,-22C251.3538,-22 267.3235,-22 281.4151,-22"/>
<polygon fill="#000000" stroke="#000000" points="281.7279,-25.5001 291.7279,-22 281.7278,-18.5001 281.7279,-25.5001"/>
<text text-anchor="middle" x="265.5" y="-25.8" font-family="Times,serif" font-size="14.00" fill="#000000">b/3</text>
</g>
</g>
</svg>
