<?xml version="1.0" encoding="UTF-8" standalone="no"?>
<!DOCTYPE svg PUBLIC "-//W3C//DTD SVG 1.1//EN"
 "http://www.w3.org/Graphics/SVG/1.1/DTD/svg11.dtd">
<!-- Generated by graphviz version 2.40.1 (20161225.0304)
 -->
<!-- Title: FST Pages: 1 -->
<svg width="445pt" height="124pt"
 viewBox="0.00 0.00 445.00 124.41" xmlns="http://www.w3.org/2000/svg" xmlns:xlink="http://www.w3.org/1999/xlink">
<g id="graph0" class="graph" transform="scale(1 1) rotate(0) translate(4 120.4059)">
<title>FST</title>
<polygon fill="#ffffff" stroke="transparent" points="-4,4 -4,-120.4059 441,-120.4059 441,4 -4,4"/>
<!-- 0 -->
<g id="node1" class="node">
<title>0</title>
<ellipse fill="none" stroke="#000000" stroke-width="2" cx="18" cy="-44.4059" rx="18" ry="18"/>
<text text-anchor="middle" x="18" y="-40.7059" font-family="Times,serif" font-size="14.00" fill="#000000">(0, 0)</text>
</g>
<!-- 1 -->
<g id="node2" class="node">
<title>1</title>
<ellipse fill="none" stroke="#000000" cx="106" cy="-44.4059" rx="18" ry="18"/>
<text text-anchor="middle" x="106" y="-40.7059" font-family="Times,serif" font-size="14.00" fill="#000000">(1, 0)</text>
</g>
<!-- 0&#45;&gt;1 -->
<g id="edge1" class="edge">
<title>0&#45;&gt;1</title>
<path fill="none" stroke="#000000" d="M36.2337,-44.4059C48.1508,-44.4059 63.9616,-44.4059 77.5183,-44.4059"/>
<polygon fill="#000000" stroke="#000000" points="77.7897,-47.906 87.7897,-44.4059 77.7897,-40.906 77.7897,-47.906"/>
<text text-anchor="middle" x="62" y="-48.2059" font-family="Times,serif" font-size="14.00" fill="#000000">a/2</text>
</g>
<!-- 2 -->
<g id="node3" class="node">
<title>2</title>
<ellipse fill="none" stroke="#000000" stroke-opacity="0.200000" cx="207" cy="-98.4059" rx="18" ry="18"/>
<text text-anchor="middle" x="207" y="-94.7059" font-family="Times,serif" font-size="14.00" fill="#000000">(2, 0)</text>
</g>
<!-- 1&#45;&gt;2 -->
<g id="edge2" class="edge">
<title>1&#45;&gt;2</title>
<path fill="none" stroke="#000000" stroke-opacity="0.200000" d="M121.6933,-53.6424C127.1415,-56.7954 133.3109,-60.3062 139,-63.4059 152.9365,-70.9991 168.6835,-79.1319 181.5119,-85.6451"/>
<polygon fill="#000000" fill-opacity="0.200000" stroke="#000000" stroke-opacity="0.200000" points="180.1708,-88.8888 190.6747,-90.2742 183.3273,-82.6409 180.1708,-88.8888"/>
<text text-anchor="middle" x="156.5" y="-84.2059" font-family="Times,serif" font-size="14.00" fill="#000000">ε/2.5</text>
</g>
<!-- 3 -->
<g id="node4" class="node">
<title>3</title>
<ellipse fill="none" stroke="#000000" stroke-opacity="0.200000" cx="207" cy="-44.4059" rx="18" ry="18"/>
<text text-anchor="middle" x="207" y="-40.7059" font-family="Times,serif" font-size="14.00" fill="#000000">(1, 1)</text>
</g>
<!-- 1&#45;&gt;3 -->
<g id="edge3" class="edge">
<title>1&#45;&gt;3</title>
<path fill="none" stroke="#000000" stroke-opacity="0.200000" d="M124.0568,-44.4059C139.187,-44.4059 161.0552,-44.4059 178.539,-44.4059"/>
<polygon fill="#000000" fill-opacity="0.200000" stroke="#000000" stroke-opacity="0.200000" points="178.7591,-47.906 188.759,-44.4059 178.759,-40.906 178.7591,-47.906"/>
<text text-anchor="middle" x="156.5" y="-48.2059" font-family="Times,serif" font-size="14.00" fill="#000000">ε/1.4</text>
</g>
<!-- 4 -->
<g id="node5" class="node">
<title>4</title>
<ellipse fill="none" stroke="#000000" cx="308" cy="-44.4059" rx="18" ry="18"/>
<text text-anchor="middle" x="308" y="-40.7059" font-family="Times,serif" font-size="14.00" fill="#000000">(2, 1)</text>
</g>
<!-- 1&#45;&gt;4 -->
<g id="edge4" class="edge">
<title>1&#45;&gt;4</title>
<path fill="none" stroke="#000000" d="M121.0606,-34.0323C137.0742,-23.684 163.5521,-8.4779 189,-2.4059 223.0518,5.7191 260.9569,-12.6618 284.6385,-27.6253"/>
<polygon fill="#000000" stroke="#000000" points="283.0027,-30.7395 293.2751,-33.3336 286.8625,-24.8998 283.0027,-30.7395"/>
<text text-anchor="middle" x="207" y="-6.2059" font-family="Times,serif" font-size="14.00" fill="#000000">ε/3.9</text>
</g>
<!-- 2&#45;&gt;4 -->
<g id="edge5" class="edge">
<title>2&#45;&gt;4</title>
<path fill="none" stroke="#000000" stroke-opacity="0.200000" d="M223.3253,-90.2742C237.171,-83.3131 257.511,-72.9346 275,-63.4059 277.7557,-61.9045 280.624,-60.3066 283.4685,-58.6997"/>
<polygon fill="#000000" fill-opacity="0.200000" stroke="#000000" stroke-opacity="0.200000" points="285.3654,-61.6468 292.3067,-53.6424 281.8889,-55.5711 285.3654,-61.6468"/>
<text text-anchor="middle" x="257.5" y="-84.2059" font-family="Times,serif" font-size="14.00" fill="#000000">ε/1.4</text>
</g>
<!-- 3&#45;&gt;4 -->
<g id="edge6" class="edge">
<title>3&#45;&gt;4</title>
<path fill="none" stroke="#000000" stroke-opacity="0.200000" d="M225.0568,-44.4059C240.187,-44.4059 262.0552,-44.4059 279.539,-44.4059"/>
<polygon fill="#000000" fill-opacity="0.200000" stroke="#000000" stroke-opacity="0.200000" points="279.7591,-47.906 289.759,-44.4059 279.759,-40.906 279.7591,-47.906"/>
<text text-anchor="middle" x="257.5" y="-48.2059" font-family="Times,serif" font-size="14.00" fill="#000000">ε/2.5</text>
</g>
<!-- 5 -->
<g id="node6" class="node">
<title>5</title>
<ellipse fill="none" stroke="#000000" cx="415" cy="-44.4059" rx="18" ry="18"/>
<ellipse fill="none" stroke="#000000" cx="415" cy="-44.4059" rx="22" ry="22"/>
<text text-anchor="middle" x="415" y="-40.7059" font-family="Times,serif" font-size="14.00" fill="#000000">(3, 1)</text>
</g>
<!-- 4&#45;&gt;5 -->
<g id="edge7" class="edge">
<title>4&#45;&gt;5</title>
<path fill="none" stroke="#000000" d="M326.1511,-44.4059C341.5742,-44.4059 364.0915,-44.4059 382.5981,-44.4059"/>
<polygon fill="#000000" stroke="#000000" points="382.6711,-47.906 392.6711,-44.4059 382.671,-40.906 382.6711,-47.906"/>
<text text-anchor="middle" x="359.5" y="-48.2059" font-family="Times,serif" font-size="14.00" fill="#000000">b/6.9</text>
</g>
</g>
</svg>
