<?xml version="1.0" encoding="UTF-8" standalone="no"?>
<!DOCTYPE svg PUBLIC "-//W3C//DTD SVG 1.1//EN"
 "http://www.w3.org/Graphics/SVG/1.1/DTD/svg11.dtd">
<!-- Generated by graphviz version 2.40.1 (20161225.0304)
 -->
<!-- Title: FST Pages: 1 -->
<svg width="132pt" height="98pt"
 viewBox="0.00 0.00 132.00 98.00" xmlns="http://www.w3.org/2000/svg" xmlns:xlink="http://www.w3.org/1999/xlink">
<g id="graph0" class="graph" transform="scale(1 1) rotate(0) translate(4 94)">
<title>FST</title>
<polygon fill="#ffffff" stroke="transparent" points="-4,4 -4,-94 128,-94 128,4 -4,4"/>
<!-- 0 -->
<g id="node1" class="node">
<title>0</title>
<ellipse fill="none" stroke="#000000" cx="18" cy="-45" rx="18" ry="18"/>
<text text-anchor="middle" x="18" y="-41.3" font-family="Times,serif" font-size="14.00" fill="#000000">0</text>
</g>
<!-- 1 -->
<g id="node2" class="node">
<title>1</title>
<ellipse fill="none" stroke="#000000" cx="106" cy="-72" rx="18" ry="18"/>
<text text-anchor="middle" x="106" y="-68.3" font-family="Times,serif" font-size="14.00" fill="#000000">1</text>
</g>
<!-- 0&#45;&gt;1 -->
<g id="edge1" class="edge">
<title>0&#45;&gt;1</title>
<path fill="none" stroke="#000000" d="M35.386,-50.3343C47.8004,-54.1433 64.7424,-59.3414 78.9198,-63.6913"/>
<polygon fill="#000000" stroke="#000000" points="78.0634,-67.0895 88.6501,-66.6768 80.1167,-60.3974 78.0634,-67.0895"/>
<text text-anchor="middle" x="62" y="-64.8" font-family="Times,serif" font-size="14.00" fill="#000000">a/1</text>
</g>
<!-- 2 -->
<g id="node3" class="node">
<title>2</title>
<ellipse fill="none" stroke="#000000" cx="106" cy="-18" rx="18" ry="18"/>
<text text-anchor="middle" x="106" y="-14.3" font-family="Times,serif" font-size="14.00" fill="#000000">2</text>
</g>
<!-- 0&#45;&gt;2 -->
<g id="edge2" class="edge">
<title>0&#45;&gt;2</title>
<path fill="none" stroke="#000000" d="M35.386,-39.6657C47.8004,-35.8567 64.7424,-30.6586 78.9198,-26.3087"/>
<polygon fill="#000000" stroke="#000000" points="80.1167,-29.6026 88.6501,-23.3232 78.0634,-22.9105 80.1167,-29.6026"/>
<text text-anchor="middle" x="62" y="-37.8" font-family="Times,serif" font-size="14.00" fill="#000000">ε/2</text>
</g>
</g>
</svg>
