<?xml version="1.0" encoding="UTF-8" standalone="no"?>
<!DOCTYPE svg PUBLIC "-//W3C//DTD SVG 1.1//EN"
 "http://www.w3.org/Graphics/SVG/1.1/DTD/svg11.dtd">
<!-- Generated by graphviz version 2.40.1 (20161225.0304)
 -->
<!-- Title: FST Pages: 1 -->
<svg width="495pt" height="132pt"
 viewBox="0.00 0.00 495.00 132.00" xmlns="http://www.w3.org/2000/svg" xmlns:xlink="http://www.w3.org/1999/xlink">
<g id="graph0" class="graph" transform="scale(1 1) rotate(0) translate(4 128)">
<title>FST</title>
<polygon fill="#ffffff" stroke="transparent" points="-4,4 -4,-128 491,-128 491,4 -4,4"/>
<!-- 5 -->
<g id="node1" class="node">
<title>5</title>
<ellipse fill="none" stroke="#000000" stroke-width="2" cx="18" cy="-34" rx="18" ry="18"/>
<text text-anchor="middle" x="18" y="-30.3" font-family="Times,serif" font-size="14.00" fill="#000000">5</text>
</g>
<!-- 0 -->
<g id="node2" class="node">
<title>0</title>
<ellipse fill="none" stroke="#000000" cx="106" cy="-69" rx="18" ry="18"/>
<text text-anchor="middle" x="106" y="-65.3" font-family="Times,serif" font-size="14.00" fill="#000000">0</text>
</g>
<!-- 5&#45;&gt;0 -->
<g id="edge1" class="edge">
<title>5&#45;&gt;0</title>
<path fill="none" stroke="#000000" d="M34.9673,-40.7484C47.6283,-45.784 65.165,-52.7588 79.6455,-58.5181"/>
<polygon fill="#000000" stroke="#000000" points="78.4993,-61.8288 89.0848,-62.2724 81.0863,-55.3244 78.4993,-61.8288"/>
<text text-anchor="middle" x="62" y="-58.8" font-family="Times,serif" font-size="14.00" fill="#000000">ε/0</text>
</g>
<!-- 1 -->
<g id="node3" class="node">
<title>1</title>
<ellipse fill="none" stroke="#000000" cx="195" cy="-18" rx="18" ry="18"/>
<text text-anchor="middle" x="195" y="-14.3" font-family="Times,serif" font-size="14.00" fill="#000000">1</text>
</g>
<!-- 5&#45;&gt;1 -->
<g id="edge2" class="edge">
<title>5&#45;&gt;1</title>
<path fill="none" stroke="#000000" d="M36.1221,-32.1087C50.2501,-30.6534 70.3651,-28.6233 88,-27 114.6792,-24.5442 145.1263,-22.0092 166.7021,-20.258"/>
<polygon fill="#000000" stroke="#000000" points="167.1312,-23.7348 176.8172,-19.4416 166.568,-16.7575 167.1312,-23.7348"/>
<text text-anchor="middle" x="106" y="-30.8" font-family="Times,serif" font-size="14.00" fill="#000000">ε/0</text>
</g>
<!-- 0&#45;&gt;1 -->
<g id="edge3" class="edge">
<title>0&#45;&gt;1</title>
<path fill="none" stroke="#000000" d="M121.9114,-59.8822C135.3268,-52.1948 154.7536,-41.0625 170.2071,-32.2072"/>
<polygon fill="#000000" stroke="#000000" points="172.2901,-35.0475 179.2263,-27.0388 168.8097,-28.974 172.2901,-35.0475"/>
<text text-anchor="middle" x="150.5" y="-52.8" font-family="Times,serif" font-size="14.00" fill="#000000">b/1</text>
</g>
<!-- 2 -->
<g id="node4" class="node">
<title>2</title>
<ellipse fill="none" stroke="#000000" cx="195" cy="-91" rx="18" ry="18"/>
<text text-anchor="middle" x="195" y="-87.3" font-family="Times,serif" font-size="14.00" fill="#000000">2</text>
</g>
<!-- 0&#45;&gt;2 -->
<g id="edge4" class="edge">
<title>0&#45;&gt;2</title>
<path fill="none" stroke="#000000" d="M123.5835,-73.3465C136.139,-76.4501 153.2736,-80.6856 167.612,-84.2299"/>
<polygon fill="#000000" stroke="#000000" points="166.9053,-87.6605 177.453,-86.6625 168.5851,-80.865 166.9053,-87.6605"/>
<text text-anchor="middle" x="150.5" y="-85.8" font-family="Times,serif" font-size="14.00" fill="#000000">a/1</text>
</g>
<!-- 3 -->
<g id="node5" class="node">
<title>3</title>
<ellipse fill="none" stroke="#000000" cx="284" cy="-55" rx="18" ry="18"/>
<text text-anchor="middle" x="284" y="-51.3" font-family="Times,serif" font-size="14.00" fill="#000000">3</text>
</g>
<!-- 1&#45;&gt;3 -->
<g id="edge5" class="edge">
<title>1&#45;&gt;3</title>
<path fill="none" stroke="#000000" d="M213.0962,-18.9049C224.4183,-20.0251 239.0673,-22.5098 251,-28 255.2765,-29.9676 259.4648,-32.6238 263.3447,-35.5051"/>
<polygon fill="#000000" stroke="#000000" points="261.3074,-38.3607 271.2605,-41.9921 265.7444,-32.9465 261.3074,-38.3607"/>
<text text-anchor="middle" x="239.5" y="-31.8" font-family="Times,serif" font-size="14.00" fill="#000000">a/1</text>
</g>
<!-- 2&#45;&gt;3 -->
<g id="edge6" class="edge">
<title>2&#45;&gt;3</title>
<path fill="none" stroke="#000000" d="M212.0258,-84.9557C223.1846,-80.9108 238.0495,-75.3643 251,-70 253.3911,-69.0096 255.8656,-67.9503 258.3349,-66.8698"/>
<polygon fill="#000000" stroke="#000000" points="259.9511,-69.981 267.6462,-62.6983 257.0892,-63.5927 259.9511,-69.981"/>
<text text-anchor="middle" x="239.5" y="-82.8" font-family="Times,serif" font-size="14.00" fill="#000000">b/3</text>
</g>
<!-- 2&#45;&gt;3 -->
<g id="edge7" class="edge">
<title>2&#45;&gt;3</title>
<path fill="none" stroke="#000000" d="M203.6824,-74.6851C209.3266,-65.9135 217.5766,-55.9135 228,-51 236.7118,-46.8933 247.0416,-46.5528 256.4423,-47.683"/>
<polygon fill="#000000" stroke="#000000" points="256.0695,-51.1712 266.5255,-49.4614 257.2855,-44.2776 256.0695,-51.1712"/>
<text text-anchor="middle" x="239.5" y="-54.8" font-family="Times,serif" font-size="14.00" fill="#000000">a/1</text>
</g>
<!-- 4 -->
<g id="node6" class="node">
<title>4</title>
<ellipse fill="none" stroke="#000000" cx="373" cy="-106" rx="18" ry="18"/>
<text text-anchor="middle" x="373" y="-102.3" font-family="Times,serif" font-size="14.00" fill="#000000">4</text>
</g>
<!-- 2&#45;&gt;4 -->
<g id="edge8" class="edge">
<title>2&#45;&gt;4</title>
<path fill="none" stroke="#000000" d="M212.7351,-95.2062C217.6554,-96.2517 223.0152,-97.2784 228,-98 268.0467,-103.797 314.8722,-105.4697 344.2364,-105.9109"/>
<polygon fill="#000000" stroke="#000000" points="344.5467,-109.4145 354.585,-106.0258 344.6245,-102.4149 344.5467,-109.4145"/>
<text text-anchor="middle" x="284" y="-107.8" font-family="Times,serif" font-size="14.00" fill="#000000">c/2</text>
</g>
<!-- 3&#45;&gt;4 -->
<g id="edge9" class="edge">
<title>3&#45;&gt;4</title>
<path fill="none" stroke="#000000" d="M299.9114,-64.1178C313.3268,-71.8052 332.7536,-82.9375 348.2071,-91.7928"/>
<polygon fill="#000000" stroke="#000000" points="346.8097,-95.026 357.2263,-96.9612 350.2901,-88.9525 346.8097,-95.026"/>
<text text-anchor="middle" x="328.5" y="-89.8" font-family="Times,serif" font-size="14.00" fill="#000000">b/2</text>
</g>
<!-- 6 -->
<g id="node7" class="node">
<title>6</title>
<ellipse fill="none" stroke="#000000" cx="465" cy="-71" rx="18" ry="18"/>
<ellipse fill="none" stroke="#000000" cx="465" cy="-71" rx="22" ry="22"/>
<text text-anchor="middle" x="465" y="-67.3" font-family="Times,serif" font-size="14.00" fill="#000000">6</text>
</g>
<!-- 3&#45;&gt;6 -->
<g id="edge10" class="edge">
<title>3&#45;&gt;6</title>
<path fill="none" stroke="#000000" d="M302.1801,-56.4712C323.4729,-58.2078 359.8057,-61.2128 391,-64 404.6567,-65.2202 419.7243,-66.6334 432.6792,-67.8691"/>
<polygon fill="#000000" stroke="#000000" points="432.6987,-71.3869 442.9871,-68.8573 433.3667,-64.4189 432.6987,-71.3869"/>
<text text-anchor="middle" x="373" y="-67.8" font-family="Times,serif" font-size="14.00" fill="#000000">ε/0</text>
</g>
<!-- 4&#45;&gt;6 -->
<g id="edge11" class="edge">
<title>4&#45;&gt;6</title>
<path fill="none" stroke="#000000" d="M389.8742,-99.5805C402.4699,-94.7886 420.0151,-88.1138 434.9823,-82.4198"/>
<polygon fill="#000000" stroke="#000000" points="436.2658,-85.6763 444.3677,-78.8492 433.7767,-79.1338 436.2658,-85.6763"/>
<text text-anchor="middle" x="417" y="-95.8" font-family="Times,serif" font-size="14.00" fill="#000000">ε/0</text>
</g>
</g>
</svg>
