<?xml version="1.0" encoding="UTF-8" standalone="no"?>
<!DOCTYPE svg PUBLIC "-//W3C//DTD SVG 1.1//EN"
 "http://www.w3.org/Graphics/SVG/1.1/DTD/svg11.dtd">
<!-- Generated by graphviz version 2.40.1 (20161225.0304)
 -->
<!-- Title: FST Pages: 1 -->
<svg width="153pt" height="85pt"
 viewBox="0.00 0.00 153.00 85.00" xmlns="http://www.w3.org/2000/svg" xmlns:xlink="http://www.w3.org/1999/xlink">
<g id="graph0" class="graph" transform="scale(1 1) rotate(0) translate(4 81)">
<title>FST</title>
<polygon fill="#ffffff" stroke="transparent" points="-4,4 -4,-81 149,-81 149,4 -4,4"/>
<!-- 0 -->
<g id="node1" class="node">
<title>0</title>
<ellipse fill="none" stroke="#000000" stroke-width="2" cx="18" cy="-22" rx="18" ry="18"/>
<text text-anchor="middle" x="18" y="-18.3" font-family="Times,serif" font-size="14.00" fill="#000000">0</text>
</g>
<!-- 0&#45;&gt;0 -->
<g id="edge1" class="edge">
<title>0&#45;&gt;0</title>
<path fill="none" stroke="#000000" d="M9.3666,-37.916C7.1144,-48.1504 9.9922,-58 18,-58 23.2551,-58 26.3009,-53.7581 27.1375,-47.9494"/>
<polygon fill="#000000" stroke="#000000" points="30.6308,-47.7278 26.6334,-37.916 23.6396,-48.0791 30.6308,-47.7278"/>
<text text-anchor="middle" x="18" y="-61.8" font-family="Times,serif" font-size="14.00" fill="#000000">a/0.7</text>
</g>
<!-- 1 -->
<g id="node2" class="node">
<title>1</title>
<ellipse fill="none" stroke="#000000" cx="123" cy="-22" rx="18" ry="18"/>
<ellipse fill="none" stroke="#000000" cx="123" cy="-22" rx="22" ry="22"/>
<text text-anchor="middle" x="123" y="-18.3" font-family="Times,serif" font-size="14.00" fill="#000000">1</text>
</g>
<!-- 0&#45;&gt;1 -->
<g id="edge2" class="edge">
<title>0&#45;&gt;1</title>
<path fill="none" stroke="#000000" d="M36.2896,-22C51.3193,-22 72.9744,-22 90.8833,-22"/>
<polygon fill="#000000" stroke="#000000" points="90.9166,-25.5001 100.9166,-22 90.9165,-18.5001 90.9166,-25.5001"/>
<text text-anchor="middle" x="68.5" y="-25.8" font-family="Times,serif" font-size="14.00" fill="#000000">ε/1.4</text>
</g>
<!-- 1&#45;&gt;1 -->
<g id="edge3" class="edge">
<title>1&#45;&gt;1</title>
<path fill="none" stroke="#000000" d="M113.2928,-41.7575C111.6432,-52.3499 114.8789,-62 123,-62 128.3295,-62 131.555,-57.8441 132.6766,-51.9932"/>
<polygon fill="#000000" stroke="#000000" points="136.1772,-51.768 132.7072,-41.7575 129.1772,-51.7469 136.1772,-51.768"/>
<text text-anchor="middle" x="123" y="-65.8" font-family="Times,serif" font-size="14.00" fill="#000000">b/3.9</text>
</g>
</g>
</svg>
