<?xml version="1.0" encoding="UTF-8" standalone="no"?>
<!DOCTYPE svg PUBLIC "-//W3C//DTD SVG 1.1//EN"
 "http://www.w3.org/Graphics/SVG/1.1/DTD/svg11.dtd">
<!-- Generated by graphviz version 2.40.1 (20161225.0304)
 -->
<!-- Title: FST Pages: 1 -->
<svg width="237pt" height="116pt"
 viewBox="0.00 0.00 237.00 116.00" xmlns="http://www.w3.org/2000/svg" xmlns:xlink="http://www.w3.org/1999/xlink">
<g id="graph0" class="graph" transform="scale(1 1) rotate(0) translate(4 112)">
<title>FST</title>
<polygon fill="#ffffff" stroke="transparent" points="-4,4 -4,-112 233,-112 233,4 -4,4"/>
<!-- 2 -->
<g id="node1" class="node">
<title>2</title>
<ellipse fill="none" stroke="#000000" stroke-width="2" cx="22" cy="-22" rx="18" ry="18"/>
<ellipse fill="none" stroke="#000000" stroke-width="2" cx="22" cy="-22" rx="22" ry="22"/>
<text text-anchor="middle" x="22" y="-18.3" font-family="Times,serif" font-size="14.00" fill="#000000">2</text>
</g>
<!-- 0 -->
<g id="node2" class="node">
<title>0</title>
<ellipse fill="none" stroke="#000000" cx="114" cy="-57" rx="18" ry="18"/>
<text text-anchor="middle" x="114" y="-53.3" font-family="Times,serif" font-size="14.00" fill="#000000">0</text>
</g>
<!-- 2&#45;&gt;0 -->
<g id="edge1" class="edge">
<title>2&#45;&gt;0</title>
<path fill="none" stroke="#000000" d="M42.8762,-29.942C56.0157,-34.9408 73.1004,-41.4404 87.2318,-46.8164"/>
<polygon fill="#000000" stroke="#000000" points="86.31,-50.2104 96.901,-50.495 88.7991,-43.6679 86.31,-50.2104"/>
<text text-anchor="middle" x="70" y="-46.8" font-family="Times,serif" font-size="14.00" fill="#000000">ε/0</text>
</g>
<!-- 0&#45;&gt;0 -->
<g id="edge2" class="edge">
<title>0&#45;&gt;0</title>
<path fill="none" stroke="#000000" d="M106.3321,-73.2903C104.4831,-83.3892 107.0391,-93 114,-93 118.4594,-93 121.1109,-89.0557 121.9546,-83.5656"/>
<polygon fill="#000000" stroke="#000000" points="125.4456,-83.1887 121.6679,-73.2903 118.4483,-83.384 125.4456,-83.1887"/>
<text text-anchor="middle" x="114" y="-96.8" font-family="Times,serif" font-size="14.00" fill="#000000">a/0</text>
</g>
<!-- 1 -->
<g id="node3" class="node">
<title>1</title>
<ellipse fill="none" stroke="#000000" cx="207" cy="-22" rx="18" ry="18"/>
<ellipse fill="none" stroke="#000000" cx="207" cy="-22" rx="22" ry="22"/>
<text text-anchor="middle" x="207" y="-18.3" font-family="Times,serif" font-size="14.00" fill="#000000">1</text>
</g>
<!-- 0&#45;&gt;1 -->
<g id="edge3" class="edge">
<title>0&#45;&gt;1</title>
<path fill="none" stroke="#000000" d="M131.0576,-50.5805C143.7903,-45.7886 161.5261,-39.1138 176.656,-33.4198"/>
<polygon fill="#000000" stroke="#000000" points="178.0171,-36.6473 186.1435,-29.8492 175.5515,-30.0959 178.0171,-36.6473"/>
<text text-anchor="middle" x="158.5" y="-46.8" font-family="Times,serif" font-size="14.00" fill="#000000">b/0</text>
</g>
<!-- 1&#45;&gt;2 -->
<g id="edge4" class="edge">
<title>1&#45;&gt;2</title>
<path fill="none" stroke="#000000" d="M185.0499,-19.4088C170.1177,-17.7795 149.8967,-15.8334 132,-15 116.0173,-14.2558 111.9822,-14.2458 96,-15 82.3041,-15.6463 67.2299,-16.962 54.2806,-18.28"/>
<polygon fill="#000000" stroke="#000000" points="53.5547,-14.8373 43.9799,-19.373 54.2934,-21.7982 53.5547,-14.8373"/>
<text text-anchor="middle" x="114" y="-18.8" font-family="Times,serif" font-size="14.00" fill="#000000">ε/0</text>
</g>
</g>
</svg>
