<?xml version="1.0" encoding="UTF-8" standalone="no"?>
<!DOCTYPE svg PUBLIC "-//W3C//DTD SVG 1.1//EN"
 "http://www.w3.org/Graphics/SVG/1.1/DTD/svg11.dtd">
<!-- Generated by graphviz version 2.40.1 (20161225.0304)
 -->
<!-- Title: FST Pages: 1 -->
<svg width="325pt" height="78pt"
 viewBox="0.00 0.00 325.00 78.00" xmlns="http://www.w3.org/2000/svg" xmlns:xlink="http://www.w3.org/1999/xlink">
<g id="graph0" class="graph" transform="scale(1 1) rotate(0) translate(4 74)">
<title>FST</title>
<polygon fill="#ffffff" stroke="transparent" points="-4,4 -4,-74 321,-74 321,4 -4,4"/>
<!-- 0 -->
<g id="node1" class="node">
<title>0</title>
<ellipse fill="none" stroke="#000000" stroke-width="2" cx="22" cy="-22" rx="18" ry="18"/>
<ellipse fill="none" stroke="#000000" stroke-width="2" cx="22" cy="-22" rx="22" ry="22"/>
<text text-anchor="middle" x="22" y="-18.3" font-family="Times,serif" font-size="14.00" fill="#000000">0</text>
</g>
<!-- 1 -->
<g id="node2" class="node">
<title>1</title>
<ellipse fill="none" stroke="#000000" cx="114" cy="-52" rx="18" ry="18"/>
<text text-anchor="middle" x="114" y="-48.3" font-family="Times,serif" font-size="14.00" fill="#000000">1</text>
</g>
<!-- 0&#45;&gt;1 -->
<g id="edge1" class="edge">
<title>0&#45;&gt;1</title>
<path fill="none" stroke="#000000" d="M43.3379,-28.958C56.4084,-33.2201 73.2504,-38.7121 87.2133,-43.2652"/>
<polygon fill="#000000" stroke="#000000" points="86.1841,-46.6109 96.7765,-46.3836 88.3543,-39.9558 86.1841,-46.6109"/>
<text text-anchor="middle" x="70" y="-43.8" font-family="Times,serif" font-size="14.00" fill="#000000">a/0</text>
</g>
<!-- 2 -->
<g id="node3" class="node">
<title>2</title>
<ellipse fill="none" stroke="#000000" cx="203" cy="-52" rx="18" ry="18"/>
<text text-anchor="middle" x="203" y="-48.3" font-family="Times,serif" font-size="14.00" fill="#000000">2</text>
</g>
<!-- 1&#45;&gt;2 -->
<g id="edge2" class="edge">
<title>1&#45;&gt;2</title>
<path fill="none" stroke="#000000" d="M132.0105,-52C144.2342,-52 160.6505,-52 174.6176,-52"/>
<polygon fill="#000000" stroke="#000000" points="174.7109,-55.5001 184.7108,-52 174.7108,-48.5001 174.7109,-55.5001"/>
<text text-anchor="middle" x="158.5" y="-55.8" font-family="Times,serif" font-size="14.00" fill="#000000">b/0</text>
</g>
<!-- 3 -->
<g id="node4" class="node">
<title>3</title>
<ellipse fill="none" stroke="#000000" cx="295" cy="-22" rx="18" ry="18"/>
<ellipse fill="none" stroke="#000000" cx="295" cy="-22" rx="22" ry="22"/>
<text text-anchor="middle" x="295" y="-18.3" font-family="Times,serif" font-size="14.00" fill="#000000">3</text>
</g>
<!-- 2&#45;&gt;3 -->
<g id="edge3" class="edge">
<title>2&#45;&gt;3</title>
<path fill="none" stroke="#000000" d="M220.3045,-46.3572C232.6536,-42.3303 249.5967,-36.8054 264.2247,-32.0354"/>
<polygon fill="#000000" stroke="#000000" points="265.4747,-35.3093 273.8969,-28.8814 263.3045,-28.6541 265.4747,-35.3093"/>
<text text-anchor="middle" x="247" y="-43.8" font-family="Times,serif" font-size="14.00" fill="#000000">a/0</text>
</g>
<!-- 3&#45;&gt;0 -->
<g id="edge4" class="edge">
<title>3&#45;&gt;0</title>
<path fill="none" stroke="#000000" d="M272.7334,-22C224.5884,-22 110.6238,-22 54.4488,-22"/>
<polygon fill="#000000" stroke="#000000" points="54.3408,-18.5001 44.3407,-22 54.3407,-25.5001 54.3408,-18.5001"/>
<text text-anchor="middle" x="158.5" y="-25.8" font-family="Times,serif" font-size="14.00" fill="#000000">ε/0</text>
</g>
</g>
</svg>
