<?xml version="1.0" encoding="UTF-8" standalone="no"?>
<!DOCTYPE svg PUBLIC "-//W3C//DTD SVG 1.1//EN"
 "http://www.w3.org/Graphics/SVG/1.1/DTD/svg11.dtd">
<!-- Generated by graphviz version 2.40.1 (20161225.0304)
 -->
<!-- Title: FST Pages: 1 -->
<svg width="229pt" height="52pt"
 viewBox="0.00 0.00 229.00 52.00" xmlns="http://www.w3.org/2000/svg" xmlns:xlink="http://www.w3.org/1999/xlink">
<g id="graph0" class="graph" transform="scale(1 1) rotate(0) translate(4 48)">
<title>FST</title>
<polygon fill="#ffffff" stroke="transparent" points="-4,4 -4,-48 225,-48 225,4 -4,4"/>
<!-- 0 -->
<g id="node1" class="node">
<title>0</title>
<ellipse fill="none" stroke="#000000" stroke-width="2" cx="18" cy="-22" rx="18" ry="18"/>
<text text-anchor="middle" x="18" y="-18.3" font-family="Times,serif" font-size="14.00" fill="#000000">0</text>
</g>
<!-- 1 -->
<g id="node2" class="node">
<title>1</title>
<ellipse fill="none" stroke="#000000" cx="106" cy="-22" rx="18" ry="18"/>
<text text-anchor="middle" x="106" y="-18.3" font-family="Times,serif" font-size="14.00" fill="#000000">1</text>
</g>
<!-- 0&#45;&gt;1 -->
<g id="edge1" class="edge">
<title>0&#45;&gt;1</title>
<path fill="none" stroke="#000000" d="M36.2337,-22C48.1508,-22 63.9616,-22 77.5183,-22"/>
<polygon fill="#000000" stroke="#000000" points="77.7897,-25.5001 87.7897,-22 77.7897,-18.5001 77.7897,-25.5001"/>
<text text-anchor="middle" x="62" y="-25.8" font-family="Times,serif" font-size="14.00" fill="#000000">a/0</text>
</g>
<!-- 0&#45;&gt;1 -->
<g id="edge2" class="edge">
<title>0&#45;&gt;1</title>
<path fill="none" stroke="#000000" d="M32.7129,-11.3344C38.1808,-7.9798 44.6133,-4.7072 51,-3 60.4461,-.475 63.5539,-.475 73,-3 76.1933,-3.8536 79.3981,-5.0986 82.4881,-6.5494"/>
<polygon fill="#000000" stroke="#000000" points="80.83,-9.6318 91.2871,-11.3344 84.1742,-3.4822 80.83,-9.6318"/>
<text text-anchor="middle" x="62" y="-6.8" font-family="Times,serif" font-size="14.00" fill="#000000">ε/0</text>
</g>
<!-- 2 -->
<g id="node3" class="node">
<title>2</title>
<ellipse fill="none" stroke="#000000" cx="199" cy="-22" rx="18" ry="18"/>
<ellipse fill="none" stroke="#000000" cx="199" cy="-22" rx="22" ry="22"/>
<text text-anchor="middle" x="199" y="-18.3" font-family="Times,serif" font-size="14.00" fill="#000000">2</text>
</g>
<!-- 1&#45;&gt;2 -->
<g id="edge3" class="edge">
<title>1&#45;&gt;2</title>
<path fill="none" stroke="#000000" d="M124.3738,-22C136.3538,-22 152.3235,-22 166.4151,-22"/>
<polygon fill="#000000" stroke="#000000" points="166.7279,-25.5001 176.7279,-22 166.7278,-18.5001 166.7279,-25.5001"/>
<text text-anchor="middle" x="150.5" y="-25.8" font-family="Times,serif" font-size="14.00" fill="#000000">b/0</text>
</g>
</g>
</svg>
