<?xml version="1.0" encoding="UTF-8" standalone="no"?>
<!DOCTYPE svg PUBLIC "-//W3C//DTD SVG 1.1//EN"
 "http://www.w3.org/Graphics/SVG/1.1/DTD/svg11.dtd">
<!-- Generated by graphviz version 2.40.1 (20161225.0304)
 -->
<!-- Title: FST Pages: 1 -->
<svg width="413pt" height="83pt"
 viewBox="0.00 0.00 413.00 83.00" xmlns="http://www.w3.org/2000/svg" xmlns:xlink="http://www.w3.org/1999/xlink">
<g id="graph0" class="graph" transform="scale(1 1) rotate(0) translate(4 79)">
<title>FST</title>
<polygon fill="#ffffff" stroke="transparent" points="-4,4 -4,-79 409,-79 409,4 -4,4"/>
<!-- 4 -->
<g id="node1" class="node">
<title>4</title>
<ellipse fill="none" stroke="#000000" stroke-width="2" cx="22" cy="-22" rx="18" ry="18"/>
<ellipse fill="none" stroke="#000000" stroke-width="2" cx="22" cy="-22" rx="22" ry="22"/>
<text text-anchor="middle" x="22" y="-18.3" font-family="Times,serif" font-size="14.00" fill="#000000">4</text>
</g>
<!-- 0 -->
<g id="node2" class="node">
<title>0</title>
<ellipse fill="none" stroke="#000000" cx="114" cy="-53" rx="18" ry="18"/>
<text text-anchor="middle" x="114" y="-49.3" font-family="Times,serif" font-size="14.00" fill="#000000">0</text>
</g>
<!-- 4&#45;&gt;0 -->
<g id="edge1" class="edge">
<title>4&#45;&gt;0</title>
<path fill="none" stroke="#000000" d="M42.8762,-29.0344C56.0157,-33.4618 73.1004,-39.2186 87.2318,-43.9803"/>
<polygon fill="#000000" stroke="#000000" points="86.3069,-47.3619 96.901,-47.2384 88.5422,-40.7284 86.3069,-47.3619"/>
<text text-anchor="middle" x="70" y="-44.8" font-family="Times,serif" font-size="14.00" fill="#000000">ε/0</text>
</g>
<!-- 1 -->
<g id="node3" class="node">
<title>1</title>
<ellipse fill="none" stroke="#000000" cx="202" cy="-57" rx="18" ry="18"/>
<text text-anchor="middle" x="202" y="-53.3" font-family="Times,serif" font-size="14.00" fill="#000000">1</text>
</g>
<!-- 0&#45;&gt;1 -->
<g id="edge2" class="edge">
<title>0&#45;&gt;1</title>
<path fill="none" stroke="#000000" d="M132.2337,-53.8288C144.1508,-54.3705 159.9616,-55.0892 173.5183,-55.7054"/>
<polygon fill="#000000" stroke="#000000" points="173.6411,-59.2145 183.7897,-56.1723 173.959,-52.2217 173.6411,-59.2145"/>
<text text-anchor="middle" x="158" y="-58.8" font-family="Times,serif" font-size="14.00" fill="#000000">a/0</text>
</g>
<!-- 2 -->
<g id="node4" class="node">
<title>2</title>
<ellipse fill="none" stroke="#000000" cx="291" cy="-54" rx="18" ry="18"/>
<text text-anchor="middle" x="291" y="-50.3" font-family="Times,serif" font-size="14.00" fill="#000000">2</text>
</g>
<!-- 1&#45;&gt;2 -->
<g id="edge3" class="edge">
<title>1&#45;&gt;2</title>
<path fill="none" stroke="#000000" d="M220.0105,-56.3929C232.2342,-55.9809 248.6505,-55.4275 262.6176,-54.9567"/>
<polygon fill="#000000" stroke="#000000" points="262.8345,-58.4515 272.7108,-54.6165 262.5986,-51.4555 262.8345,-58.4515"/>
<text text-anchor="middle" x="246.5" y="-58.8" font-family="Times,serif" font-size="14.00" fill="#000000">b/0</text>
</g>
<!-- 3 -->
<g id="node5" class="node">
<title>3</title>
<ellipse fill="none" stroke="#000000" cx="383" cy="-22" rx="18" ry="18"/>
<ellipse fill="none" stroke="#000000" cx="383" cy="-22" rx="22" ry="22"/>
<text text-anchor="middle" x="383" y="-18.3" font-family="Times,serif" font-size="14.00" fill="#000000">3</text>
</g>
<!-- 2&#45;&gt;3 -->
<g id="edge4" class="edge">
<title>2&#45;&gt;3</title>
<path fill="none" stroke="#000000" d="M308.3045,-47.981C320.6536,-43.6857 337.5967,-37.7924 352.2247,-32.7045"/>
<polygon fill="#000000" stroke="#000000" points="353.6018,-35.9312 361.8969,-29.3402 351.3021,-29.3197 353.6018,-35.9312"/>
<text text-anchor="middle" x="335" y="-44.8" font-family="Times,serif" font-size="14.00" fill="#000000">a/0</text>
</g>
<!-- 3&#45;&gt;4 -->
<g id="edge5" class="edge">
<title>3&#45;&gt;4</title>
<path fill="none" stroke="#000000" d="M361.6197,-16.133C343.0895,-11.5667 315.4801,-6 291,-6 114,-6 114,-6 114,-6 93.5362,-6 70.8856,-9.8899 53.1798,-13.8338"/>
<polygon fill="#000000" stroke="#000000" points="52.3164,-10.4412 43.3803,-16.133 53.9154,-17.2561 52.3164,-10.4412"/>
<text text-anchor="middle" x="202" y="-9.8" font-family="Times,serif" font-size="14.00" fill="#000000">ε/0</text>
</g>
</g>
</svg>
