<?xml version="1.0" encoding="UTF-8" standalone="no"?>
<!DOCTYPE svg PUBLIC "-//W3C//DTD SVG 1.1//EN"
 "http://www.w3.org/Graphics/SVG/1.1/DTD/svg11.dtd">
<!-- Generated by graphviz version 2.40.1 (20161225.0304)
 -->
<!-- Title: FST Pages: 1 -->
<svg width="230pt" height="98pt"
 viewBox="0.00 0.00 230.00 98.00" xmlns="http://www.w3.org/2000/svg" xmlns:xlink="http://www.w3.org/1999/xlink">
<g id="graph0" class="graph" transform="scale(1 1) rotate(0) translate(4 94)">
<title>FST</title>
<polygon fill="#ffffff" stroke="transparent" points="-4,4 -4,-94 226,-94 226,4 -4,4"/>
<!-- 0 -->
<g id="node1" class="node">
<title>0</title>
<ellipse fill="none" stroke="#000000" stroke-width="2" cx="18" cy="-39" rx="18" ry="18"/>
<text text-anchor="middle" x="18" y="-35.3" font-family="Times,serif" font-size="14.00" fill="#000000">0</text>
</g>
<!-- 0&#45;&gt;0 -->
<g id="edge1" class="edge">
<title>0&#45;&gt;0</title>
<path fill="none" stroke="#000000" d="M10.3321,-55.2903C8.4831,-65.3892 11.0391,-75 18,-75 22.4594,-75 25.1109,-71.0557 25.9546,-65.5656"/>
<polygon fill="#000000" stroke="#000000" points="29.4456,-65.1887 25.6679,-55.2903 22.4483,-65.384 29.4456,-65.1887"/>
<text text-anchor="middle" x="18" y="-78.8" font-family="Times,serif" font-size="14.00" fill="#000000">a/0</text>
</g>
<!-- 1 -->
<g id="node2" class="node">
<title>1</title>
<ellipse fill="none" stroke="#000000" cx="107" cy="-57" rx="18" ry="18"/>
<text text-anchor="middle" x="107" y="-53.3" font-family="Times,serif" font-size="14.00" fill="#000000">1</text>
</g>
<!-- 0&#45;&gt;1 -->
<g id="edge2" class="edge">
<title>0&#45;&gt;1</title>
<path fill="none" stroke="#000000" d="M33.6071,-48.21C38.9444,-50.9073 45.0681,-53.5259 51,-55 59.8895,-57.2091 69.8154,-58.0638 78.8127,-58.2615"/>
<polygon fill="#000000" stroke="#000000" points="78.8403,-61.7615 88.8305,-58.2335 78.8208,-54.7615 78.8403,-61.7615"/>
<text text-anchor="middle" x="62.5" y="-61.8" font-family="Times,serif" font-size="14.00" fill="#000000">b/0</text>
</g>
<!-- 0&#45;&gt;1 -->
<g id="edge3" class="edge">
<title>0&#45;&gt;1</title>
<path fill="none" stroke="#000000" d="M35.7499,-35.0805C46.9379,-33.3308 61.5673,-32.3796 74,-36 77.4291,-36.9986 80.8421,-38.4732 84.1008,-40.1861"/>
<polygon fill="#000000" stroke="#000000" points="82.3979,-43.2468 92.7617,-45.4472 86.0321,-37.2641 82.3979,-43.2468"/>
<text text-anchor="middle" x="62.5" y="-39.8" font-family="Times,serif" font-size="14.00" fill="#000000">c/0</text>
</g>
<!-- 2 -->
<g id="node3" class="node">
<title>2</title>
<ellipse fill="none" stroke="#000000" cx="200" cy="-22" rx="18" ry="18"/>
<ellipse fill="none" stroke="#000000" cx="200" cy="-22" rx="22" ry="22"/>
<text text-anchor="middle" x="200" y="-18.3" font-family="Times,serif" font-size="14.00" fill="#000000">2</text>
</g>
<!-- 1&#45;&gt;2 -->
<g id="edge4" class="edge">
<title>1&#45;&gt;2</title>
<path fill="none" stroke="#000000" d="M124.0576,-50.5805C136.7903,-45.7886 154.5261,-39.1138 169.656,-33.4198"/>
<polygon fill="#000000" stroke="#000000" points="171.0171,-36.6473 179.1435,-29.8492 168.5515,-30.0959 171.0171,-36.6473"/>
<text text-anchor="middle" x="151.5" y="-46.8" font-family="Times,serif" font-size="14.00" fill="#000000">b/0</text>
</g>
<!-- 2&#45;&gt;0 -->
<g id="edge5" class="edge">
<title>2&#45;&gt;0</title>
<path fill="none" stroke="#000000" d="M178.1605,-17.7395C155.6702,-14.0248 119.6757,-9.9556 89,-15 73.6532,-17.5237 57.1589,-22.923 43.9345,-27.9623"/>
<polygon fill="#000000" stroke="#000000" points="42.5369,-24.7513 34.5322,-31.6922 45.1181,-31.2581 42.5369,-24.7513"/>
<text text-anchor="middle" x="107" y="-18.8" font-family="Times,serif" font-size="14.00" fill="#000000">b/0</text>
</g>
</g>
</svg>
