<?xml version="1.0" encoding="UTF-8" standalone="no"?>
<!DOCTYPE svg PUBLIC "-//W3C//DTD SVG 1.1//EN"
 "http://www.w3.org/Graphics/SVG/1.1/DTD/svg11.dtd">
<!-- Generated by graphviz version 2.40.1 (20161225.0304)
 -->
<!-- Title: FST Pages: 1 -->
<svg width="141pt" height="81pt"
 viewBox="0.00 0.00 141.00 81.00" xmlns="http://www.w3.org/2000/svg" xmlns:xlink="http://www.w3.org/1999/xlink">
<g id="graph0" class="graph" transform="scale(1 1) rotate(0) translate(4 77)">
<title>FST</title>
<polygon fill="#ffffff" stroke="transparent" points="-4,4 -4,-77 137,-77 137,4 -4,4"/>
<!-- 0 -->
<g id="node1" class="node">
<title>0</title>
<ellipse fill="none" stroke="#000000" stroke-width="2" cx="18" cy="-22" rx="18" ry="18"/>
<text text-anchor="middle" x="18" y="-18.3" font-family="Times,serif" font-size="14.00" fill="#000000">0</text>
</g>
<!-- 0&#45;&gt;0 -->
<g id="edge1" class="edge">
<title>0&#45;&gt;0</title>
<path fill="none" stroke="#000000" d="M10.3321,-38.2903C8.4831,-48.3892 11.0391,-58 18,-58 22.4594,-58 25.1109,-54.0557 25.9546,-48.5656"/>
<polygon fill="#000000" stroke="#000000" points="29.4456,-48.1887 25.6679,-38.2903 22.4483,-48.384 29.4456,-48.1887"/>
<text text-anchor="middle" x="18" y="-61.8" font-family="Times,serif" font-size="14.00" fill="#000000">a/0</text>
</g>
<!-- 1 -->
<g id="node2" class="node">
<title>1</title>
<ellipse fill="none" stroke="#000000" cx="111" cy="-22" rx="18" ry="18"/>
<ellipse fill="none" stroke="#000000" cx="111" cy="-22" rx="22" ry="22"/>
<text text-anchor="middle" x="111" y="-18.3" font-family="Times,serif" font-size="14.00" fill="#000000">1</text>
</g>
<!-- 0&#45;&gt;1 -->
<g id="edge2" class="edge">
<title>0&#45;&gt;1</title>
<path fill="none" stroke="#000000" d="M36.3738,-22C48.3538,-22 64.3235,-22 78.4151,-22"/>
<polygon fill="#000000" stroke="#000000" points="78.7279,-25.5001 88.7279,-22 78.7278,-18.5001 78.7279,-25.5001"/>
<text text-anchor="middle" x="62.5" y="-25.8" font-family="Times,serif" font-size="14.00" fill="#000000">b/0</text>
</g>
</g>
</svg>
