<?xml version="1.0" encoding="UTF-8" standalone="no"?>
<!DOCTYPE svg PUBLIC "-//W3C//DTD SVG 1.1//EN"
 "http://www.w3.org/Graphics/SVG/1.1/DTD/svg11.dtd">
<!-- Generated by graphviz version 2.40.1 (20161225.0304)
 -->
<!-- Title: FST Pages: 1 -->
<svg width="149pt" height="85pt"
 viewBox="0.00 0.00 149.00 85.00" xmlns="http://www.w3.org/2000/svg" xmlns:xlink="http://www.w3.org/1999/xlink">
<g id="graph0" class="graph" transform="scale(1 1) rotate(0) translate(4 81)">
<title>FST</title>
<polygon fill="#ffffff" stroke="transparent" points="-4,4 -4,-81 145,-81 145,4 -4,4"/>
<!-- 0 -->
<g id="node1" class="node">
<title>0</title>
<ellipse fill="none" stroke="#000000" stroke-width="2" cx="22" cy="-22" rx="18" ry="18"/>
<ellipse fill="none" stroke="#000000" stroke-width="2" cx="22" cy="-22" rx="22" ry="22"/>
<text text-anchor="middle" x="22" y="-18.3" font-family="Times,serif" font-size="14.00" fill="#000000">0</text>
</g>
<!-- 0&#45;&gt;0 -->
<g id="edge1" class="edge">
<title>0&#45;&gt;0</title>
<path fill="none" stroke="#000000" d="M13.2659,-42.5808C12.0574,-52.8447 14.9688,-62 22,-62 26.5044,-62 29.318,-58.2427 30.4408,-52.8436"/>
<polygon fill="#000000" stroke="#000000" points="33.9469,-52.6768 30.7341,-42.5808 26.9498,-52.4767 33.9469,-52.6768"/>
<text text-anchor="middle" x="22" y="-65.8" font-family="Times,serif" font-size="14.00" fill="#000000">a/0</text>
</g>
<!-- 1 -->
<g id="node2" class="node">
<title>1</title>
<ellipse fill="none" stroke="#000000" cx="119" cy="-22" rx="18" ry="18"/>
<ellipse fill="none" stroke="#000000" cx="119" cy="-22" rx="22" ry="22"/>
<text text-anchor="middle" x="119" y="-18.3" font-family="Times,serif" font-size="14.00" fill="#000000">1</text>
</g>
<!-- 0&#45;&gt;1 -->
<g id="edge2" class="edge">
<title>0&#45;&gt;1</title>
<path fill="none" stroke="#000000" d="M44.0108,-22C56.5718,-22 72.5523,-22 86.531,-22"/>
<polygon fill="#000000" stroke="#000000" points="86.7406,-25.5001 96.7405,-22 86.7405,-18.5001 86.7406,-25.5001"/>
<text text-anchor="middle" x="70.5" y="-25.8" font-family="Times,serif" font-size="14.00" fill="#000000">b/0</text>
</g>
<!-- 1&#45;&gt;0 -->
<g id="edge3" class="edge">
<title>1&#45;&gt;0</title>
<path fill="none" stroke="#000000" d="M100.0905,-10.121C94.4789,-7.2049 88.1766,-4.4932 82,-3 72.064,-.598 68.936,-.598 59,-3 56.0082,-3.7233 52.9869,-4.7324 50.0289,-5.9122"/>
<polygon fill="#000000" stroke="#000000" points="48.5225,-2.7527 40.9095,-10.121 51.4558,-9.1084 48.5225,-2.7527"/>
<text text-anchor="middle" x="70.5" y="-6.8" font-family="Times,serif" font-size="14.00" fill="#000000">ε/0</text>
</g>
</g>
</svg>
