<?xml version="1.0" encoding="UTF-8" standalone="no"?>
<!DOCTYPE svg PUBLIC "-//W3C//DTD SVG 1.1//EN"
 "http://www.w3.org/Graphics/SVG/1.1/DTD/svg11.dtd">
<!-- Generated by graphviz version 2.40.1 (20161225.0304)
 -->
<!-- Title: FST Pages: 1 -->
<svg width="434pt" height="297pt"
 viewBox="0.00 0.00 434.49 297.00" xmlns="http://www.w3.org/2000/svg" xmlns:xlink="http://www.w3.org/1999/xlink">
<g id="graph0" class="graph" transform="scale(1 1) rotate(0) translate(4 293)">
<title>FST</title>
<polygon fill="#ffffff" stroke="transparent" points="-4,4 -4,-293 430.4879,-293 430.4879,4 -4,4"/>
<!-- 0 -->
<g id="node1" class="node">
<title>0</title>
<ellipse fill="none" stroke="#000000" stroke-width="2" cx="22" cy="-158" rx="18" ry="18"/>
<ellipse fill="none" stroke="#000000" stroke-width="2" cx="22" cy="-158" rx="22" ry="22"/>
<text text-anchor="middle" x="22" y="-154.3" font-family="Times,serif" font-size="14.00" fill="#000000">0</text>
</g>
<!-- 1 -->
<g id="node2" class="node">
<title>1</title>
<ellipse fill="none" stroke="#000000" cx="114" cy="-268" rx="18" ry="18"/>
<text text-anchor="middle" x="114" y="-264.3" font-family="Times,serif" font-size="14.00" fill="#000000">1</text>
</g>
<!-- 0&#45;&gt;1 -->
<g id="edge1" class="edge">
<title>0&#45;&gt;1</title>
<path fill="none" stroke="#000000" d="M28.6644,-179.2343C34.6171,-195.6226 44.6309,-218.1072 59,-234 67.185,-243.053 78.3375,-250.5487 88.4608,-256.1772"/>
<polygon fill="#000000" stroke="#000000" points="86.8682,-259.294 97.3537,-260.8123 90.1037,-253.0865 86.8682,-259.294"/>
<text text-anchor="middle" x="70" y="-254.8" font-family="Times,serif" font-size="14.00" fill="#000000">ε/0</text>
</g>
<!-- 5 -->
<g id="node3" class="node">
<title>5</title>
<ellipse fill="none" stroke="#000000" cx="114" cy="-121" rx="18" ry="18"/>
<text text-anchor="middle" x="114" y="-117.3" font-family="Times,serif" font-size="14.00" fill="#000000">5</text>
</g>
<!-- 0&#45;&gt;5 -->
<g id="edge2" class="edge">
<title>0&#45;&gt;5</title>
<path fill="none" stroke="#000000" d="M41.7701,-147.8395C47.2864,-145.1537 53.3243,-142.351 59,-140 67.9512,-136.2923 77.9149,-132.696 86.8761,-129.648"/>
<polygon fill="#000000" stroke="#000000" points="88.0742,-132.9381 96.4602,-126.463 85.8666,-126.2953 88.0742,-132.9381"/>
<text text-anchor="middle" x="70" y="-143.8" font-family="Times,serif" font-size="14.00" fill="#000000">ε/0</text>
</g>
<!-- 9 -->
<g id="node4" class="node">
<title>9</title>
<ellipse fill="none" stroke="#000000" cx="114" cy="-62" rx="18" ry="18"/>
<text text-anchor="middle" x="114" y="-58.3" font-family="Times,serif" font-size="14.00" fill="#000000">9</text>
</g>
<!-- 0&#45;&gt;9 -->
<g id="edge3" class="edge">
<title>0&#45;&gt;9</title>
<path fill="none" stroke="#000000" d="M35.5288,-140.4413C42.3152,-131.9261 50.8157,-121.6866 59,-113 69.5316,-101.822 82.0326,-90.1191 92.4533,-80.7473"/>
<polygon fill="#000000" stroke="#000000" points="94.8017,-83.3427 99.9494,-74.0824 90.1505,-78.1114 94.8017,-83.3427"/>
<text text-anchor="middle" x="70" y="-116.8" font-family="Times,serif" font-size="14.00" fill="#000000">ε/0</text>
</g>
<!-- 2 -->
<g id="node5" class="node">
<title>2</title>
<ellipse fill="none" stroke="#000000" cx="207.748" cy="-271" rx="18" ry="18"/>
<text text-anchor="middle" x="207.748" y="-267.3" font-family="Times,serif" font-size="14.00" fill="#000000">2</text>
</g>
<!-- 1&#45;&gt;2 -->
<g id="edge4" class="edge">
<title>1&#45;&gt;2</title>
<path fill="none" stroke="#000000" d="M132.0756,-268.5784C145.5636,-269.0101 164.2457,-269.6079 179.6721,-270.1016"/>
<polygon fill="#000000" stroke="#000000" points="179.6211,-273.6016 189.7279,-270.4233 179.845,-266.6052 179.6211,-273.6016"/>
<text text-anchor="middle" x="158.5" y="-272.8" font-family="Times,serif" font-size="14.00" fill="#000000">a/0</text>
</g>
<!-- 6 -->
<g id="node8" class="node">
<title>6</title>
<ellipse fill="none" stroke="#000000" cx="207.748" cy="-115" rx="18" ry="18"/>
<text text-anchor="middle" x="207.748" y="-111.3" font-family="Times,serif" font-size="14.00" fill="#000000">6</text>
</g>
<!-- 5&#45;&gt;6 -->
<g id="edge8" class="edge">
<title>5&#45;&gt;6</title>
<path fill="none" stroke="#000000" d="M132.0756,-119.8431C145.5636,-118.9799 164.2457,-117.7842 179.6721,-116.7969"/>
<polygon fill="#000000" stroke="#000000" points="179.9719,-120.285 189.7279,-116.1533 179.5248,-113.2993 179.9719,-120.285"/>
<text text-anchor="middle" x="158.5" y="-121.8" font-family="Times,serif" font-size="14.00" fill="#000000">b/0</text>
</g>
<!-- 10 -->
<g id="node11" class="node">
<title>10</title>
<ellipse fill="none" stroke="#000000" cx="207.748" cy="-56" rx="22.9987" ry="22.9987"/>
<text text-anchor="middle" x="207.748" y="-52.3" font-family="Times,serif" font-size="14.00" fill="#000000">10</text>
</g>
<!-- 9&#45;&gt;10 -->
<g id="edge12" class="edge">
<title>9&#45;&gt;10</title>
<path fill="none" stroke="#000000" d="M132.0756,-60.8431C144.1494,-60.0704 160.3854,-59.0313 174.7223,-58.1137"/>
<polygon fill="#000000" stroke="#000000" points="174.9836,-61.6042 184.7396,-57.4726 174.5365,-54.6185 174.9836,-61.6042"/>
<text text-anchor="middle" x="158.5" y="-62.8" font-family="Times,serif" font-size="14.00" fill="#000000">c/0</text>
</g>
<!-- 3 -->
<g id="node6" class="node">
<title>3</title>
<ellipse fill="none" stroke="#000000" cx="305.2439" cy="-268" rx="18" ry="18"/>
<text text-anchor="middle" x="305.2439" y="-264.3" font-family="Times,serif" font-size="14.00" fill="#000000">3</text>
</g>
<!-- 2&#45;&gt;3 -->
<g id="edge5" class="edge">
<title>2&#45;&gt;3</title>
<path fill="none" stroke="#000000" d="M226.0862,-270.4357C240.3849,-269.9957 260.4953,-269.3769 276.8675,-268.8732"/>
<polygon fill="#000000" stroke="#000000" points="277.1003,-272.3677 286.9879,-268.5617 276.885,-265.3711 277.1003,-272.3677"/>
<text text-anchor="middle" x="256.496" y="-272.8" font-family="Times,serif" font-size="14.00" fill="#000000">ε/0</text>
</g>
<!-- 4 -->
<g id="node7" class="node">
<title>4</title>
<ellipse fill="none" stroke="#000000" cx="403.7399" cy="-239" rx="18" ry="18"/>
<text text-anchor="middle" x="403.7399" y="-235.3" font-family="Times,serif" font-size="14.00" fill="#000000">4</text>
</g>
<!-- 3&#45;&gt;4 -->
<g id="edge6" class="edge">
<title>3&#45;&gt;4</title>
<path fill="none" stroke="#000000" d="M322.853,-262.8154C337.6998,-258.4441 359.1994,-252.114 376.3017,-247.0786"/>
<polygon fill="#000000" stroke="#000000" points="377.679,-250.3217 386.2833,-244.1397 375.7018,-243.6067 377.679,-250.3217"/>
<text text-anchor="middle" x="354.4919" y="-259.8" font-family="Times,serif" font-size="14.00" fill="#000000">a/0</text>
</g>
<!-- 4&#45;&gt;0 -->
<g id="edge7" class="edge">
<title>4&#45;&gt;0</title>
<path fill="none" stroke="#000000" d="M386.4976,-233.6062C366.9855,-227.989 334.1532,-220 305.2439,-220 114,-220 114,-220 114,-220 86.1066,-220 60.3301,-200.1587 43.2019,-182.9247"/>
<polygon fill="#000000" stroke="#000000" points="45.3779,-180.1318 35.9642,-175.2705 40.2917,-184.9412 45.3779,-180.1318"/>
<text text-anchor="middle" x="207.748" y="-223.8" font-family="Times,serif" font-size="14.00" fill="#000000">ε/0</text>
</g>
<!-- 7 -->
<g id="node9" class="node">
<title>7</title>
<ellipse fill="none" stroke="#000000" cx="305.2439" cy="-116" rx="18" ry="18"/>
<text text-anchor="middle" x="305.2439" y="-112.3" font-family="Times,serif" font-size="14.00" fill="#000000">7</text>
</g>
<!-- 6&#45;&gt;7 -->
<g id="edge9" class="edge">
<title>6&#45;&gt;7</title>
<path fill="none" stroke="#000000" d="M226.0862,-115.1881C240.3849,-115.3348 260.4953,-115.541 276.8675,-115.7089"/>
<polygon fill="#000000" stroke="#000000" points="276.9525,-119.2099 286.9879,-115.8128 277.0244,-112.2103 276.9525,-119.2099"/>
<text text-anchor="middle" x="256.496" y="-118.8" font-family="Times,serif" font-size="14.00" fill="#000000">ε/0</text>
</g>
<!-- 8 -->
<g id="node10" class="node">
<title>8</title>
<ellipse fill="none" stroke="#000000" cx="403.7399" cy="-148" rx="18" ry="18"/>
<text text-anchor="middle" x="403.7399" y="-144.3" font-family="Times,serif" font-size="14.00" fill="#000000">8</text>
</g>
<!-- 7&#45;&gt;8 -->
<g id="edge10" class="edge">
<title>7&#45;&gt;8</title>
<path fill="none" stroke="#000000" d="M322.4006,-121.574C337.4208,-126.4538 359.495,-133.6254 376.8589,-139.2667"/>
<polygon fill="#000000" stroke="#000000" points="375.8572,-142.6213 386.4493,-142.3825 378.0202,-135.9638 375.8572,-142.6213"/>
<text text-anchor="middle" x="354.4919" y="-137.8" font-family="Times,serif" font-size="14.00" fill="#000000">b/0</text>
</g>
<!-- 8&#45;&gt;0 -->
<g id="edge11" class="edge">
<title>8&#45;&gt;0</title>
<path fill="none" stroke="#000000" d="M386.5401,-153.9616C367.0662,-160.1701 334.2679,-169 305.2439,-169 114,-169 114,-169 114,-169 94.0182,-169 71.7667,-166.4101 54.1529,-163.7436"/>
<polygon fill="#000000" stroke="#000000" points="54.274,-160.2186 43.8468,-162.096 53.1689,-167.1309 54.274,-160.2186"/>
<text text-anchor="middle" x="207.748" y="-172.8" font-family="Times,serif" font-size="14.00" fill="#000000">ε/0</text>
</g>
<!-- 11 -->
<g id="node12" class="node">
<title>11</title>
<ellipse fill="none" stroke="#000000" cx="305.2439" cy="-55" rx="22.9987" ry="22.9987"/>
<text text-anchor="middle" x="305.2439" y="-51.3" font-family="Times,serif" font-size="14.00" fill="#000000">11</text>
</g>
<!-- 10&#45;&gt;11 -->
<g id="edge13" class="edge">
<title>10&#45;&gt;11</title>
<path fill="none" stroke="#000000" d="M230.8532,-55.763C243.1165,-55.6372 258.4065,-55.4804 271.9297,-55.3417"/>
<polygon fill="#000000" stroke="#000000" points="272.3411,-58.8378 282.3046,-55.2353 272.2692,-51.8381 272.3411,-58.8378"/>
<text text-anchor="middle" x="256.496" y="-58.8" font-family="Times,serif" font-size="14.00" fill="#000000">ε/0</text>
</g>
<!-- 12 -->
<g id="node13" class="node">
<title>12</title>
<ellipse fill="none" stroke="#000000" cx="403.7399" cy="-28" rx="22.9987" ry="22.9987"/>
<text text-anchor="middle" x="403.7399" y="-24.3" font-family="Times,serif" font-size="14.00" fill="#000000">12</text>
</g>
<!-- 11&#45;&gt;12 -->
<g id="edge14" class="edge">
<title>11&#45;&gt;12</title>
<path fill="none" stroke="#000000" d="M327.5942,-48.8733C340.5653,-45.3176 357.1275,-40.7775 371.4908,-36.8402"/>
<polygon fill="#000000" stroke="#000000" points="372.7592,-40.1217 381.4781,-34.1025 370.9086,-33.3708 372.7592,-40.1217"/>
<text text-anchor="middle" x="354.4919" y="-46.8" font-family="Times,serif" font-size="14.00" fill="#000000">c/0</text>
</g>
<!-- 12&#45;&gt;0 -->
<g id="edge15" class="edge">
<title>12&#45;&gt;0</title>
<path fill="none" stroke="#000000" d="M382.7105,-18.364C363.0946,-10.2646 332.7991,0 305.2439,0 114,0 114,0 114,0 56.2818,0 34.1418,-79.7144 26.1578,-125.9014"/>
<polygon fill="#000000" stroke="#000000" points="22.661,-125.6038 24.5396,-136.0308 29.5734,-126.7081 22.661,-125.6038"/>
<text text-anchor="middle" x="207.748" y="-3.8" font-family="Times,serif" font-size="14.00" fill="#000000">ε/0</text>
</g>
</g>
</svg>
