<?xml version="1.0" encoding="UTF-8" standalone="no"?>
<!DOCTYPE svg PUBLIC "-//W3C//DTD SVG 1.1//EN"
 "http://www.w3.org/Graphics/SVG/1.1/DTD/svg11.dtd">
<!-- Generated by graphviz version 2.40.1 (20161225.0304)
 -->
<!-- Title: FST Pages: 1 -->
<svg width="255pt" height="108pt"
 viewBox="0.00 0.00 255.00 108.00" xmlns="http://www.w3.org/2000/svg" xmlns:xlink="http://www.w3.org/1999/xlink">
<g id="graph0" class="graph" transform="scale(1 1) rotate(0) translate(4 104)">
<title>FST</title>
<polygon fill="#ffffff" stroke="transparent" points="-4,4 -4,-104 251,-104 251,4 -4,4"/>
<!-- 0 -->
<g id="node1" class="node">
<title>0</title>
<ellipse fill="none" stroke="#000000" stroke-width="2" cx="18" cy="-45" rx="18" ry="18"/>
<text text-anchor="middle" x="18" y="-41.3" font-family="Times,serif" font-size="14.00" fill="#000000">0</text>
</g>
<!-- 0&#45;&gt;0 -->
<g id="edge1" class="edge">
<title>0&#45;&gt;0</title>
<path fill="none" stroke="#000000" d="M9.3666,-60.916C7.1144,-71.1504 9.9922,-81 18,-81 23.2551,-81 26.3009,-76.7581 27.1375,-70.9494"/>
<polygon fill="#000000" stroke="#000000" points="30.6308,-70.7278 26.6334,-60.916 23.6396,-71.0791 30.6308,-70.7278"/>
<text text-anchor="middle" x="18" y="-84.8" font-family="Times,serif" font-size="14.00" fill="#000000">a:z/1</text>
</g>
<!-- 1 -->
<g id="node2" class="node">
<title>1</title>
<ellipse fill="none" stroke="#000000" cx="119" cy="-72" rx="18" ry="18"/>
<text text-anchor="middle" x="119" y="-68.3" font-family="Times,serif" font-size="14.00" fill="#000000">1</text>
</g>
<!-- 0&#45;&gt;1 -->
<g id="edge2" class="edge">
<title>0&#45;&gt;1</title>
<path fill="none" stroke="#000000" d="M35.5929,-49.703C51.0894,-53.8457 73.9083,-59.9458 91.7628,-64.7188"/>
<polygon fill="#000000" stroke="#000000" points="91.0441,-68.1495 101.6087,-67.3509 92.8519,-61.3869 91.0441,-68.1495"/>
<text text-anchor="middle" x="68.5" y="-65.8" font-family="Times,serif" font-size="14.00" fill="#000000">a:z/2</text>
</g>
<!-- 2 -->
<g id="node3" class="node">
<title>2</title>
<ellipse fill="none" stroke="#000000" cx="119" cy="-18" rx="18" ry="18"/>
<text text-anchor="middle" x="119" y="-14.3" font-family="Times,serif" font-size="14.00" fill="#000000">2</text>
</g>
<!-- 0&#45;&gt;2 -->
<g id="edge3" class="edge">
<title>0&#45;&gt;2</title>
<path fill="none" stroke="#000000" d="M35.4222,-39.5454C40.436,-38.0233 45.9222,-36.4032 51,-35 64.2871,-31.3283 79.1301,-27.5773 91.5503,-24.5362"/>
<polygon fill="#000000" stroke="#000000" points="92.4324,-27.9238 101.326,-22.1659 90.7828,-21.1209 92.4324,-27.9238"/>
<text text-anchor="middle" x="68.5" y="-38.8" font-family="Times,serif" font-size="14.00" fill="#000000">a:y/2</text>
</g>
<!-- 3 -->
<g id="node4" class="node">
<title>3</title>
<ellipse fill="none" stroke="#000000" cx="225" cy="-45" rx="18" ry="18"/>
<ellipse fill="none" stroke="#000000" cx="225" cy="-45" rx="22" ry="22"/>
<text text-anchor="middle" x="225" y="-41.3" font-family="Times,serif" font-size="14.00" fill="#000000">3</text>
</g>
<!-- 1&#45;&gt;3 -->
<g id="edge4" class="edge">
<title>1&#45;&gt;3</title>
<path fill="none" stroke="#000000" d="M136.5037,-67.5415C151.9836,-63.5985 174.9401,-57.7511 193.5926,-53"/>
<polygon fill="#000000" stroke="#000000" points="194.6109,-56.3525 203.4375,-50.4923 192.883,-49.5691 194.6109,-56.3525"/>
<text text-anchor="middle" x="170" y="-66.8" font-family="Times,serif" font-size="14.00" fill="#000000">a:y/3</text>
</g>
<!-- 2&#45;&gt;3 -->
<g id="edge5" class="edge">
<title>2&#45;&gt;3</title>
<path fill="none" stroke="#000000" d="M136.6106,-22.2238C150.5696,-25.5995 170.5598,-30.4954 188,-35 189.8845,-35.4867 191.8213,-35.9928 193.774,-36.5074"/>
<polygon fill="#000000" stroke="#000000" points="192.9358,-39.9061 203.5,-39.1019 194.74,-33.1426 192.9358,-39.9061"/>
<text text-anchor="middle" x="170" y="-38.8" font-family="Times,serif" font-size="14.00" fill="#000000">b:y/3</text>
</g>
<!-- 3&#45;&gt;3 -->
<g id="edge6" class="edge">
<title>3&#45;&gt;3</title>
<path fill="none" stroke="#000000" d="M215.2928,-64.7575C213.6432,-75.3499 216.8789,-85 225,-85 230.3295,-85 233.555,-80.8441 234.6766,-74.9932"/>
<polygon fill="#000000" stroke="#000000" points="238.1772,-74.768 234.7072,-64.7575 231.1772,-74.7469 238.1772,-74.768"/>
<text text-anchor="middle" x="225" y="-88.8" font-family="Times,serif" font-size="14.00" fill="#000000">b:y/1</text>
</g>
</g>
</svg>
