<?xml version="1.0" encoding="UTF-8" standalone="no"?>
<!DOCTYPE svg PUBLIC "-//W3C//DTD SVG 1.1//EN"
 "http://www.w3.org/Graphics/SVG/1.1/DTD/svg11.dtd">
<!-- Generated by graphviz version 2.40.1 (20161225.0304)
 -->
<!-- Title: FST Pages: 1 -->
<svg width="353pt" height="52pt"
 viewBox="0.00 0.00 353.00 52.00" xmlns="http://www.w3.org/2000/svg" xmlns:xlink="http://www.w3.org/1999/xlink">
<g id="graph0" class="graph" transform="scale(1 1) rotate(0) translate(4 48)">
<title>FST</title>
<polygon fill="#ffffff" stroke="transparent" points="-4,4 -4,-48 349,-48 349,4 -4,4"/>
<!-- 0 -->
<g id="node1" class="node">
<title>0</title>
<ellipse fill="none" stroke="#000000" stroke-width="2" cx="18" cy="-22" rx="18" ry="18"/>
<text text-anchor="middle" x="18" y="-18.3" font-family="Times,serif" font-size="14.00" fill="#000000">0</text>
</g>
<!-- 1 -->
<g id="node2" class="node">
<title>1</title>
<ellipse fill="none" stroke="#000000" cx="118" cy="-22" rx="18" ry="18"/>
<text text-anchor="middle" x="118" y="-18.3" font-family="Times,serif" font-size="14.00" fill="#000000">1</text>
</g>
<!-- 0&#45;&gt;1 -->
<g id="edge1" class="edge">
<title>0&#45;&gt;1</title>
<path fill="none" stroke="#000000" d="M36.3415,-22C51.2836,-22 72.6335,-22 89.7554,-22"/>
<polygon fill="#000000" stroke="#000000" points="89.7748,-25.5001 99.7747,-22 89.7747,-18.5001 89.7748,-25.5001"/>
<text text-anchor="middle" x="68" y="-25.8" font-family="Times,serif" font-size="14.00" fill="#000000">ε:x/0</text>
</g>
<!-- 2 -->
<g id="node3" class="node">
<title>2</title>
<ellipse fill="none" stroke="#000000" cx="219" cy="-22" rx="18" ry="18"/>
<text text-anchor="middle" x="219" y="-18.3" font-family="Times,serif" font-size="14.00" fill="#000000">2</text>
</g>
<!-- 1&#45;&gt;2 -->
<g id="edge2" class="edge">
<title>1&#45;&gt;2</title>
<path fill="none" stroke="#000000" d="M136.0568,-22C151.187,-22 173.0552,-22 190.539,-22"/>
<polygon fill="#000000" stroke="#000000" points="190.7591,-25.5001 200.759,-22 190.759,-18.5001 190.7591,-25.5001"/>
<text text-anchor="middle" x="168.5" y="-25.8" font-family="Times,serif" font-size="14.00" fill="#000000">b:ε/0</text>
</g>
<!-- 3 -->
<g id="node4" class="node">
<title>3</title>
<ellipse fill="none" stroke="#000000" cx="323" cy="-22" rx="18" ry="18"/>
<ellipse fill="none" stroke="#000000" cx="323" cy="-22" rx="22" ry="22"/>
<text text-anchor="middle" x="323" y="-18.3" font-family="Times,serif" font-size="14.00" fill="#000000">3</text>
</g>
<!-- 2&#45;&gt;3 -->
<g id="edge3" class="edge">
<title>2&#45;&gt;3</title>
<path fill="none" stroke="#000000" d="M237.1154,-22C251.7664,-22 272.7738,-22 290.3446,-22"/>
<polygon fill="#000000" stroke="#000000" points="290.7532,-25.5001 300.7532,-22 290.7532,-18.5001 290.7532,-25.5001"/>
<text text-anchor="middle" x="269" y="-25.8" font-family="Times,serif" font-size="14.00" fill="#000000">ε:ε/0</text>
</g>
</g>
</svg>
