<?xml version="1.0" encoding="UTF-8" standalone="no"?>
<!DOCTYPE svg PUBLIC "-//W3C//DTD SVG 1.1//EN"
 "http://www.w3.org/Graphics/SVG/1.1/DTD/svg11.dtd">
<!-- Generated by graphviz version 2.40.1 (20161225.0304)
 -->
<!-- Title: FST Pages: 1 -->
<svg width="203pt" height="106pt"
 viewBox="0.00 0.00 203.00 106.00" xmlns="http://www.w3.org/2000/svg" xmlns:xlink="http://www.w3.org/1999/xlink">
<g id="graph0" class="graph" transform="scale(1 1) rotate(0) translate(4 102)">
<title>FST</title>
<polygon fill="#ffffff" stroke="transparent" points="-4,4 -4,-102 199,-102 199,4 -4,4"/>
<!-- 0 -->
<g id="node1" class="node">
<title>0</title>
<ellipse fill="none" stroke="#000000" stroke-width="2" cx="18" cy="-51" rx="18" ry="18"/>
<text text-anchor="middle" x="18" y="-47.3" font-family="Times,serif" font-size="14.00" fill="#000000">(0, 0)</text>
</g>
<!-- 1 -->
<g id="node2" class="node">
<title>1</title>
<ellipse fill="none" stroke="#000000" cx="93" cy="-51" rx="18" ry="18"/>
<text text-anchor="middle" x="93" y="-47.3" font-family="Times,serif" font-size="14.00" fill="#000000">(0, 1)</text>
</g>
<!-- 0&#45;&gt;1 -->
<g id="edge1" class="edge">
<title>0&#45;&gt;1</title>
<path fill="none" stroke="#000000" d="M36.1554,-51C44.6599,-51 54.9924,-51 64.5036,-51"/>
<polygon fill="#000000" stroke="#000000" points="64.7519,-54.5001 74.7518,-51 64.7518,-47.5001 64.7519,-54.5001"/>
<text text-anchor="middle" x="55.5" y="-54.8" font-family="Times,serif" font-size="14.00" fill="#000000">a</text>
</g>
<!-- 3 -->
<g id="node3" class="node">
<title>3</title>
<ellipse fill="none" stroke="#ff0000" cx="173" cy="-80" rx="18" ry="18"/>
<text text-anchor="middle" x="173" y="-76.3" font-family="Times,serif" font-size="14.00" fill="#000000">(0, 2)</text>
</g>
<!-- 1&#45;&gt;3 -->
<g id="edge2" class="edge">
<title>1&#45;&gt;3</title>
<path fill="none" stroke="#000000" d="M109.9659,-57.1502C120.5724,-60.995 134.4566,-66.028 146.494,-70.3916"/>
<polygon fill="#000000" stroke="#000000" points="145.4643,-73.7411 156.0585,-73.8587 147.85,-67.1602 145.4643,-73.7411"/>
<text text-anchor="middle" x="131" y="-69.8" font-family="Times,serif" font-size="14.00" fill="#000000">a</text>
</g>
<!-- 4 -->
<g id="node4" class="node">
<title>4</title>
<ellipse fill="none" stroke="#000000" cx="173" cy="-22" rx="18" ry="18"/>
<ellipse fill="none" stroke="#000000" cx="173" cy="-22" rx="22" ry="22"/>
<text text-anchor="middle" x="173" y="-18.3" font-family="Times,serif" font-size="14.00" fill="#000000">(1, 2)</text>
</g>
<!-- 1&#45;&gt;4 -->
<g id="edge3" class="edge">
<title>1&#45;&gt;4</title>
<path fill="none" stroke="#000000" d="M109.9659,-44.8498C119.377,-41.4383 131.3686,-37.0914 142.361,-33.1066"/>
<polygon fill="#000000" stroke="#000000" points="143.8638,-36.2848 152.0724,-29.5863 141.4782,-29.7038 143.8638,-36.2848"/>
<text text-anchor="middle" x="131" y="-41.8" font-family="Times,serif" font-size="14.00" fill="#000000">b</text>
</g>
</g>
</svg>
