<?xml version="1.0" encoding="UTF-8" standalone="no"?>
<!DOCTYPE svg PUBLIC "-//W3C//DTD SVG 1.1//EN"
 "http://www.w3.org/Graphics/SVG/1.1/DTD/svg11.dtd">
<!-- Generated by graphviz version 2.40.1 (20161225.0304)
 -->
<!-- Title: FST Pages: 1 -->
<svg width="204pt" height="63pt"
 viewBox="0.00 0.00 204.00 63.29" xmlns="http://www.w3.org/2000/svg" xmlns:xlink="http://www.w3.org/1999/xlink">
<g id="graph0" class="graph" transform="scale(1 1) rotate(0) translate(4 59.292)">
<title>FST</title>
<polygon fill="#ffffff" stroke="transparent" points="-4,4 -4,-59.292 200,-59.292 200,4 -4,4"/>
<!-- 0 -->
<g id="node1" class="node">
<title>0</title>
<ellipse fill="none" stroke="#ff0000" stroke-width="2" cx="18" cy="-24.292" rx="18" ry="18"/>
<text text-anchor="middle" x="18" y="-20.592" font-family="Times,serif" font-size="14.00" fill="#000000">0</text>
</g>
<!-- 1 -->
<g id="node2" class="node">
<title>1</title>
<ellipse fill="none" stroke="#000000" cx="94" cy="-24.292" rx="18" ry="18"/>
<text text-anchor="middle" x="94" y="-20.592" font-family="Times,serif" font-size="14.00" fill="#000000">1</text>
</g>
<!-- 0&#45;&gt;1 -->
<g id="edge1" class="edge">
<title>0&#45;&gt;1</title>
<path fill="none" stroke="#ff0000" d="M33.5774,-33.6264C38.9127,-36.332 45.0427,-38.924 51,-40.292 57.0675,-41.6854 63.4381,-40.7366 69.3612,-38.746"/>
<polygon fill="#ff0000" stroke="#ff0000" points="71.0066,-41.8469 78.7743,-34.6419 68.2089,-35.4303 71.0066,-41.8469"/>
<text text-anchor="middle" x="56" y="-44.092" font-family="Times,serif" font-size="14.00" fill="#ff0000">a</text>
</g>
<!-- 0&#45;&gt;1 -->
<g id="edge2" class="edge">
<title>0&#45;&gt;1</title>
<path fill="none" stroke="#000000" d="M35.9812,-22.1137C43.6811,-21.4205 52.7767,-20.919 61,-21.292 62.5086,-21.3605 64.0547,-21.4464 65.6149,-21.5455"/>
<polygon fill="#000000" stroke="#000000" points="65.6227,-25.0567 75.8648,-22.3456 66.1675,-18.0779 65.6227,-25.0567"/>
<text text-anchor="middle" x="56" y="-25.092" font-family="Times,serif" font-size="14.00" fill="#000000">b</text>
</g>
<!-- 0&#45;&gt;1 -->
<g id="edge3" class="edge">
<title>0&#45;&gt;1</title>
<path fill="none" stroke="#000000" d="M31.4382,-12.1411C37.0662,-7.8349 43.9378,-3.5103 51,-1.292 58.441,1.0452 66.095,-1.2783 72.8452,-5.2107"/>
<polygon fill="#000000" stroke="#000000" points="71.207,-8.3405 81.3849,-11.2838 75.2639,-2.6359 71.207,-8.3405"/>
<text text-anchor="middle" x="56" y="-5.092" font-family="Times,serif" font-size="14.00" fill="#000000">c</text>
</g>
<!-- 2 -->
<g id="node3" class="node">
<title>2</title>
<ellipse fill="none" stroke="#000000" cx="174" cy="-24.292" rx="18" ry="18"/>
<ellipse fill="none" stroke="#000000" cx="174" cy="-24.292" rx="22" ry="22"/>
<text text-anchor="middle" x="174" y="-20.592" font-family="Times,serif" font-size="14.00" fill="#000000">2</text>
</g>
<!-- 1&#45;&gt;2 -->
<g id="edge4" class="edge">
<title>1&#45;&gt;2</title>
<path fill="none" stroke="#000000" d="M109.5774,-33.6264C114.9127,-36.332 121.0427,-38.924 127,-40.292 133.0277,-41.6762 139.3685,-41.0277 145.3736,-39.3771"/>
<polygon fill="#000000" stroke="#000000" points="146.8608,-42.5598 155.0479,-35.8352 144.4542,-35.9865 146.8608,-42.5598"/>
<text text-anchor="middle" x="132" y="-44.092" font-family="Times,serif" font-size="14.00" fill="#000000">a</text>
</g>
<!-- 1&#45;&gt;2 -->
<g id="edge5" class="edge">
<title>1&#45;&gt;2</title>
<path fill="none" stroke="#000000" d="M112.1352,-22.3456C116.9602,-21.9093 122.1726,-21.511 127,-21.292 131.8497,-21.072 136.9781,-21.1155 141.995,-21.312"/>
<polygon fill="#000000" stroke="#000000" points="141.8247,-24.8079 152.0112,-21.8949 142.2315,-17.8197 141.8247,-24.8079"/>
<text text-anchor="middle" x="132" y="-25.092" font-family="Times,serif" font-size="14.00" fill="#000000">b</text>
</g>
<!-- 1&#45;&gt;2 -->
<g id="edge6" class="edge">
<title>1&#45;&gt;2</title>
<path fill="none" stroke="#000000" d="M107.4382,-12.1411C113.0662,-7.8349 119.9378,-3.5103 127,-1.292 134.2693,.9913 141.8205,-.6905 148.6885,-3.9844"/>
<polygon fill="#000000" stroke="#000000" points="147.157,-7.1458 157.5399,-9.2541 150.7379,-1.1311 147.157,-7.1458"/>
<text text-anchor="middle" x="132" y="-5.092" font-family="Times,serif" font-size="14.00" fill="#000000">c</text>
</g>
</g>
</svg>
