<?xml version="1.0" encoding="UTF-8" standalone="no"?>
<!DOCTYPE svg PUBLIC "-//W3C//DTD SVG 1.1//EN"
 "http://www.w3.org/Graphics/SVG/1.1/DTD/svg11.dtd">
<!-- Generated by graphviz version 2.40.1 (20161225.0304)
 -->
<!-- Title: FST Pages: 1 -->
<svg width="204pt" height="127pt"
 viewBox="0.00 0.00 204.00 127.00" xmlns="http://www.w3.org/2000/svg" xmlns:xlink="http://www.w3.org/1999/xlink">
<g id="graph0" class="graph" transform="scale(1 1) rotate(0) translate(4 123)">
<title>FST</title>
<polygon fill="#ffffff" stroke="transparent" points="-4,4 -4,-123 200,-123 200,4 -4,4"/>
<!-- 0 -->
<g id="node1" class="node">
<title>0</title>
<ellipse fill="none" stroke="#000000" stroke-width="2" cx="18" cy="-37" rx="18" ry="18"/>
<text text-anchor="middle" x="18" y="-33.3" font-family="Times,serif" font-size="14.00" fill="#000000">(0, 0)</text>
</g>
<!-- 1 -->
<g id="node2" class="node">
<title>1</title>
<ellipse fill="none" stroke="#ff0000" cx="94" cy="-72" rx="18" ry="18"/>
<text text-anchor="middle" x="94" y="-68.3" font-family="Times,serif" font-size="14.00" fill="#000000">(0, 1)</text>
</g>
<!-- 0&#45;&gt;1 -->
<g id="edge1" class="edge">
<title>0&#45;&gt;1</title>
<path fill="none" stroke="#000000" d="M34.4909,-44.5945C44.3505,-49.1351 57.0906,-55.0022 68.2517,-60.1422"/>
<polygon fill="#000000" stroke="#000000" points="66.9941,-63.4164 77.5413,-64.4203 69.9223,-57.0582 66.9941,-63.4164"/>
<text text-anchor="middle" x="56" y="-59.8" font-family="Times,serif" font-size="14.00" fill="#000000">a</text>
</g>
<!-- 2 -->
<g id="node3" class="node">
<title>2</title>
<ellipse fill="none" stroke="#000000" cx="94" cy="-18" rx="18" ry="18"/>
<text text-anchor="middle" x="94" y="-14.3" font-family="Times,serif" font-size="14.00" fill="#000000">(1, 1)</text>
</g>
<!-- 0&#45;&gt;2 -->
<g id="edge2" class="edge">
<title>0&#45;&gt;2</title>
<path fill="none" stroke="#000000" d="M35.3884,-31.4183C40.4017,-29.8941 45.8961,-28.3048 51,-27 55.8262,-25.7662 60.9887,-24.5762 66.0017,-23.4879"/>
<polygon fill="#000000" stroke="#000000" points="66.8528,-26.8857 75.9261,-21.4154 65.4218,-20.0335 66.8528,-26.8857"/>
<text text-anchor="middle" x="56" y="-30.8" font-family="Times,serif" font-size="14.00" fill="#000000">b</text>
</g>
<!-- 3 -->
<g id="node4" class="node">
<title>3</title>
<ellipse fill="none" stroke="#000000" cx="174" cy="-101" rx="18" ry="18"/>
<text text-anchor="middle" x="174" y="-97.3" font-family="Times,serif" font-size="14.00" fill="#000000">(0, 2)</text>
</g>
<!-- 1&#45;&gt;3 -->
<g id="edge3" class="edge">
<title>1&#45;&gt;3</title>
<path fill="none" stroke="#000000" d="M110.9659,-78.1502C121.5724,-81.995 135.4566,-87.028 147.494,-91.3916"/>
<polygon fill="#000000" stroke="#000000" points="146.4643,-94.7411 157.0585,-94.8587 148.85,-88.1602 146.4643,-94.7411"/>
<text text-anchor="middle" x="132" y="-90.8" font-family="Times,serif" font-size="14.00" fill="#000000">a</text>
</g>
<!-- 4 -->
<g id="node5" class="node">
<title>4</title>
<ellipse fill="none" stroke="#000000" cx="174" cy="-43" rx="18" ry="18"/>
<ellipse fill="none" stroke="#000000" cx="174" cy="-43" rx="22" ry="22"/>
<text text-anchor="middle" x="174" y="-39.3" font-family="Times,serif" font-size="14.00" fill="#000000">(1, 2)</text>
</g>
<!-- 1&#45;&gt;4 -->
<g id="edge4" class="edge">
<title>1&#45;&gt;4</title>
<path fill="none" stroke="#000000" d="M110.9659,-65.8498C120.377,-62.4383 132.3686,-58.0914 143.361,-54.1066"/>
<polygon fill="#000000" stroke="#000000" points="144.8638,-57.2848 153.0724,-50.5863 142.4782,-50.7038 144.8638,-57.2848"/>
<text text-anchor="middle" x="132" y="-62.8" font-family="Times,serif" font-size="14.00" fill="#000000">b</text>
</g>
</g>
</svg>
