<?xml version="1.0" encoding="UTF-8" standalone="no"?>
<!DOCTYPE svg PUBLIC "-//W3C//DTD SVG 1.1//EN"
 "http://www.w3.org/Graphics/SVG/1.1/DTD/svg11.dtd">
<!-- Generated by graphviz version 2.40.1 (20161225.0304)
 -->
<!-- Title: FST Pages: 1 -->
<svg width="128pt" height="81pt"
 viewBox="0.00 0.00 128.00 81.00" xmlns="http://www.w3.org/2000/svg" xmlns:xlink="http://www.w3.org/1999/xlink">
<g id="graph0" class="graph" transform="scale(1 1) rotate(0) translate(4 77)">
<title>FST</title>
<polygon fill="#ffffff" stroke="transparent" points="-4,4 -4,-77 124,-77 124,4 -4,4"/>
<!-- 0 -->
<g id="node1" class="node">
<title>0</title>
<ellipse fill="none" stroke="#ff0000" stroke-width="2" cx="18" cy="-22" rx="18" ry="18"/>
<text text-anchor="middle" x="18" y="-18.3" font-family="Times,serif" font-size="14.00" fill="#000000">0</text>
</g>
<!-- 0&#45;&gt;0 -->
<g id="edge1" class="edge">
<title>0&#45;&gt;0</title>
<path fill="none" stroke="#ff0000" d="M11.2664,-39.0373C9.8922,-48.8579 12.1367,-58 18,-58 21.6646,-58 23.9155,-54.4289 24.7529,-49.3529"/>
<polygon fill="#ff0000" stroke="#ff0000" points="28.2524,-49.0307 24.7336,-39.0373 21.2524,-49.0439 28.2524,-49.0307"/>
<text text-anchor="middle" x="18" y="-61.8" font-family="Times,serif" font-size="14.00" fill="#ff0000">a</text>
</g>
<!-- 1 -->
<g id="node2" class="node">
<title>1</title>
<ellipse fill="none" stroke="#000000" cx="98" cy="-22" rx="18" ry="18"/>
<ellipse fill="none" stroke="#000000" cx="98" cy="-22" rx="22" ry="22"/>
<text text-anchor="middle" x="98" y="-18.3" font-family="Times,serif" font-size="14.00" fill="#000000">1</text>
</g>
<!-- 0&#45;&gt;1 -->
<g id="edge2" class="edge">
<title>0&#45;&gt;1</title>
<path fill="none" stroke="#000000" d="M36.1532,-22C44.9123,-22 55.6874,-22 65.7761,-22"/>
<polygon fill="#000000" stroke="#000000" points="65.9279,-25.5001 75.9279,-22 65.9278,-18.5001 65.9279,-25.5001"/>
<text text-anchor="middle" x="56" y="-25.8" font-family="Times,serif" font-size="14.00" fill="#000000">b</text>
</g>
</g>
</svg>
