<?xml version="1.0" encoding="UTF-8" standalone="no"?>
<!DOCTYPE svg PUBLIC "-//W3C//DTD SVG 1.1//EN"
 "http://www.w3.org/Graphics/SVG/1.1/DTD/svg11.dtd">
<!-- Generated by graphviz version 2.40.1 (20161225.0304)
 -->
<!-- Title: FST Pages: 1 -->
<svg width="203pt" height="52pt"
 viewBox="0.00 0.00 203.00 52.00" xmlns="http://www.w3.org/2000/svg" xmlns:xlink="http://www.w3.org/1999/xlink">
<g id="graph0" class="graph" transform="scale(1 1) rotate(0) translate(4 48)">
<title>FST</title>
<polygon fill="#ffffff" stroke="transparent" points="-4,4 -4,-48 199,-48 199,4 -4,4"/>
<!-- 0 -->
<g id="node1" class="node">
<title>0</title>
<ellipse fill="none" stroke="#000000" stroke-width="2" cx="18" cy="-22" rx="18" ry="18"/>
<text text-anchor="middle" x="18" y="-18.3" font-family="Times,serif" font-size="14.00" fill="#000000">(0, 0)</text>
</g>
<!-- 1 -->
<g id="node2" class="node">
<title>1</title>
<ellipse fill="none" stroke="#000000" cx="93" cy="-22" rx="18" ry="18"/>
<text text-anchor="middle" x="93" y="-18.3" font-family="Times,serif" font-size="14.00" fill="#000000">(0, 1)</text>
</g>
<!-- 0&#45;&gt;1 -->
<g id="edge1" class="edge">
<title>0&#45;&gt;1</title>
<path fill="none" stroke="#000000" d="M36.1554,-22C44.6599,-22 54.9924,-22 64.5036,-22"/>
<polygon fill="#000000" stroke="#000000" points="64.7519,-25.5001 74.7518,-22 64.7518,-18.5001 64.7519,-25.5001"/>
<text text-anchor="middle" x="55.5" y="-25.8" font-family="Times,serif" font-size="14.00" fill="#000000">a</text>
</g>
<!-- 4 -->
<g id="node3" class="node">
<title>4</title>
<ellipse fill="none" stroke="#ff0000" cx="173" cy="-22" rx="18" ry="18"/>
<ellipse fill="none" stroke="#ff0000" cx="173" cy="-22" rx="22" ry="22"/>
<text text-anchor="middle" x="173" y="-18.3" font-family="Times,serif" font-size="14.00" fill="#000000">(1, 2)</text>
</g>
<!-- 1&#45;&gt;4 -->
<g id="edge2" class="edge">
<title>1&#45;&gt;4</title>
<path fill="none" stroke="#000000" d="M111.1532,-22C119.9123,-22 130.6874,-22 140.7761,-22"/>
<polygon fill="#000000" stroke="#000000" points="140.9279,-25.5001 150.9279,-22 140.9278,-18.5001 140.9279,-25.5001"/>
<text text-anchor="middle" x="131" y="-25.8" font-family="Times,serif" font-size="14.00" fill="#000000">b</text>
</g>
</g>
</svg>
