<?xml version="1.0" encoding="UTF-8" standalone="no"?>
<!DOCTYPE svg PUBLIC "-//W3C//DTD SVG 1.1//EN"
 "http://www.w3.org/Graphics/SVG/1.1/DTD/svg11.dtd">
<!-- Generated by graphviz version 2.40.1 (20161225.0304)
 -->
<!-- Title: FST Pages: 1 -->
<svg width="120pt" height="98pt"
 viewBox="0.00 0.00 120.00 98.00" xmlns="http://www.w3.org/2000/svg" xmlns:xlink="http://www.w3.org/1999/xlink">
<g id="graph0" class="graph" transform="scale(1 1) rotate(0) translate(4 94)">
<title>FST</title>
<polygon fill="#ffffff" stroke="transparent" points="-4,4 -4,-94 116,-94 116,4 -4,4"/>
<!-- 0 -->
<g id="node1" class="node">
<title>0</title>
<ellipse fill="none" stroke="#ff0000" stroke-width="2" cx="18" cy="-45" rx="18" ry="18"/>
<text text-anchor="middle" x="18" y="-41.3" font-family="Times,serif" font-size="14.00" fill="#000000">(0, 0)</text>
</g>
<!-- 1 -->
<g id="node2" class="node">
<title>1</title>
<ellipse fill="none" stroke="#000000" cx="94" cy="-72" rx="18" ry="18"/>
<text text-anchor="middle" x="94" y="-68.3" font-family="Times,serif" font-size="14.00" fill="#000000">(0, 1)</text>
</g>
<!-- 0&#45;&gt;1 -->
<g id="edge1" class="edge">
<title>0&#45;&gt;1</title>
<path fill="none" stroke="#000000" d="M35.2456,-51.1267C44.6711,-54.4753 56.5542,-58.6969 67.1632,-62.4659"/>
<polygon fill="#000000" stroke="#000000" points="66.2279,-65.8479 76.8227,-65.8975 68.5713,-59.2518 66.2279,-65.8479"/>
<text text-anchor="middle" x="56" y="-63.8" font-family="Times,serif" font-size="14.00" fill="#000000">a</text>
</g>
<!-- 2 -->
<g id="node3" class="node">
<title>2</title>
<ellipse fill="none" stroke="#000000" cx="94" cy="-18" rx="18" ry="18"/>
<text text-anchor="middle" x="94" y="-14.3" font-family="Times,serif" font-size="14.00" fill="#000000">(1, 1)</text>
</g>
<!-- 0&#45;&gt;2 -->
<g id="edge2" class="edge">
<title>0&#45;&gt;2</title>
<path fill="none" stroke="#000000" d="M35.2456,-38.8733C44.6711,-35.5247 56.5542,-31.3031 67.1632,-27.5341"/>
<polygon fill="#000000" stroke="#000000" points="68.5713,-30.7482 76.8227,-24.1025 66.2279,-24.1521 68.5713,-30.7482"/>
<text text-anchor="middle" x="56" y="-36.8" font-family="Times,serif" font-size="14.00" fill="#000000">b</text>
</g>
</g>
</svg>
