<?xml version="1.0" encoding="UTF-8" standalone="no"?>
<!DOCTYPE svg PUBLIC "-//W3C//DTD SVG 1.1//EN"
 "http://www.w3.org/Graphics/SVG/1.1/DTD/svg11.dtd">
<!-- Generated by graphviz version 2.40.1 (20161225.0304)
 -->
<!-- Title: FST Pages: 1 -->
<svg width="195pt" height="98pt"
 viewBox="0.00 0.00 195.00 98.00" xmlns="http://www.w3.org/2000/svg" xmlns:xlink="http://www.w3.org/1999/xlink">
<g id="graph0" class="graph" transform="scale(1 1) rotate(0) translate(4 94)">
<title>FST</title>
<polygon fill="#ffffff" stroke="transparent" points="-4,4 -4,-94 191,-94 191,4 -4,4"/>
<!-- 0 -->
<g id="node1" class="node">
<title>0</title>
<ellipse fill="none" stroke="#000000" stroke-width="2" cx="18" cy="-37" rx="18" ry="18"/>
<text text-anchor="middle" x="18" y="-33.3" font-family="Times,serif" font-size="14.00" fill="#000000">(0, 0)</text>
</g>
<!-- 1 -->
<g id="node2" class="node">
<title>1</title>
<ellipse fill="none" stroke="#ff0000" cx="94" cy="-72" rx="18" ry="18"/>
<text text-anchor="middle" x="94" y="-68.3" font-family="Times,serif" font-size="14.00" fill="#000000">(0, 1)</text>
</g>
<!-- 0&#45;&gt;1 -->
<g id="edge1" class="edge">
<title>0&#45;&gt;1</title>
<path fill="none" stroke="#000000" d="M34.4909,-44.5945C44.3505,-49.1351 57.0906,-55.0022 68.2517,-60.1422"/>
<polygon fill="#000000" stroke="#000000" points="66.9941,-63.4164 77.5413,-64.4203 69.9223,-57.0582 66.9941,-63.4164"/>
<text text-anchor="middle" x="56" y="-60.8" font-family="Times,serif" font-size="14.00" fill="#000000">a</text>
</g>
<!-- 2 -->
<g id="node3" class="node">
<title>2</title>
<ellipse fill="none" stroke="#000000" cx="94" cy="-18" rx="18" ry="18"/>
<text text-anchor="middle" x="94" y="-14.3" font-family="Times,serif" font-size="14.00" fill="#000000">(1, 1)</text>
</g>
<!-- 0&#45;&gt;2 -->
<g id="edge2" class="edge">
<title>0&#45;&gt;2</title>
<path fill="none" stroke="#000000" d="M35.3884,-31.4183C40.4017,-29.8941 45.8961,-28.3048 51,-27 55.8262,-25.7662 60.9887,-24.5762 66.0017,-23.4879"/>
<polygon fill="#000000" stroke="#000000" points="66.8528,-26.8857 75.9261,-21.4154 65.4218,-20.0335 66.8528,-26.8857"/>
<text text-anchor="middle" x="56" y="-30.8" font-family="Times,serif" font-size="14.00" fill="#000000">b</text>
</g>
<!-- 3 -->
<g id="node4" class="node">
<title>3</title>
<ellipse fill="none" stroke="#000000" cx="169" cy="-72" rx="18" ry="18"/>
<text text-anchor="middle" x="169" y="-68.3" font-family="Times,serif" font-size="14.00" fill="#000000">(0, 2)</text>
</g>
<!-- 1&#45;&gt;3 -->
<g id="edge3" class="edge">
<title>1&#45;&gt;3</title>
<path fill="none" stroke="#ff0000" d="M112.1554,-72C120.6599,-72 130.9924,-72 140.5036,-72"/>
<polygon fill="#ff0000" stroke="#ff0000" points="140.7519,-75.5001 150.7518,-72 140.7518,-68.5001 140.7519,-75.5001"/>
<text text-anchor="middle" x="131.5" y="-75.8" font-family="Times,serif" font-size="14.00" fill="#ff0000">a</text>
</g>
</g>
</svg>
