<?xml version="1.0" encoding="UTF-8" standalone="no"?>
<!DOCTYPE svg PUBLIC "-//W3C//DTD SVG 1.1//EN"
 "http://www.w3.org/Graphics/SVG/1.1/DTD/svg11.dtd">
<!-- Generated by graphviz version 2.40.1 (20161225.0304)
 -->
<!-- Title: FST Pages: 1 -->
<svg width="229pt" height="98pt"
 viewBox="0.00 0.00 229.00 98.00" xmlns="http://www.w3.org/2000/svg" xmlns:xlink="http://www.w3.org/1999/xlink">
<g id="graph0" class="graph" transform="scale(1 1) rotate(0) translate(4 94)">
<title>FST</title>
<polygon fill="#ffffff" stroke="transparent" points="-4,4 -4,-94 225,-94 225,4 -4,4"/>
<!-- 0 -->
<g id="node1" class="node">
<title>0</title>
<ellipse fill="none" stroke="#000000" stroke-width="2" cx="18" cy="-56" rx="18" ry="18"/>
<text text-anchor="middle" x="18" y="-52.3" font-family="Times,serif" font-size="14.00" fill="#000000">0</text>
</g>
<!-- 2 -->
<g id="node2" class="node">
<title>2</title>
<ellipse fill="none" stroke="#000000" cx="107" cy="-72" rx="18" ry="18"/>
<text text-anchor="middle" x="107" y="-68.3" font-family="Times,serif" font-size="14.00" fill="#000000">2</text>
</g>
<!-- 0&#45;&gt;2 -->
<g id="edge1" class="edge">
<title>0&#45;&gt;2</title>
<path fill="none" stroke="#000000" d="M33.5774,-65.3343C38.9127,-68.04 45.0427,-70.632 51,-72 59.9219,-74.0488 69.8562,-74.5905 78.8515,-74.4566"/>
<polygon fill="#000000" stroke="#000000" points="79.0173,-77.9528 88.8627,-74.0389 78.7254,-70.9589 79.0173,-77.9528"/>
<text text-anchor="middle" x="62.5" y="-77.8" font-family="Times,serif" font-size="14.00" fill="#000000">a/0</text>
</g>
<!-- 0&#45;&gt;2 -->
<g id="edge2" class="edge">
<title>0&#45;&gt;2</title>
<path fill="none" stroke="#000000" d="M35.6965,-52.272C46.8637,-50.5964 61.4901,-49.656 74,-53 77.1933,-53.8536 80.3981,-55.0986 83.4881,-56.5494"/>
<polygon fill="#000000" stroke="#000000" points="81.83,-59.6318 92.2871,-61.3344 85.1742,-53.4822 81.83,-59.6318"/>
<text text-anchor="middle" x="62.5" y="-56.8" font-family="Times,serif" font-size="14.00" fill="#000000">b/0</text>
</g>
<!-- 3 -->
<g id="node3" class="node">
<title>3</title>
<ellipse fill="none" stroke="#000000" cx="107" cy="-18" rx="18" ry="18"/>
<text text-anchor="middle" x="107" y="-14.3" font-family="Times,serif" font-size="14.00" fill="#000000">3</text>
</g>
<!-- 0&#45;&gt;3 -->
<g id="edge3" class="edge">
<title>0&#45;&gt;3</title>
<path fill="none" stroke="#000000" d="M31.6063,-43.6388C37.2575,-39.0747 44.1011,-34.2329 51,-31 59.7334,-26.9075 69.8527,-24.0523 79.0673,-22.0834"/>
<polygon fill="#000000" stroke="#000000" points="79.7854,-25.5098 88.9643,-20.2184 78.4891,-18.6309 79.7854,-25.5098"/>
<text text-anchor="middle" x="62.5" y="-34.8" font-family="Times,serif" font-size="14.00" fill="#000000">a/1</text>
</g>
<!-- 1 -->
<g id="node4" class="node">
<title>1</title>
<ellipse fill="none" stroke="#000000" cx="199" cy="-45" rx="18" ry="18"/>
<ellipse fill="none" stroke="#000000" cx="199" cy="-45" rx="22" ry="22"/>
<text text-anchor="middle" x="199" y="-41.3" font-family="Times,serif" font-size="14.00" fill="#000000">1</text>
</g>
<!-- 2&#45;&gt;1 -->
<g id="edge4" class="edge">
<title>2&#45;&gt;1</title>
<path fill="none" stroke="#000000" d="M124.3045,-66.9215C136.569,-63.3221 153.3648,-58.3929 167.9238,-54.1202"/>
<polygon fill="#000000" stroke="#000000" points="168.9528,-57.4659 177.5625,-51.2914 166.9816,-50.7492 168.9528,-57.4659"/>
<text text-anchor="middle" x="151" y="-64.8" font-family="Times,serif" font-size="14.00" fill="#000000">a/2</text>
</g>
<!-- 3&#45;&gt;1 -->
<g id="edge5" class="edge">
<title>3&#45;&gt;1</title>
<path fill="none" stroke="#000000" d="M124.3045,-23.0785C136.569,-26.6779 153.3648,-31.6071 167.9238,-35.8798"/>
<polygon fill="#000000" stroke="#000000" points="166.9816,-39.2508 177.5625,-38.7086 168.9528,-32.5341 166.9816,-39.2508"/>
<text text-anchor="middle" x="151" y="-36.8" font-family="Times,serif" font-size="14.00" fill="#000000">a/3</text>
</g>
</g>
</svg>
