<?xml version="1.0" encoding="UTF-8" standalone="no"?>
<!DOCTYPE svg PUBLIC "-//W3C//DTD SVG 1.1//EN"
 "http://www.w3.org/Graphics/SVG/1.1/DTD/svg11.dtd">
<!-- Generated by graphviz version 2.40.1 (20161225.0304)
 -->
<!-- Title: FST Pages: 1 -->
<svg width="327pt" height="135pt"
 viewBox="0.00 0.00 327.00 135.00" xmlns="http://www.w3.org/2000/svg" xmlns:xlink="http://www.w3.org/1999/xlink">
<g id="graph0" class="graph" transform="scale(1 1) rotate(0) translate(4 131)">
<title>FST</title>
<polygon fill="#ffffff" stroke="transparent" points="-4,4 -4,-131 323,-131 323,4 -4,4"/>
<!-- 0 -->
<g id="node1" class="node">
<title>0</title>
<ellipse fill="none" stroke="#000000" stroke-width="2" cx="18" cy="-77" rx="18" ry="18"/>
<text text-anchor="middle" x="18" y="-73.3" font-family="Times,serif" font-size="14.00" fill="#000000">0</text>
</g>
<!-- 1 -->
<g id="node2" class="node">
<title>1</title>
<ellipse fill="none" stroke="#000000" stroke-width="2" cx="107" cy="-109" rx="18" ry="18"/>
<text text-anchor="middle" x="107" y="-105.3" font-family="Times,serif" font-size="14.00" fill="#000000">1</text>
</g>
<!-- 0&#45;&gt;1 -->
<g id="edge1" class="edge">
<title>0&#45;&gt;1</title>
<path fill="none" stroke="#000000" d="M35.1601,-83.1699C47.965,-87.7739 65.701,-94.1509 80.3461,-99.4166"/>
<polygon fill="#000000" stroke="#000000" points="79.2981,-102.7591 89.8926,-102.849 81.6666,-96.1719 79.2981,-102.7591"/>
<text text-anchor="middle" x="62.5" y="-99.8" font-family="Times,serif" font-size="14.00" fill="#000000">b/1</text>
</g>
<!-- 2 -->
<g id="node3" class="node">
<title>2</title>
<ellipse fill="none" stroke="#000000" cx="107" cy="-50" rx="18" ry="18"/>
<text text-anchor="middle" x="107" y="-46.3" font-family="Times,serif" font-size="14.00" fill="#000000">2</text>
</g>
<!-- 0&#45;&gt;2 -->
<g id="edge2" class="edge">
<title>0&#45;&gt;2</title>
<path fill="none" stroke="#000000" d="M34.5742,-69.3065C39.7624,-67.0785 45.5556,-64.772 51,-63 60.0043,-60.0693 70.026,-57.5253 79.0743,-55.484"/>
<polygon fill="#000000" stroke="#000000" points="80.0871,-58.8464 89.1298,-53.3254 78.6179,-52.0023 80.0871,-58.8464"/>
<text text-anchor="middle" x="62.5" y="-66.8" font-family="Times,serif" font-size="14.00" fill="#000000">a/1</text>
</g>
<!-- 3 -->
<g id="node4" class="node">
<title>3</title>
<ellipse fill="none" stroke="#000000" cx="200" cy="-69" rx="18" ry="18"/>
<ellipse fill="none" stroke="#000000" cx="200" cy="-69" rx="22" ry="22"/>
<text text-anchor="middle" x="200" y="-65.3" font-family="Times,serif" font-size="14.00" fill="#000000">3</text>
</g>
<!-- 1&#45;&gt;3 -->
<g id="edge3" class="edge">
<title>1&#45;&gt;3</title>
<path fill="none" stroke="#000000" d="M123.6265,-101.8488C136.484,-96.3187 154.6258,-88.5158 170.0017,-81.9025"/>
<polygon fill="#000000" stroke="#000000" points="171.8197,-84.9306 179.6231,-77.7643 169.0538,-78.5002 171.8197,-84.9306"/>
<text text-anchor="middle" x="151.5" y="-96.8" font-family="Times,serif" font-size="14.00" fill="#000000">a/1</text>
</g>
<!-- 2&#45;&gt;3 -->
<g id="edge4" class="edge">
<title>2&#45;&gt;3</title>
<path fill="none" stroke="#000000" d="M124.9313,-53.6634C137.1637,-56.1625 153.7025,-59.5414 168.1431,-62.4916"/>
<polygon fill="#000000" stroke="#000000" points="167.6974,-65.9728 178.1956,-64.5453 169.0986,-59.1144 167.6974,-65.9728"/>
<text text-anchor="middle" x="151.5" y="-64.8" font-family="Times,serif" font-size="14.00" fill="#000000">b/3</text>
</g>
<!-- 2&#45;&gt;3 -->
<g id="edge5" class="edge">
<title>2&#45;&gt;3</title>
<path fill="none" stroke="#000000" d="M123.506,-41.7135C134.839,-37.1652 150.1045,-33.3118 163,-38 167.9913,-39.8146 172.7789,-42.6306 177.1578,-45.841"/>
<polygon fill="#000000" stroke="#000000" points="175.0833,-48.6671 185.0207,-52.3411 179.5433,-43.272 175.0833,-48.6671"/>
<text text-anchor="middle" x="151.5" y="-41.8" font-family="Times,serif" font-size="14.00" fill="#000000">a/1</text>
</g>
<!-- 4 -->
<g id="node5" class="node">
<title>4</title>
<ellipse fill="none" stroke="#000000" cx="297" cy="-22" rx="18" ry="18"/>
<ellipse fill="none" stroke="#000000" cx="297" cy="-22" rx="22" ry="22"/>
<text text-anchor="middle" x="297" y="-18.3" font-family="Times,serif" font-size="14.00" fill="#000000">4</text>
</g>
<!-- 2&#45;&gt;4 -->
<g id="edge6" class="edge">
<title>2&#45;&gt;4</title>
<path fill="none" stroke="#000000" d="M122.37,-40.5091C127.7923,-37.4628 134.028,-34.2886 140,-32 180.9005,-16.3264 232.1697,-16.3658 264.7658,-18.5824"/>
<polygon fill="#000000" stroke="#000000" points="264.8171,-22.0973 275.0623,-19.398 265.3699,-15.1192 264.8171,-22.0973"/>
<text text-anchor="middle" x="200" y="-25.8" font-family="Times,serif" font-size="14.00" fill="#000000">c/2</text>
</g>
<!-- 3&#45;&gt;4 -->
<g id="edge7" class="edge">
<title>3&#45;&gt;4</title>
<path fill="none" stroke="#000000" d="M220.0985,-59.2616C233.8848,-52.5816 252.3983,-43.6111 267.8055,-36.1458"/>
<polygon fill="#000000" stroke="#000000" points="269.4542,-39.2362 276.9273,-31.726 266.4019,-32.9367 269.4542,-39.2362"/>
<text text-anchor="middle" x="248.5" y="-53.8" font-family="Times,serif" font-size="14.00" fill="#000000">b/2</text>
</g>
</g>
</svg>
