<?xml version="1.0" encoding="UTF-8" standalone="no"?>
<!DOCTYPE svg PUBLIC "-//W3C//DTD SVG 1.1//EN"
 "http://www.w3.org/Graphics/SVG/1.1/DTD/svg11.dtd">
<!-- Generated by graphviz version 2.40.1 (20161225.0304)
 -->
<!-- Title: FST Pages: 1 -->
<svg width="581pt" height="52pt"
 viewBox="0.00 0.00 581.00 52.00" xmlns="http://www.w3.org/2000/svg" xmlns:xlink="http://www.w3.org/1999/xlink">
<g id="graph0" class="graph" transform="scale(1 1) rotate(0) translate(4 48)">
<title>FST</title>
<polygon fill="#ffffff" stroke="transparent" points="-4,4 -4,-48 577,-48 577,4 -4,4"/>
<!-- 0 -->
<g id="node1" class="node">
<title>0</title>
<ellipse fill="none" stroke="#000000" stroke-width="2" cx="18" cy="-22" rx="18" ry="18"/>
<text text-anchor="middle" x="18" y="-18.3" font-family="Times,serif" font-size="14.00" fill="#000000">0</text>
</g>
<!-- 1 -->
<g id="node2" class="node">
<title>1</title>
<ellipse fill="none" stroke="#000000" cx="106" cy="-22" rx="18" ry="18"/>
<text text-anchor="middle" x="106" y="-18.3" font-family="Times,serif" font-size="14.00" fill="#000000">1</text>
</g>
<!-- 0&#45;&gt;1 -->
<g id="edge1" class="edge">
<title>0&#45;&gt;1</title>
<path fill="none" stroke="#000000" d="M36.2337,-22C48.1508,-22 63.9616,-22 77.5183,-22"/>
<polygon fill="#000000" stroke="#000000" points="77.7897,-25.5001 87.7897,-22 77.7897,-18.5001 77.7897,-25.5001"/>
<text text-anchor="middle" x="62" y="-25.8" font-family="Times,serif" font-size="14.00" fill="#000000">a/0</text>
</g>
<!-- 2 -->
<g id="node3" class="node">
<title>2</title>
<ellipse fill="none" stroke="#000000" cx="194" cy="-22" rx="18" ry="18"/>
<text text-anchor="middle" x="194" y="-18.3" font-family="Times,serif" font-size="14.00" fill="#000000">2</text>
</g>
<!-- 1&#45;&gt;2 -->
<g id="edge2" class="edge">
<title>1&#45;&gt;2</title>
<path fill="none" stroke="#000000" d="M124.2337,-22C136.1508,-22 151.9616,-22 165.5183,-22"/>
<polygon fill="#000000" stroke="#000000" points="165.7897,-25.5001 175.7897,-22 165.7897,-18.5001 165.7897,-25.5001"/>
<text text-anchor="middle" x="150" y="-25.8" font-family="Times,serif" font-size="14.00" fill="#000000">a/0</text>
</g>
<!-- 3 -->
<g id="node4" class="node">
<title>3</title>
<ellipse fill="none" stroke="#000000" cx="282" cy="-22" rx="18" ry="18"/>
<text text-anchor="middle" x="282" y="-18.3" font-family="Times,serif" font-size="14.00" fill="#000000">3</text>
</g>
<!-- 2&#45;&gt;3 -->
<g id="edge3" class="edge">
<title>2&#45;&gt;3</title>
<path fill="none" stroke="#000000" d="M212.2337,-22C224.1508,-22 239.9616,-22 253.5183,-22"/>
<polygon fill="#000000" stroke="#000000" points="253.7897,-25.5001 263.7897,-22 253.7897,-18.5001 253.7897,-25.5001"/>
<text text-anchor="middle" x="238" y="-25.8" font-family="Times,serif" font-size="14.00" fill="#000000">a/0</text>
</g>
<!-- 4 -->
<g id="node5" class="node">
<title>4</title>
<ellipse fill="none" stroke="#000000" cx="371" cy="-22" rx="18" ry="18"/>
<text text-anchor="middle" x="371" y="-18.3" font-family="Times,serif" font-size="14.00" fill="#000000">4</text>
</g>
<!-- 3&#45;&gt;4 -->
<g id="edge4" class="edge">
<title>3&#45;&gt;4</title>
<path fill="none" stroke="#000000" d="M300.0105,-22C312.2342,-22 328.6505,-22 342.6176,-22"/>
<polygon fill="#000000" stroke="#000000" points="342.7109,-25.5001 352.7108,-22 342.7108,-18.5001 342.7109,-25.5001"/>
<text text-anchor="middle" x="326.5" y="-25.8" font-family="Times,serif" font-size="14.00" fill="#000000">b/0</text>
</g>
<!-- 5 -->
<g id="node6" class="node">
<title>5</title>
<ellipse fill="none" stroke="#000000" cx="459" cy="-22" rx="18" ry="18"/>
<text text-anchor="middle" x="459" y="-18.3" font-family="Times,serif" font-size="14.00" fill="#000000">5</text>
</g>
<!-- 4&#45;&gt;5 -->
<g id="edge5" class="edge">
<title>4&#45;&gt;5</title>
<path fill="none" stroke="#000000" d="M389.2337,-22C401.1508,-22 416.9616,-22 430.5183,-22"/>
<polygon fill="#000000" stroke="#000000" points="430.7897,-25.5001 440.7897,-22 430.7897,-18.5001 430.7897,-25.5001"/>
<text text-anchor="middle" x="415" y="-25.8" font-family="Times,serif" font-size="14.00" fill="#000000">a/0</text>
</g>
<!-- 6 -->
<g id="node7" class="node">
<title>6</title>
<ellipse fill="none" stroke="#000000" cx="551" cy="-22" rx="18" ry="18"/>
<ellipse fill="none" stroke="#000000" cx="551" cy="-22" rx="22" ry="22"/>
<text text-anchor="middle" x="551" y="-18.3" font-family="Times,serif" font-size="14.00" fill="#000000">6</text>
</g>
<!-- 5&#45;&gt;6 -->
<g id="edge6" class="edge">
<title>5&#45;&gt;6</title>
<path fill="none" stroke="#000000" d="M477.1762,-22C489.0274,-22 504.8254,-22 518.7655,-22"/>
<polygon fill="#000000" stroke="#000000" points="518.9674,-25.5001 528.9674,-22 518.9673,-18.5001 518.9674,-25.5001"/>
<text text-anchor="middle" x="503" y="-25.8" font-family="Times,serif" font-size="14.00" fill="#000000">a/0</text>
</g>
</g>
</svg>
