<?xml version="1.0" encoding="UTF-8" standalone="no"?>
<!DOCTYPE svg PUBLIC "-//W3C//DTD SVG 1.1//EN"
 "http://www.w3.org/Graphics/SVG/1.1/DTD/svg11.dtd">
<!-- Generated by graphviz version 2.40.1 (20161225.0304)
 -->
<!-- Title: FST Pages: 1 -->
<svg width="222pt" height="92pt"
 viewBox="0.00 0.00 222.00 91.56" xmlns="http://www.w3.org/2000/svg" xmlns:xlink="http://www.w3.org/1999/xlink">
<g id="graph0" class="graph" transform="scale(1 1) rotate(0) translate(4 87.5644)">
<title>FST</title>
<polygon fill="#ffffff" stroke="transparent" points="-4,4 -4,-87.5644 218,-87.5644 218,4 -4,4"/>
<!-- 0 -->
<g id="node1" class="node">
<title>0</title>
<ellipse fill="none" stroke="#000000" cx="18" cy="-20.5644" rx="18" ry="18"/>
<text text-anchor="middle" x="18" y="-16.8644" font-family="Times,serif" font-size="14.00" fill="#000000">0</text>
</g>
<!-- 1 -->
<g id="node2" class="node">
<title>1</title>
<ellipse fill="none" stroke="#000000" cx="107" cy="-65.5644" rx="18" ry="18"/>
<text text-anchor="middle" x="107" y="-61.8644" font-family="Times,serif" font-size="14.00" fill="#000000">1</text>
</g>
<!-- 0&#45;&gt;1 -->
<g id="edge1" class="edge">
<title>0&#45;&gt;1</title>
<path fill="none" stroke="#000000" d="M29.1083,-35.0111C34.9343,-41.6273 42.6017,-48.9955 51,-53.5644 59.5035,-58.1905 69.6386,-61.0335 78.9345,-62.7806"/>
<polygon fill="#000000" stroke="#000000" points="78.5247,-66.2587 88.9414,-64.3241 79.5919,-59.3406 78.5247,-66.2587"/>
<text text-anchor="middle" x="62.5" y="-64.3644" font-family="Times,serif" font-size="14.00" fill="#000000">a/0</text>
</g>
<!-- 0&#45;&gt;1 -->
<g id="edge2" class="edge">
<title>0&#45;&gt;1</title>
<path fill="none" stroke="#000000" d="M36.0014,-22.6896C47.4217,-24.5971 62.2124,-28.1314 74,-34.5644 79.0025,-37.2945 83.8182,-40.9645 88.1518,-44.8232"/>
<polygon fill="#000000" stroke="#000000" points="85.7489,-47.3684 95.3677,-51.8102 90.6183,-42.3395 85.7489,-47.3684"/>
<text text-anchor="middle" x="62.5" y="-38.3644" font-family="Times,serif" font-size="14.00" fill="#000000">b/0</text>
</g>
<!-- 2 -->
<g id="node3" class="node">
<title>2</title>
<ellipse fill="none" stroke="#000000" cx="196" cy="-20.5644" rx="18" ry="18"/>
<text text-anchor="middle" x="196" y="-16.8644" font-family="Times,serif" font-size="14.00" fill="#000000">2</text>
</g>
<!-- 1&#45;&gt;2 -->
<g id="edge3" class="edge">
<title>1&#45;&gt;2</title>
<path fill="none" stroke="#000000" d="M125.0586,-64.3241C136.5017,-62.9209 151.2963,-59.9315 163,-53.5644 168.3802,-50.6375 173.4604,-46.5617 177.9486,-42.2707"/>
<polygon fill="#000000" stroke="#000000" points="180.5094,-44.6571 184.8917,-35.0111 175.4505,-39.8189 180.5094,-44.6571"/>
<text text-anchor="middle" x="151.5" y="-64.3644" font-family="Times,serif" font-size="14.00" fill="#000000">b/0</text>
</g>
<!-- 1&#45;&gt;2 -->
<g id="edge4" class="edge">
<title>1&#45;&gt;2</title>
<path fill="none" stroke="#000000" d="M118.6323,-51.8102C124.4701,-45.707 131.9961,-38.9325 140,-34.5644 148.5644,-29.8904 158.7142,-26.7467 168.0047,-24.6453"/>
<polygon fill="#000000" stroke="#000000" points="168.8569,-28.045 177.9986,-22.6896 167.5126,-21.1752 168.8569,-28.045"/>
<text text-anchor="middle" x="151.5" y="-38.3644" font-family="Times,serif" font-size="14.00" fill="#000000">c/0</text>
</g>
<!-- 2&#45;&gt;0 -->
<g id="edge5" class="edge">
<title>2&#45;&gt;0</title>
<path fill="none" stroke="#000000" d="M177.9051,-20.5644C146.8204,-20.5644 83.0681,-20.5644 46.1412,-20.5644"/>
<polygon fill="#000000" stroke="#000000" points="46.0472,-17.0645 36.0472,-20.5644 46.0471,-24.0645 46.0472,-17.0645"/>
<text text-anchor="middle" x="107" y="-24.3644" font-family="Times,serif" font-size="14.00" fill="#000000">a/0</text>
</g>
<!-- 2&#45;&gt;0 -->
<g id="edge6" class="edge">
<title>2&#45;&gt;0</title>
<path fill="none" stroke="#000000" d="M178.7499,-14.5874C164.5284,-9.992 143.7238,-4.0264 125,-1.5644 109.1365,.5215 104.8635,.5215 89,-1.5644 74.2257,-3.5071 58.1559,-7.6312 45.047,-11.5422"/>
<polygon fill="#000000" stroke="#000000" points="43.7605,-8.2769 35.2501,-14.5874 45.8383,-14.9614 43.7605,-8.2769"/>
<text text-anchor="middle" x="107" y="-5.3644" font-family="Times,serif" font-size="14.00" fill="#000000">c/0</text>
</g>
</g>
</svg>
