<?xml version="1.0" encoding="UTF-8" standalone="no"?>
<!DOCTYPE svg PUBLIC "-//W3C//DTD SVG 1.1//EN"
 "http://www.w3.org/Graphics/SVG/1.1/DTD/svg11.dtd">
<!-- Generated by graphviz version 2.40.1 (20161225.0304)
 -->
<!-- Title: FST Pages: 1 -->
<svg width="221pt" height="79pt"
 viewBox="0.00 0.00 221.00 79.00" xmlns="http://www.w3.org/2000/svg" xmlns:xlink="http://www.w3.org/1999/xlink">
<g id="graph0" class="graph" transform="scale(1 1) rotate(0) translate(4 75)">
<title>FST</title>
<polygon fill="#ffffff" stroke="transparent" points="-4,4 -4,-75 217,-75 217,4 -4,4"/>
<!-- 0 -->
<g id="node1" class="node">
<title>0</title>
<ellipse fill="none" stroke="#000000" cx="18" cy="-18" rx="18" ry="18"/>
<text text-anchor="middle" x="18" y="-14.3" font-family="Times,serif" font-size="14.00" fill="#000000">0</text>
</g>
<!-- 1 -->
<g id="node2" class="node">
<title>1</title>
<ellipse fill="none" stroke="#000000" cx="106" cy="-53" rx="18" ry="18"/>
<text text-anchor="middle" x="106" y="-49.3" font-family="Times,serif" font-size="14.00" fill="#000000">1</text>
</g>
<!-- 0&#45;&gt;1 -->
<g id="edge1" class="edge">
<title>0&#45;&gt;1</title>
<path fill="none" stroke="#000000" d="M34.9673,-24.7484C47.6283,-29.784 65.165,-36.7588 79.6455,-42.5181"/>
<polygon fill="#000000" stroke="#000000" points="78.4993,-45.8288 89.0848,-46.2724 81.0863,-39.3244 78.4993,-45.8288"/>
<text text-anchor="middle" x="62" y="-42.8" font-family="Times,serif" font-size="14.00" fill="#000000">a/0</text>
</g>
<!-- 2 -->
<g id="node3" class="node">
<title>2</title>
<ellipse fill="none" stroke="#000000" cx="195" cy="-18" rx="18" ry="18"/>
<text text-anchor="middle" x="195" y="-14.3" font-family="Times,serif" font-size="14.00" fill="#000000">2</text>
</g>
<!-- 1&#45;&gt;2 -->
<g id="edge2" class="edge">
<title>1&#45;&gt;2</title>
<path fill="none" stroke="#000000" d="M123.1601,-46.2516C136.0471,-41.1837 153.9285,-34.1517 168.6273,-28.3713"/>
<polygon fill="#000000" stroke="#000000" points="170.1691,-31.5259 178.1944,-24.6089 167.6072,-25.0116 170.1691,-31.5259"/>
<text text-anchor="middle" x="150.5" y="-42.8" font-family="Times,serif" font-size="14.00" fill="#000000">b/0</text>
</g>
<!-- 2&#45;&gt;0 -->
<g id="edge3" class="edge">
<title>2&#45;&gt;0</title>
<path fill="none" stroke="#000000" d="M176.9433,-15.7254C162.6152,-14.0401 142.062,-11.8882 124,-11 108.0193,-10.2141 103.9801,-10.203 88,-11 74.1817,-11.6892 58.886,-13.1391 46.1262,-14.5416"/>
<polygon fill="#000000" stroke="#000000" points="45.6292,-11.0755 36.0924,-15.6907 46.4258,-18.0301 45.6292,-11.0755"/>
<text text-anchor="middle" x="106" y="-14.8" font-family="Times,serif" font-size="14.00" fill="#000000">c/0</text>
</g>
</g>
</svg>
