<?xml version="1.0" encoding="UTF-8" standalone="no"?>
<!DOCTYPE svg PUBLIC "-//W3C//DTD SVG 1.1//EN"
 "http://www.w3.org/Graphics/SVG/1.1/DTD/svg11.dtd">
<!-- Generated by graphviz version 2.40.1 (20161225.0304)
 -->
<!-- Title: FST Pages: 1 -->
<svg width="255pt" height="52pt"
 viewBox="0.00 0.00 255.00 52.10" xmlns="http://www.w3.org/2000/svg" xmlns:xlink="http://www.w3.org/1999/xlink">
<g id="graph0" class="graph" transform="scale(1 1) rotate(0) translate(4 48.0989)">
<title>FST</title>
<polygon fill="#ffffff" stroke="transparent" points="-4,4 -4,-48.0989 251,-48.0989 251,4 -4,4"/>
<!-- 0 -->
<g id="node1" class="node">
<title>0</title>
<ellipse fill="none" stroke="#000000" stroke-width="2" cx="18" cy="-22.0989" rx="18" ry="18"/>
<text text-anchor="middle" x="18" y="-18.3989" font-family="Times,serif" font-size="14.00" fill="#000000">0</text>
</g>
<!-- 1 -->
<g id="node2" class="node">
<title>1</title>
<ellipse fill="none" stroke="#000000" cx="120" cy="-22.0989" rx="18" ry="18"/>
<text text-anchor="middle" x="120" y="-18.3989" font-family="Times,serif" font-size="14.00" fill="#000000">1</text>
</g>
<!-- 0&#45;&gt;1 -->
<g id="edge1" class="edge">
<title>0&#45;&gt;1</title>
<path fill="none" stroke="#000000" d="M36.2356,-22.0989C51.683,-22.0989 74.0851,-22.0989 91.836,-22.0989"/>
<polygon fill="#000000" stroke="#000000" points="91.9224,-25.599 101.9223,-22.0989 91.9223,-18.599 91.9224,-25.599"/>
<text text-anchor="middle" x="69" y="-25.8989" font-family="Times,serif" font-size="14.00" fill="#000000">a:x/0</text>
</g>
<!-- 0&#45;&gt;1 -->
<g id="edge2" class="edge">
<title>0&#45;&gt;1</title>
<path fill="none" stroke="#000000" d="M32.7129,-11.4333C38.1808,-8.0787 44.6133,-4.8061 51,-3.0989 66.4573,1.033 71.5427,1.033 87,-3.0989 90.1933,-3.9525 93.3981,-5.1975 96.4881,-6.6483"/>
<polygon fill="#000000" stroke="#000000" points="94.83,-9.7307 105.2871,-11.4333 98.1742,-3.5811 94.83,-9.7307"/>
<text text-anchor="middle" x="69" y="-6.8989" font-family="Times,serif" font-size="14.00" fill="#000000">b:y/2</text>
</g>
<!-- 2 -->
<g id="node3" class="node">
<title>2</title>
<ellipse fill="none" stroke="#000000" cx="225" cy="-22.0989" rx="18" ry="18"/>
<ellipse fill="none" stroke="#000000" cx="225" cy="-22.0989" rx="22" ry="22"/>
<text text-anchor="middle" x="225" y="-18.3989" font-family="Times,serif" font-size="14.00" fill="#000000">2</text>
</g>
<!-- 1&#45;&gt;2 -->
<g id="edge3" class="edge">
<title>1&#45;&gt;2</title>
<path fill="none" stroke="#000000" d="M138.2896,-22.0989C153.3193,-22.0989 174.9744,-22.0989 192.8833,-22.0989"/>
<polygon fill="#000000" stroke="#000000" points="192.9166,-25.599 202.9166,-22.0989 192.9165,-18.599 192.9166,-25.599"/>
<text text-anchor="middle" x="170.5" y="-25.8989" font-family="Times,serif" font-size="14.00" fill="#000000">b:z/3</text>
</g>
</g>
</svg>
