<?xml version="1.0" encoding="UTF-8" standalone="no"?>
<!DOCTYPE svg PUBLIC "-//W3C//DTD SVG 1.1//EN"
 "http://www.w3.org/Graphics/SVG/1.1/DTD/svg11.dtd">
<!-- Generated by graphviz version 2.40.1 (20161225.0304)
 -->
<!-- Title: FST Pages: 1 -->
<svg width="354pt" height="52pt"
 viewBox="0.00 0.00 354.00 52.00" xmlns="http://www.w3.org/2000/svg" xmlns:xlink="http://www.w3.org/1999/xlink">
<g id="graph0" class="graph" transform="scale(1 1) rotate(0) translate(4 48)">
<title>FST</title>
<polygon fill="#ffffff" stroke="transparent" points="-4,4 -4,-48 350,-48 350,4 -4,4"/>
<!-- 0 -->
<g id="node1" class="node">
<title>0</title>
<ellipse fill="none" stroke="#000000" stroke-width="2" cx="18" cy="-22" rx="18" ry="18"/>
<text text-anchor="middle" x="18" y="-18.3" font-family="Times,serif" font-size="14.00" fill="#000000">0</text>
</g>
<!-- 1 -->
<g id="node2" class="node">
<title>1</title>
<ellipse fill="none" stroke="#000000" cx="169" cy="-22" rx="18" ry="18"/>
<text text-anchor="middle" x="169" y="-18.3" font-family="Times,serif" font-size="14.00" fill="#000000">1</text>
</g>
<!-- 0&#45;&gt;1 -->
<g id="edge1" class="edge">
<title>0&#45;&gt;1</title>
<path fill="none" stroke="#000000" d="M36.2141,-22C62.176,-22 110.0613,-22 140.6767,-22"/>
<polygon fill="#000000" stroke="#000000" points="140.7213,-25.5001 150.7213,-22 140.7212,-18.5001 140.7213,-25.5001"/>
<text text-anchor="middle" x="93.5" y="-25.8" font-family="Times,serif" font-size="14.00" fill="#000000">a/&#45;0.693147</text>
</g>
<!-- 2 -->
<g id="node3" class="node">
<title>2</title>
<ellipse fill="none" stroke="#000000" cx="324" cy="-22" rx="18" ry="18"/>
<ellipse fill="none" stroke="#000000" cx="324" cy="-22" rx="22" ry="22"/>
<text text-anchor="middle" x="324" y="-18.3" font-family="Times,serif" font-size="14.00" fill="#000000">2</text>
</g>
<!-- 1&#45;&gt;2 -->
<g id="edge2" class="edge">
<title>1&#45;&gt;2</title>
<path fill="none" stroke="#000000" d="M187.0838,-22C212.6977,-22 259.9512,-22 291.6802,-22"/>
<polygon fill="#000000" stroke="#000000" points="291.7917,-25.5001 301.7916,-22 291.7916,-18.5001 291.7917,-25.5001"/>
<text text-anchor="middle" x="244.5" y="-25.8" font-family="Times,serif" font-size="14.00" fill="#000000">a/&#45;0.693147</text>
</g>
</g>
</svg>
