<?xml version="1.0" encoding="UTF-8" standalone="no"?>
<!DOCTYPE svg PUBLIC "-//W3C//DTD SVG 1.1//EN"
 "http://www.w3.org/Graphics/SVG/1.1/DTD/svg11.dtd">
<!-- Generated by graphviz version 2.40.1 (20161225.0304)
 -->
<!-- Title: FST Pages: 1 -->
<svg width="230pt" height="209pt"
 viewBox="0.00 0.00 230.00 209.00" xmlns="http://www.w3.org/2000/svg" xmlns:xlink="http://www.w3.org/1999/xlink">
<g id="graph0" class="graph" transform="scale(1 1) rotate(0) translate(4 205)">
<title>FST</title>
<polygon fill="#ffffff" stroke="transparent" points="-4,4 -4,-205 226,-205 226,4 -4,4"/>
<!-- 0 -->
<g id="node1" class="node">
<title>0</title>
<ellipse fill="none" stroke="#000000" stroke-width="2" cx="18" cy="-22" rx="18" ry="18"/>
<text text-anchor="middle" x="18" y="-18.3" font-family="Times,serif" font-size="14.00" fill="#000000">0</text>
</g>
<!-- 1 -->
<g id="node2" class="node">
<title>1</title>
<ellipse fill="none" stroke="#000000" cx="107" cy="-22" rx="18" ry="18"/>
<text text-anchor="middle" x="107" y="-18.3" font-family="Times,serif" font-size="14.00" fill="#000000">1</text>
</g>
<!-- 0&#45;&gt;1 -->
<g id="edge1" class="edge">
<title>0&#45;&gt;1</title>
<path fill="none" stroke="#000000" d="M36.0105,-22C48.2342,-22 64.6505,-22 78.6176,-22"/>
<polygon fill="#000000" stroke="#000000" points="78.7109,-25.5001 88.7108,-22 78.7108,-18.5001 78.7109,-25.5001"/>
<text text-anchor="middle" x="62.5" y="-25.8" font-family="Times,serif" font-size="14.00" fill="#000000">a/0</text>
</g>
<!-- 2 -->
<g id="node7" class="node">
<title>2</title>
<ellipse fill="none" stroke="#000000" cx="200" cy="-22" rx="18" ry="18"/>
<ellipse fill="none" stroke="#000000" cx="200" cy="-22" rx="22" ry="22"/>
<text text-anchor="middle" x="200" y="-18.3" font-family="Times,serif" font-size="14.00" fill="#000000">2</text>
</g>
<!-- 1&#45;&gt;2 -->
<g id="edge4" class="edge">
<title>1&#45;&gt;2</title>
<path fill="none" stroke="#000000" d="M125.3738,-22C137.3538,-22 153.3235,-22 167.4151,-22"/>
<polygon fill="#000000" stroke="#000000" points="167.7279,-25.5001 177.7279,-22 167.7278,-18.5001 167.7279,-25.5001"/>
<text text-anchor="middle" x="151.5" y="-25.8" font-family="Times,serif" font-size="14.00" fill="#000000">b/0</text>
</g>
<!-- 3 -->
<g id="node3" class="node">
<title>3</title>
<ellipse fill="none" stroke="#000000" stroke-width="2" cx="18" cy="-117" rx="18" ry="18"/>
<text text-anchor="middle" x="18" y="-113.3" font-family="Times,serif" font-size="14.00" fill="#000000">3</text>
</g>
<!-- 4 -->
<g id="node4" class="node">
<title>4</title>
<ellipse fill="none" stroke="#000000" cx="107" cy="-117" rx="18" ry="18"/>
<text text-anchor="middle" x="107" y="-113.3" font-family="Times,serif" font-size="14.00" fill="#000000">4</text>
</g>
<!-- 3&#45;&gt;4 -->
<g id="edge2" class="edge">
<title>3&#45;&gt;4</title>
<path fill="none" stroke="#000000" d="M36.0105,-117C48.2342,-117 64.6505,-117 78.6176,-117"/>
<polygon fill="#000000" stroke="#000000" points="78.7109,-120.5001 88.7108,-117 78.7108,-113.5001 78.7109,-120.5001"/>
<text text-anchor="middle" x="62.5" y="-120.8" font-family="Times,serif" font-size="14.00" fill="#000000">b/0</text>
</g>
<!-- 5 -->
<g id="node8" class="node">
<title>5</title>
<ellipse fill="none" stroke="#000000" cx="200" cy="-117" rx="18" ry="18"/>
<ellipse fill="none" stroke="#000000" cx="200" cy="-117" rx="22" ry="22"/>
<text text-anchor="middle" x="200" y="-113.3" font-family="Times,serif" font-size="14.00" fill="#000000">5</text>
</g>
<!-- 4&#45;&gt;5 -->
<g id="edge5" class="edge">
<title>4&#45;&gt;5</title>
<path fill="none" stroke="#000000" d="M125.3738,-117C137.3538,-117 153.3235,-117 167.4151,-117"/>
<polygon fill="#000000" stroke="#000000" points="167.7279,-120.5001 177.7279,-117 167.7278,-113.5001 167.7279,-120.5001"/>
<text text-anchor="middle" x="151.5" y="-120.8" font-family="Times,serif" font-size="14.00" fill="#000000">a/0</text>
</g>
<!-- 6 -->
<g id="node5" class="node">
<title>6</title>
<ellipse fill="none" stroke="#000000" stroke-width="2" cx="18" cy="-179" rx="18" ry="18"/>
<text text-anchor="middle" x="18" y="-175.3" font-family="Times,serif" font-size="14.00" fill="#000000">6</text>
</g>
<!-- 7 -->
<g id="node6" class="node">
<title>7</title>
<ellipse fill="none" stroke="#000000" cx="107" cy="-179" rx="18" ry="18"/>
<text text-anchor="middle" x="107" y="-175.3" font-family="Times,serif" font-size="14.00" fill="#000000">7</text>
</g>
<!-- 6&#45;&gt;7 -->
<g id="edge3" class="edge">
<title>6&#45;&gt;7</title>
<path fill="none" stroke="#000000" d="M36.0105,-179C48.2342,-179 64.6505,-179 78.6176,-179"/>
<polygon fill="#000000" stroke="#000000" points="78.7109,-182.5001 88.7108,-179 78.7108,-175.5001 78.7109,-182.5001"/>
<text text-anchor="middle" x="62.5" y="-182.8" font-family="Times,serif" font-size="14.00" fill="#000000">a/0</text>
</g>
<!-- 8 -->
<g id="node9" class="node">
<title>8</title>
<ellipse fill="none" stroke="#000000" cx="200" cy="-179" rx="18" ry="18"/>
<ellipse fill="none" stroke="#000000" cx="200" cy="-179" rx="22" ry="22"/>
<text text-anchor="middle" x="200" y="-175.3" font-family="Times,serif" font-size="14.00" fill="#000000">8</text>
</g>
<!-- 7&#45;&gt;8 -->
<g id="edge6" class="edge">
<title>7&#45;&gt;8</title>
<path fill="none" stroke="#000000" d="M125.3738,-179C137.3538,-179 153.3235,-179 167.4151,-179"/>
<polygon fill="#000000" stroke="#000000" points="167.7279,-182.5001 177.7279,-179 167.7278,-175.5001 167.7279,-182.5001"/>
<text text-anchor="middle" x="151.5" y="-182.8" font-family="Times,serif" font-size="14.00" fill="#000000">c/0</text>
</g>
<!-- 2&#45;&gt;2 -->
<g id="edge7" class="edge">
<title>2&#45;&gt;2</title>
<path fill="none" stroke="#000000" d="M191.2659,-42.5808C190.0574,-52.8447 192.9688,-62 200,-62 204.5044,-62 207.318,-58.2427 208.4408,-52.8436"/>
<polygon fill="#000000" stroke="#000000" points="211.9469,-52.6768 208.7341,-42.5808 204.9498,-52.4767 211.9469,-52.6768"/>
<text text-anchor="middle" x="200" y="-65.8" font-family="Times,serif" font-size="14.00" fill="#000000">a/0</text>
</g>
</g>
</svg>
