<?xml version="1.0" encoding="UTF-8" standalone="no"?>
<!DOCTYPE svg PUBLIC "-//W3C//DTD SVG 1.1//EN"
 "http://www.w3.org/Graphics/SVG/1.1/DTD/svg11.dtd">
<!-- Generated by graphviz version 2.40.1 (20161225.0304)
 -->
<!-- Title: FST Pages: 1 -->
<svg width="389pt" height="205pt"
 viewBox="0.00 0.00 389.00 204.58" xmlns="http://www.w3.org/2000/svg" xmlns:xlink="http://www.w3.org/1999/xlink">
<g id="graph0" class="graph" transform="scale(1 1) rotate(0) translate(4 200.582)">
<title>FST</title>
<polygon fill="#ffffff" stroke="transparent" points="-4,4 -4,-200.582 385,-200.582 385,4 -4,4"/>
<!-- 0 -->
<g id="node1" class="node">
<title>0</title>
<ellipse fill="none" stroke="#000000" stroke-width="2" cx="21.5" cy="-118.082" rx="21.5" ry="21.5"/>
<text text-anchor="middle" x="21.5" y="-114.382" font-family="Times,serif" font-size="14.00" fill="#000000">0 / 0.0</text>
</g>
<!-- 1 -->
<g id="node2" class="node">
<title>1</title>
<ellipse fill="none" stroke="#000000" cx="131.5" cy="-118.082" rx="21.5" ry="21.5"/>
<text text-anchor="middle" x="131.5" y="-114.382" font-family="Times,serif" font-size="14.00" fill="#000000">1 / 1.1</text>
</g>
<!-- 0&#45;&gt;1 -->
<g id="edge1" class="edge">
<title>0&#45;&gt;1</title>
<path fill="none" stroke="#ff0000" d="M43.2325,-118.082C59.3531,-118.082 81.5814,-118.082 99.6982,-118.082"/>
<polygon fill="#ff0000" stroke="#ff0000" points="99.8127,-121.5821 109.8127,-118.082 99.8127,-114.5821 99.8127,-121.5821"/>
<text text-anchor="middle" x="76.5" y="-121.882" font-family="Times,serif" font-size="14.00" fill="#000000">a/1.1</text>
</g>
<!-- 2 -->
<g id="node3" class="node">
<title>2</title>
<ellipse fill="none" stroke="#000000" cx="131.5" cy="-42.082" rx="21.5" ry="21.5"/>
<text text-anchor="middle" x="131.5" y="-38.382" font-family="Times,serif" font-size="14.00" fill="#000000">2 / 2.3</text>
</g>
<!-- 0&#45;&gt;2 -->
<g id="edge2" class="edge">
<title>0&#45;&gt;2</title>
<path fill="none" stroke="#ff0000" d="M39.6643,-105.5321C57.5245,-93.1923 84.9759,-74.2259 105.2163,-60.2416"/>
<polygon fill="#ff0000" stroke="#ff0000" points="107.4359,-62.9623 113.6737,-54.3983 103.4569,-57.2031 107.4359,-62.9623"/>
<text text-anchor="middle" x="76.5" y="-95.882" font-family="Times,serif" font-size="14.00" fill="#000000">b/2.3</text>
</g>
<!-- 3 -->
<g id="node4" class="node">
<title>3</title>
<ellipse fill="none" stroke="#000000" cx="241.5" cy="-175.082" rx="21.5" ry="21.5"/>
<text text-anchor="middle" x="241.5" y="-171.382" font-family="Times,serif" font-size="14.00" fill="#000000">3 / 6.0</text>
</g>
<!-- 0&#45;&gt;3 -->
<g id="edge3" class="edge">
<title>0&#45;&gt;3</title>
<path fill="none" stroke="#000000" d="M40.5262,-128.7721C46.068,-131.6693 52.195,-134.6686 58,-137.082 105.3731,-156.7769 117.4745,-163.1787 168,-172.082 181.4616,-174.4541 196.5147,-175.3671 209.4753,-175.6264"/>
<polygon fill="#000000" stroke="#000000" points="209.7618,-179.1287 219.7893,-175.7082 209.8174,-172.1289 209.7618,-179.1287"/>
<text text-anchor="middle" x="131.5" y="-173.882" font-family="Times,serif" font-size="14.00" fill="#000000">c/2</text>
</g>
<!-- 1&#45;&gt;3 -->
<g id="edge4" class="edge">
<title>1&#45;&gt;3</title>
<path fill="none" stroke="#ff0000" d="M150.6605,-128.0106C167.9053,-136.9466 193.476,-150.1968 213.0978,-160.3645"/>
<polygon fill="#ff0000" stroke="#ff0000" points="211.7009,-163.5826 222.19,-165.0759 214.9215,-157.3674 211.7009,-163.5826"/>
<text text-anchor="middle" x="186.5" y="-158.882" font-family="Times,serif" font-size="14.00" fill="#000000">a/4.9</text>
</g>
<!-- 4 -->
<g id="node5" class="node">
<title>4</title>
<ellipse fill="none" stroke="#000000" cx="241.5" cy="-49.082" rx="21.5" ry="21.5"/>
<text text-anchor="middle" x="241.5" y="-45.382" font-family="Times,serif" font-size="14.00" fill="#000000">4 / 8.1</text>
</g>
<!-- 1&#45;&gt;4 -->
<g id="edge5" class="edge">
<title>1&#45;&gt;4</title>
<path fill="none" stroke="#000000" d="M150.16,-106.3771C167.8075,-95.3073 194.4897,-78.5703 214.4658,-66.0398"/>
<polygon fill="#000000" stroke="#000000" points="216.5041,-68.8929 223.1156,-60.614 212.7844,-62.963 216.5041,-68.8929"/>
<text text-anchor="middle" x="186.5" y="-97.882" font-family="Times,serif" font-size="14.00" fill="#000000">b/2.1</text>
</g>
<!-- 5 -->
<g id="node6" class="node">
<title>5</title>
<ellipse fill="none" stroke="#000000" cx="241.5" cy="-114.082" rx="21.5" ry="21.5"/>
<text text-anchor="middle" x="241.5" y="-110.382" font-family="Times,serif" font-size="14.00" fill="#000000">5 / 1.4</text>
</g>
<!-- 1&#45;&gt;5 -->
<g id="edge6" class="edge">
<title>1&#45;&gt;5</title>
<path fill="none" stroke="#ff0000" d="M153.2325,-117.2917C169.3531,-116.7055 191.5814,-115.8972 209.6982,-115.2384"/>
<polygon fill="#ff0000" stroke="#ff0000" points="209.9465,-118.7318 219.8127,-114.8706 209.6921,-111.7364 209.9465,-118.7318"/>
<text text-anchor="middle" x="186.5" y="-120.882" font-family="Times,serif" font-size="14.00" fill="#000000">c/0.3</text>
</g>
<!-- 2&#45;&gt;4 -->
<g id="edge7" class="edge">
<title>2&#45;&gt;4</title>
<path fill="none" stroke="#000000" d="M143.9726,-24.2222C150.234,-16.822 158.51,-9.0507 168,-5.082 183.1712,1.2627 190.1159,1.9097 205,-5.082 212.706,-8.7018 219.346,-14.8361 224.7691,-21.3933"/>
<polygon fill="#000000" stroke="#000000" points="222.2097,-23.8181 230.9762,-29.7679 227.8334,-19.6499 222.2097,-23.8181"/>
<text text-anchor="middle" x="186.5" y="-8.882" font-family="Times,serif" font-size="14.00" fill="#000000">a/4.1</text>
</g>
<!-- 2&#45;&gt;4 -->
<g id="edge8" class="edge">
<title>2&#45;&gt;4</title>
<path fill="none" stroke="#ff0000" d="M153.0911,-41.5303C167.7594,-41.3628 187.5847,-41.5408 205,-43.082 206.7152,-43.2338 208.4714,-43.4196 210.2414,-43.6306"/>
<polygon fill="#ff0000" stroke="#ff0000" points="209.9465,-47.1236 220.3373,-45.054 210.9238,-40.1921 209.9465,-47.1236"/>
<text text-anchor="middle" x="186.5" y="-46.882" font-family="Times,serif" font-size="14.00" fill="#000000">c/5.8</text>
</g>
<!-- 6 -->
<g id="node7" class="node">
<title>6</title>
<ellipse fill="none" stroke="#000000" cx="355.5" cy="-114.082" rx="21.5" ry="21.5"/>
<ellipse fill="none" stroke="#000000" cx="355.5" cy="-114.082" rx="25.5" ry="25.5"/>
<text text-anchor="middle" x="355.5" y="-110.382" font-family="Times,serif" font-size="14.00" fill="#000000">6 / 8.5</text>
</g>
<!-- 3&#45;&gt;6 -->
<g id="edge9" class="edge">
<title>3&#45;&gt;6</title>
<path fill="none" stroke="#000000" d="M260.581,-164.872C277.8405,-155.6366 303.5889,-141.859 323.9152,-130.9826"/>
<polygon fill="#000000" stroke="#000000" points="325.657,-134.0202 332.8228,-126.2163 322.3544,-127.8483 325.657,-134.0202"/>
<text text-anchor="middle" x="296.5" y="-159.882" font-family="Times,serif" font-size="14.00" fill="#000000">a/1.7</text>
</g>
<!-- 4&#45;&gt;6 -->
<g id="edge10" class="edge">
<title>4&#45;&gt;6</title>
<path fill="none" stroke="#ff0000" d="M260.3248,-59.8154C277.6547,-69.6965 303.6977,-84.5456 324.1628,-96.2143"/>
<polygon fill="#ff0000" stroke="#ff0000" points="322.701,-99.4098 333.1218,-101.3225 326.1683,-93.3288 322.701,-99.4098"/>
<text text-anchor="middle" x="296.5" y="-93.882" font-family="Times,serif" font-size="14.00" fill="#000000">b/0.4</text>
</g>
<!-- 5&#45;&gt;6 -->
<g id="edge11" class="edge">
<title>5&#45;&gt;6</title>
<path fill="none" stroke="#000000" d="M263.2109,-114.082C279.1619,-114.082 301.1916,-114.082 319.7274,-114.082"/>
<polygon fill="#000000" stroke="#000000" points="319.884,-117.5821 329.884,-114.082 319.884,-110.5821 319.884,-117.5821"/>
<text text-anchor="middle" x="296.5" y="-117.882" font-family="Times,serif" font-size="14.00" fill="#000000">c/3.3</text>
</g>
</g>
</svg>
