<?xml version="1.0" encoding="UTF-8" standalone="no"?>
<!DOCTYPE svg PUBLIC "-//W3C//DTD SVG 1.1//EN"
 "http://www.w3.org/Graphics/SVG/1.1/DTD/svg11.dtd">
<!-- Generated by graphviz version 2.40.1 (20161225.0304)
 -->
<!-- Title: FST Pages: 1 -->
<svg width="133pt" height="195pt"
 viewBox="0.00 0.00 133.00 195.00" xmlns="http://www.w3.org/2000/svg" xmlns:xlink="http://www.w3.org/1999/xlink">
<g id="graph0" class="graph" transform="scale(1 1) rotate(0) translate(4 191)">
<title>FST</title>
<polygon fill="#ffffff" stroke="transparent" points="-4,4 -4,-191 129,-191 129,4 -4,4"/>
<!-- 0 -->
<g id="node1" class="node">
<title>0</title>
<ellipse fill="none" stroke="#000000" cx="18" cy="-164" rx="18" ry="18"/>
<text text-anchor="middle" x="18" y="-160.3" font-family="Times,serif" font-size="14.00" fill="#000000">0/3.1</text>
</g>
<!-- 3 -->
<g id="node2" class="node">
<title>3</title>
<ellipse fill="none" stroke="#000000" cx="107" cy="-94" rx="18" ry="18"/>
<text text-anchor="middle" x="107" y="-90.3" font-family="Times,serif" font-size="14.00" fill="#000000">3</text>
</g>
<!-- 0&#45;&gt;3 -->
<g id="edge1" class="edge">
<title>0&#45;&gt;3</title>
<path fill="none" stroke="#000000" d="M35.2742,-169.9056C47.0967,-172.8234 62.6292,-174.3385 74,-167 89.3379,-157.1013 97.6228,-138.1641 102.055,-122.0583"/>
<polygon fill="#000000" stroke="#000000" points="105.5367,-122.5455 104.4467,-112.0069 98.7268,-120.9251 105.5367,-122.5455"/>
<text text-anchor="middle" x="62.5" y="-175.8" font-family="Times,serif" font-size="14.00" fill="#000000">3.5</text>
</g>
<!-- 0&#45;&gt;3 -->
<g id="edge2" class="edge">
<title>0&#45;&gt;3</title>
<path fill="none" stroke="#000000" d="M32.2994,-152.7533C46.4425,-141.6295 68.2916,-124.4448 84.7131,-111.5291"/>
<polygon fill="#000000" stroke="#000000" points="87.0397,-114.152 92.7361,-105.2188 82.7122,-108.6499 87.0397,-114.152"/>
<text text-anchor="middle" x="62.5" y="-140.8" font-family="Times,serif" font-size="14.00" fill="#000000">1.1</text>
</g>
<!-- 1 -->
<g id="node3" class="node">
<title>1</title>
<ellipse fill="none" stroke="#ff0000" cx="18" cy="-99" rx="18" ry="18"/>
<text text-anchor="middle" x="18" y="-95.3" font-family="Times,serif" font-size="14.00" fill="#ff0000">1/2.8</text>
</g>
<!-- 1&#45;&gt;3 -->
<g id="edge3" class="edge">
<title>1&#45;&gt;3</title>
<path fill="none" stroke="#ff0000" d="M36.0105,-97.9882C48.3151,-97.2969 64.8681,-96.367 78.8947,-95.5789"/>
<polygon fill="#ff0000" stroke="#ff0000" points="79.2284,-99.0658 89.0163,-95.0103 78.8357,-92.0768 79.2284,-99.0658"/>
<text text-anchor="middle" x="62.5" y="-100.8" font-family="Times,serif" font-size="14.00" fill="#ff0000">6.1</text>
</g>
<!-- 1&#45;&gt;3 -->
<g id="edge4" class="edge">
<title>1&#45;&gt;3</title>
<path fill="none" stroke="#000000" d="M31.4382,-86.8491C37.0662,-82.5428 43.9378,-78.2183 51,-76 60.7524,-72.9367 64.0947,-73.4742 74,-76 77.0018,-76.7654 80.0249,-77.8659 82.9584,-79.1508"/>
<polygon fill="#000000" stroke="#000000" points="81.3882,-82.2789 91.8874,-83.6997 84.5658,-76.0416 81.3882,-82.2789"/>
<text text-anchor="middle" x="62.5" y="-79.8" font-family="Times,serif" font-size="14.00" fill="#000000">0.3</text>
</g>
<!-- 2 -->
<g id="node4" class="node">
<title>2</title>
<ellipse fill="none" stroke="#000000" cx="18" cy="-18" rx="18" ry="18"/>
<text text-anchor="middle" x="18" y="-14.3" font-family="Times,serif" font-size="14.00" fill="#000000">2/4.7</text>
</g>
<!-- 2&#45;&gt;3 -->
<g id="edge5" class="edge">
<title>2&#45;&gt;3</title>
<path fill="none" stroke="#000000" d="M34.124,-26.5754C45.8405,-33.2177 61.7282,-43.1022 74,-54 79.6082,-58.9803 85.0612,-64.9555 89.8661,-70.7505"/>
<polygon fill="#000000" stroke="#000000" points="87.4302,-73.312 96.3845,-78.9751 92.9162,-68.9641 87.4302,-73.312"/>
<text text-anchor="middle" x="62.5" y="-57.8" font-family="Times,serif" font-size="14.00" fill="#000000">2.8</text>
</g>
<!-- 2&#45;&gt;3 -->
<g id="edge6" class="edge">
<title>2&#45;&gt;3</title>
<path fill="none" stroke="#000000" d="M35.575,-13.3094C47.3852,-11.2158 62.7817,-10.6409 74,-18 90.1358,-28.585 98.4224,-48.9475 102.6552,-65.9328"/>
<polygon fill="#000000" stroke="#000000" points="99.2848,-66.9089 104.8008,-75.9545 106.1297,-65.4434 99.2848,-66.9089"/>
<text text-anchor="middle" x="62.5" y="-21.8" font-family="Times,serif" font-size="14.00" fill="#000000">1.2</text>
</g>
</g>
</svg>
